<?xml version="1.0" standalone="no"?>
<!DOCTYPE svg PUBLIC "-//W3C//DTD SVG 1.1//EN" "http://www.w3.org/Graphics/SVG/1.1/DTD/svg11.dtd" >
<svg xmlns="http://www.w3.org/2000/svg" xmlns:xlink="http://www.w3.org/1999/xlink" version="1.1">
<metadata>
Created by FontForge 20170812 at Sun Sep 18 22:25:12 2022
 By www-data
(c) 2022 GGBotNet
</metadata>
<defs>
<font id="Unutterable-Regular" horiz-adv-x="1361" >
  <font-face 
    font-family="Unutterable"
    font-weight="400"
    font-stretch="normal"
    units-per-em="2048"
    panose-1="3 0 6 0 0 0 0 0 0 0"
    ascent="1638"
    descent="-410"
    x-height="1679"
    cap-height="1482"
    bbox="-184 -522 2152 1910"
    underline-thickness="150"
    underline-position="-292"
    unicode-range="U+001D-1F47D"
  />
<missing-glyph horiz-adv-x="1362" 
d="M113 416q-9 86 -9 191q0 97 3 123q2 91 6 182q6 133 8 266q-1 64 -10 130q-4 30 -7 62q12 8 34 20q-42 13 -42 30q0 9 15 28q12 13 15 25l-48 42l50 36q-24 30 -24 106q0 65 19 81q11 6 27 6q24 0 40 -8l4 5q3 3 9 3q11 0 38 -7q13 -4 24 -6q5 -1 10.5 -3.5t10.5 -3.5
q91 -11 182 -11l61 1l45 1q68 0 135 -5q90 -5 179 -35q83 -28 169 -43q39 -7 77 -16l59 77q4 -33 12 -62q6 -4 13 -8q33 -23 61 -55t29 -51q-3 -18 -35 -325q9 -86 9 -191q0 -97 -3 -123q-2 -91 -6 -182q-6 -133 -8 -266q1 -64 10 -130q4 -30 7 -62q-12 -8 -34 -20
q42 -13 42 -30q0 -9 -15 -28q-12 -13 -15 -25l48 -42l-50 -36q24 -30 24 -106q0 -65 -19 -81q-11 -6 -27 -6q-24 0 -40 8l-4 -5q-3 -3 -9 -3q-11 0 -38 7q-13 4 -24 6q-5 1 -10.5 3.5t-10.5 3.5q-91 11 -182 11l-106 -2q-67 0 -135 5q-90 5 -179 35q-83 28 -169 43
q-39 7 -77 16l-59 -77q-4 33 -12 62q-6 4 -13 8q-33 23 -61 55t-29 51q3 18 35 325zM330 994q15 -51 39 -101l-35 -15l5 -119l-8 -12q-14 -17 -21 -32v-17q0 -94 -7 -186q-6 -86 -6 -170q0 -117 25 -214l605 -26l149 6l2 213l-22 293q-15 51 -39 101l35 15l-5 119l8 12
q14 17 21 32v17q0 94 7 186q6 86 6 170q0 117 -25 214l-555 25l-199 -5v-252z" />
    <glyph glyph-name=".notdef" horiz-adv-x="1362" 
d="M113 416q-9 86 -9 191q0 97 3 123q2 91 6 182q6 133 8 266q-1 64 -10 130q-4 30 -7 62q12 8 34 20q-42 13 -42 30q0 9 15 28q12 13 15 25l-48 42l50 36q-24 30 -24 106q0 65 19 81q11 6 27 6q24 0 40 -8l4 5q3 3 9 3q11 0 38 -7q13 -4 24 -6q5 -1 10.5 -3.5t10.5 -3.5
q91 -11 182 -11l61 1l45 1q68 0 135 -5q90 -5 179 -35q83 -28 169 -43q39 -7 77 -16l59 77q4 -33 12 -62q6 -4 13 -8q33 -23 61 -55t29 -51q-3 -18 -35 -325q9 -86 9 -191q0 -97 -3 -123q-2 -91 -6 -182q-6 -133 -8 -266q1 -64 10 -130q4 -30 7 -62q-12 -8 -34 -20
q42 -13 42 -30q0 -9 -15 -28q-12 -13 -15 -25l48 -42l-50 -36q24 -30 24 -106q0 -65 -19 -81q-11 -6 -27 -6q-24 0 -40 8l-4 -5q-3 -3 -9 -3q-11 0 -38 7q-13 4 -24 6q-5 1 -10.5 3.5t-10.5 3.5q-91 11 -182 11l-106 -2q-67 0 -135 5q-90 5 -179 35q-83 28 -169 43
q-39 7 -77 16l-59 -77q-4 33 -12 62q-6 4 -13 8q-33 23 -61 55t-29 51q3 18 35 325zM330 994q15 -51 39 -101l-35 -15l5 -119l-8 -12q-14 -17 -21 -32v-17q0 -94 -7 -186q-6 -86 -6 -170q0 -117 25 -214l605 -26l149 6l2 213l-22 293q-15 51 -39 101l35 15l-5 119l8 12
q14 17 21 32v17q0 94 7 186q6 86 6 170q0 117 -25 214l-555 25l-199 -5v-252z" />
    <glyph glyph-name=".notdef" horiz-adv-x="1362" 
d="M113 416q-9 86 -9 191q0 97 3 123q2 91 6 182q6 133 8 266q-1 64 -10 130q-4 30 -7 62q12 8 34 20q-42 13 -42 30q0 9 15 28q12 13 15 25l-48 42l50 36q-24 30 -24 106q0 65 19 81q11 6 27 6q24 0 40 -8l4 5q3 3 9 3q11 0 38 -7q13 -4 24 -6q5 -1 10.5 -3.5t10.5 -3.5
q91 -11 182 -11l61 1l45 1q68 0 135 -5q90 -5 179 -35q83 -28 169 -43q39 -7 77 -16l59 77q4 -33 12 -62q6 -4 13 -8q33 -23 61 -55t29 -51q-3 -18 -35 -325q9 -86 9 -191q0 -97 -3 -123q-2 -91 -6 -182q-6 -133 -8 -266q1 -64 10 -130q4 -30 7 -62q-12 -8 -34 -20
q42 -13 42 -30q0 -9 -15 -28q-12 -13 -15 -25l48 -42l-50 -36q24 -30 24 -106q0 -65 -19 -81q-11 -6 -27 -6q-24 0 -40 8l-4 -5q-3 -3 -9 -3q-11 0 -38 7q-13 4 -24 6q-5 1 -10.5 3.5t-10.5 3.5q-91 11 -182 11l-106 -2q-67 0 -135 5q-90 5 -179 35q-83 28 -169 43
q-39 7 -77 16l-59 -77q-4 33 -12 62q-6 4 -13 8q-33 23 -61 55t-29 51q3 18 35 325zM330 994q15 -51 39 -101l-35 -15l5 -119l-8 -12q-14 -17 -21 -32v-17q0 -94 -7 -186q-6 -86 -6 -170q0 -117 25 -214l605 -26l149 6l2 213l-22 293q-15 51 -39 101l35 15l-5 119l8 12
q14 17 21 32v17q0 94 7 186q6 86 6 170q0 117 -25 214l-555 25l-199 -5v-252z" />
    <glyph glyph-name="space" unicode="&#xa0;" horiz-adv-x="666" 
 />
    <glyph glyph-name="space" unicode=" " horiz-adv-x="666" 
 />
    <glyph glyph-name="A" unicode="A" horiz-adv-x="1430" 
d="M634 824q55 9 119 24l59 12q-8 98 -25 156q-11 37 -14 75q0 44 10 85l6 35l-62 44q-7 -5 -19 -13t-73 -152l-19 -41q-6 -12 -6 -17q0 -3 1 -5q8 -19 8 -38q0 -26 -17 -67q-8 -20 -14 -41q-3 -17 -7 -33l-3 -16q9 -1 17 -3q16 -5 31 -5h8zM1044 1129l-53 62q20 2 35 2
q38 0 38 -16q0 -15 -20 -48zM152 -145q-7 0 -18 4.5t-15.5 33t-20 57t-21.5 57.5q0 52 24 105l1 2q55 142 112 284q22 54 43 109q13 30 13 54q0 63 -88 83q-44 12 -91 28l36 25q45 30 86 56q16 10 30 10l7 -1q14 -3 26 -3q57 0 84 63q56 134 108 268q45 115 48.5 118.5
t3.5 8.5q-4 52 -9 98l-2 24l2 2q-1 0 -3 -2.5t-5 -4.5l-10 13l53 32q-10 17 -10 29q0 20 34 35q30 16 36 30q-8 6 -18 14t-23 17l30 11l18 6q-4 4 -43 30q6 3 13 5q38 12 66 33t28 73l78 -14l13 32q25 56 51 117q12 -3 18 -3l-14 -212l21 -42q25 -42 38 -84q13 -53 21 -107
q6 -40 14 -79q2 -7 19 -24q3 -2 19 -18q13 -13 13 -18v-2q-5 -18 -5 -34q0 -36 32 -88q20 -33 20 -47l1 -7l43 94l2 5l16 -6l14 -131l-60 16q45 -49 94 -49q54 0 138 50l6 -23l-104 -111l209 -14l-22 -15q-16 -13 -46 -15.5t-56.5 -12t-47.5 -41.5q-10 -13 -57 -13h-11
q-21 0 -38 -2q8 -238 114 -442q12 -30 12 -65l-1 -58l-1 -23l-1 -12q0 -32 59 -113q12 -16 23 -33h-36l49 -74q-2 -1 -48 -44l-89 173l-91 -24q-1 32 -3 63l-4 76l14 6v7l-34 69q-72 143 -119 270q-21 54 -43 107q-11 25 -56 94l-118 -32q-8 -3 -13 -3q-2 0 -3 1
q-22 23 -39 23q-22 0 -47 -36q-3 -5 -7 -9q-7 -10 -13 -10l-15 1q-56 0 -87 -74q-7 -14 -15 -26q-14 -29 -17 -65q-3 -42 -58 -193q-25 -70 -25 -74v-4q6 -23 6 -44q0 -49 -40 -122q-14 -23 -14 -43q0 -7 3 -18.5t23 -23.5l1 -3q0 -15 -15 -42q-6 -11 -47 -11q-20 0 -42 2
l-37 2v1l-6 -7q-10 -10 -16 -22q-5 -8 -9.5 -18.5t-9.5 -19.5q-10 -16 -29 -16z" />
    <glyph glyph-name="a" unicode="a" horiz-adv-x="1430" 
d="M634 824q55 9 119 24l59 12q-8 98 -25 156q-11 37 -14 75q0 44 10 85l6 35l-62 44q-7 -5 -19 -13t-73 -152l-19 -41q-6 -12 -6 -17q0 -3 1 -5q8 -19 8 -38q0 -26 -17 -67q-8 -20 -14 -41q-3 -17 -7 -33l-3 -16q9 -1 17 -3q16 -5 31 -5h8zM1044 1129l-53 62q20 2 35 2
q38 0 38 -16q0 -15 -20 -48zM152 -145q-7 0 -18 4.5t-15.5 33t-20 57t-21.5 57.5q0 52 24 105l1 2q55 142 112 284q22 54 43 109q13 30 13 54q0 63 -88 83q-44 12 -91 28l36 25q45 30 86 56q16 10 30 10l7 -1q14 -3 26 -3q57 0 84 63q56 134 108 268q45 115 48.5 118.5
t3.5 8.5q-4 52 -9 98l-2 24l2 2q-1 0 -3 -2.5t-5 -4.5l-10 13l53 32q-10 17 -10 29q0 20 34 35q30 16 36 30q-8 6 -18 14t-23 17l30 11l18 6q-4 4 -43 30q6 3 13 5q38 12 66 33t28 73l78 -14l13 32q25 56 51 117q12 -3 18 -3l-14 -212l21 -42q25 -42 38 -84q13 -53 21 -107
q6 -40 14 -79q2 -7 19 -24q3 -2 19 -18q13 -13 13 -18v-2q-5 -18 -5 -34q0 -36 32 -88q20 -33 20 -47l1 -7l43 94l2 5l16 -6l14 -131l-60 16q45 -49 94 -49q54 0 138 50l6 -23l-104 -111l209 -14l-22 -15q-16 -13 -46 -15.5t-56.5 -12t-47.5 -41.5q-10 -13 -57 -13h-11
q-21 0 -38 -2q8 -238 114 -442q12 -30 12 -65l-1 -58l-1 -23l-1 -12q0 -32 59 -113q12 -16 23 -33h-36l49 -74q-2 -1 -48 -44l-89 173l-91 -24q-1 32 -3 63l-4 76l14 6v7l-34 69q-72 143 -119 270q-21 54 -43 107q-11 25 -56 94l-118 -32q-8 -3 -13 -3q-2 0 -3 1
q-22 23 -39 23q-22 0 -47 -36q-3 -5 -7 -9q-7 -10 -13 -10l-15 1q-56 0 -87 -74q-7 -14 -15 -26q-14 -29 -17 -65q-3 -42 -58 -193q-25 -70 -25 -74v-4q6 -23 6 -44q0 -49 -40 -122q-14 -23 -14 -43q0 -7 3 -18.5t23 -23.5l1 -3q0 -15 -15 -42q-6 -11 -47 -11q-20 0 -42 2
l-37 2v1l-6 -7q-10 -10 -16 -22q-5 -8 -9.5 -18.5t-9.5 -19.5q-10 -16 -29 -16z" />
    <glyph glyph-name="B" unicode="B" horiz-adv-x="1362" 
d="M83 -134q-1 8 -3 15q-4 13 -4 25q0 17 24 145q19 108 19 116q0 7 -3 14.5t-3 14.5l-3 40q-3 43 -3 85q0 72 9 142q5 45 8 89q-1 12 -14 27q-6 7 -12 16q27 30 45 48l3 35q0 33 9 59q25 74 29 149q3 47 3 94q0 29 -1 57q0 24 -9 48t-9 39q0 8 5 17t12.5 18t7.5 22
q-1 12 -4 25.5t-3 26.5q0 3 1 13t21 24t20 53q0 30 -11 62t-30 45q36 27 45.5 63.5t11 75.5t10.5 75t41 64q-2 -24 -6 -124q0 -3 22 -14l55 180q6 -31 17 -72l48 27v-49l17 -1q41 0 82 16q50 17 87 17q30 0 62 -16q25 25 90 25q103 0 137 -48l-56 -33q19 -16 38 -30
q43 -33 81 -65q25 -20 38 -47q29 -65 29 -130q0 -75 -39 -150q-25 -55 -36 -118q-6 -28 -13 -55q68 -9 103 -10q33 0 73 6q19 3 43 5q-24 -37 -38 -63l62 26l24 -63l15 -40q-3 3 -7 5q-8 4 -14 11q-52 63 -146 63q17 -16 37 -29q28 -16 44 -38q22 -32 48 -32q20 0 42 10
l22 -85q-65 -20 -65 -89v-8q-3 -35 -20 -69q-19 -40 -21 -84l-1 -28l-133 -183l-5 12l-35 -18q-41 -17 -72 -45q-56 -59 -120 -105q-174 -125 -316 -190l17 37q-31 0 -55 -10q-20 -10 -40 -10h-14q-12 0 -30 31q-50 -29 -83 -53q-5 -3 -5 -21l-2 -15h-67q7 5 29 26l22 20
l-78 30l-59 -148zM861 1199l74 4l5 10l-40 21l18 7l6 83l-10 -2zM410 1008q93 0 164.5 35t129.5 93.5t108 131.5q-10 5 -22 9q54 70 54 125q0 12 -8 48.5t-90 84.5l27 53q-103 -24 -196 -47l24 46h-12q-43 0 -67 -28t-39 -75q7 1 50 3l-52 -74v-219l81 7q-18 -15 -38 -22
q-14 -6 -26 -14q-15 -14 -25 -35l-9 -18l17 -5q28 -10 48 -10q14 0 27 2l16 3q1 -5 1 -11l-51 -16l-124 -41l11 -22zM427 1321l6 10q21 28 21 52q0 25 -32 56l-8 -87l-2 -27zM408 1176q33 18 33 51q0 25 -15 55l-39 -98zM442 37l123 38q-67 26 -86 26q-14 0 -21.5 -13
t-15.5 -51zM341 140q33 33 73 83l14 17l15 -15q-10 -13 -23 -28l-15 -18l138 -9q0 16 2 52l275 94l-38 28q56 24 94.5 61t47.5 98q3 5 25 11q37 5 37 34q0 12 -6 27q35 11 54 44q16 27 16 62q0 58 -42 85q-34 22 -78 35l-5 -39l-15 -8q-1 2 -3 3q-53 63 -107 125l10 10
l123 -86q-15 63 -55 97q-63 52 -140 52q-60 0 -166 -41q-50 -20 -102 -32q-55 -7 -60 -56q-5 -43 -12 -85q-24 -167 -24 -196q0 -14 4.5 -30.5t4.5 -32.5l-1 -11q-29 -145 -69 -312z" />
    <glyph glyph-name="b" unicode="b" horiz-adv-x="1362" 
d="M83 -134q-1 8 -3 15q-4 13 -4 25q0 17 24 145q19 108 19 116q0 7 -3 14.5t-3 14.5l-3 40q-3 43 -3 85q0 72 9 142q5 45 8 89q-1 12 -14 27q-6 7 -12 16q27 30 45 48l3 35q0 33 9 59q25 74 29 149q3 47 3 94q0 29 -1 57q0 24 -9 48t-9 39q0 8 5 17t12.5 18t7.5 22
q-1 12 -4 25.5t-3 26.5q0 3 1 13t21 24t20 53q0 30 -11 62t-30 45q36 27 45.5 63.5t11 75.5t10.5 75t41 64q-2 -24 -6 -124q0 -3 22 -14l55 180q6 -31 17 -72l48 27v-49l17 -1q41 0 82 16q50 17 87 17q30 0 62 -16q25 25 90 25q103 0 137 -48l-56 -33q19 -16 38 -30
q43 -33 81 -65q25 -20 38 -47q29 -65 29 -130q0 -75 -39 -150q-25 -55 -36 -118q-6 -28 -13 -55q68 -9 103 -10q33 0 73 6q19 3 43 5q-24 -37 -38 -63l62 26l24 -63l15 -40q-3 3 -7 5q-8 4 -14 11q-52 63 -146 63q17 -16 37 -29q28 -16 44 -38q22 -32 48 -32q20 0 42 10
l22 -85q-65 -20 -65 -89v-8q-3 -35 -20 -69q-19 -40 -21 -84l-1 -28l-133 -183l-5 12l-35 -18q-41 -17 -72 -45q-56 -59 -120 -105q-174 -125 -316 -190l17 37q-31 0 -55 -10q-20 -10 -40 -10h-14q-12 0 -30 31q-50 -29 -83 -53q-5 -3 -5 -21l-2 -15h-67q7 5 29 26l22 20
l-78 30l-59 -148zM861 1199l74 4l5 10l-40 21l18 7l6 83l-10 -2zM410 1008q93 0 164.5 35t129.5 93.5t108 131.5q-10 5 -22 9q54 70 54 125q0 12 -8 48.5t-90 84.5l27 53q-103 -24 -196 -47l24 46h-12q-43 0 -67 -28t-39 -75q7 1 50 3l-52 -74v-219l81 7q-18 -15 -38 -22
q-14 -6 -26 -14q-15 -14 -25 -35l-9 -18l17 -5q28 -10 48 -10q14 0 27 2l16 3q1 -5 1 -11l-51 -16l-124 -41l11 -22zM427 1321l6 10q21 28 21 52q0 25 -32 56l-8 -87l-2 -27zM408 1176q33 18 33 51q0 25 -15 55l-39 -98zM442 37l123 38q-67 26 -86 26q-14 0 -21.5 -13
t-15.5 -51zM341 140q33 33 73 83l14 17l15 -15q-10 -13 -23 -28l-15 -18l138 -9q0 16 2 52l275 94l-38 28q56 24 94.5 61t47.5 98q3 5 25 11q37 5 37 34q0 12 -6 27q35 11 54 44q16 27 16 62q0 58 -42 85q-34 22 -78 35l-5 -39l-15 -8q-1 2 -3 3q-53 63 -107 125l10 10
l123 -86q-15 63 -55 97q-63 52 -140 52q-60 0 -166 -41q-50 -20 -102 -32q-55 -7 -60 -56q-5 -43 -12 -85q-24 -167 -24 -196q0 -14 4.5 -30.5t4.5 -32.5l-1 -11q-29 -145 -69 -312z" />
    <glyph glyph-name="C" unicode="C" horiz-adv-x="1381" 
d="M553 1323q-9 21 -9 36q0 28 46 41q42 15 48 37q-22 8 -42 8q-34 0 -76 -25.5t-44 -76.5zM480 123q7 0 27 6l20 5v15l-116 80l-16 -15l20 -26q23 -34 53 -62q4 -3 12 -3zM357 229l39 37l-101 114h-15l6 -22q11 -52 50 -106l14 -20q2 -2 4 -2t3 -1zM655 19h-4q-36 0 -74 16
q-19 8 -39 13l-11 3q-22 7 -44 7h-20q-88 0 -155 100q-9 15 -11 40l-5 28q-10 6 -25 10q-19 5 -33.5 14.5t-14.5 29.5v6q-9 14 -15 26q-42 74 -60 91q-39 38 -39 86q0 18 6 38q6 29 10 55q1 10 3 19l-6 23l-9 43q-30 161 -37 205l50 17l20 20l-59 31q7 4 16 6q-3 5 -5 11
l-17 33q-7 10 -8 19q0 3 4 7t8 6t7 2q8 0 22 -14q8 -8 23 -26l11 -12l52 174l-6 8q-5 -5 -11.5 -9.5t-11.5 -9.5t-5 -9v-10q0 -58 -64 -58l-21 1q16 33 30.5 65t29.5 62l15 -7q-2 29 -2 47q0 12 1.5 27t21.5 15q14 0 38 -5l-5 16l-10 31l149 225l22 -14l-110 -171l16 -11
q73 87 152 178q-24 11 -24 23q0 5 4 10.5t13.5 13.5t16.5 18q18 -23 31 -23q15 0 34 23q10 11 21 19q3 -8 5.5 -18.5t7.5 -28.5l29 64q6 -15 6 -19q76 25 90 25q7 0 16 -4t13.5 -11t4.5 -19q0 -11 -4.5 -17.5t-14.5 -9.5q-16 -4 -60 -4h-61q31 -34 60 -38q12 -2 23 -2
q17 0 33 4q9 2 20.5 3t25.5 3q48 7 96 7q6 0 36 -0.5t84 -28.5q-2 -9 -5 -17q-6 -13 -6 -25q0 -22 42 -22q20 -1 39.5 -24.5t31.5 -56.5q10 -28 10 -54v-8q-12 32 -35.5 47t-48.5 23q-31 9 -51 26l-81 -30q-29 -12 -59 -23q-75 -26 -141 -65q-63 -45 -121 -102.5t-94 -75.5
l-20 -10q22 -26 22 -44q0 -6 -6 -18.5t-45 -24.5q-11 -4 -18.5 -20.5t-9.5 -32.5q-21 -191 -21 -288q0 -141 74 -263q25 -33 62 -58l35 -28q30 -26 51 -61q64 -23 131 -23q56 0 113 24q60 28 115 66l45 28q18 12 33 29q32 39 67 39l10 -1q5 0 9.5 4.5t22.5 32.5
q67 92 75 129l4 15q26 35 43 49.5t36 14.5q30 0 60 -29q4 -5 4 -15q0 -14 -5 -27q-30 -72 -77.5 -131t-101.5 -114q-11 -11 -22 -34l-9 -18q6 -1 11.5 -3t10.5 -2h50q-4 -12 -6 -25q-7 -36 -21 -47q-69 -55 -149 -94q-66 -29 -137 -49l-58 -19q-67 -24 -135 -33zM1150 1393
l-334 243l21 -2q22 -2 39 -5q3 -1 6 -5.5t6 -5.5q57 -5 98 -35.5t76 -69.5l32 -32q24 -24 47 -52l20 -24z" />
    <glyph glyph-name="c" unicode="c" horiz-adv-x="1381" 
d="M553 1323q-9 21 -9 36q0 28 46 41q42 15 48 37q-22 8 -42 8q-34 0 -76 -25.5t-44 -76.5zM480 123q7 0 27 6l20 5v15l-116 80l-16 -15l20 -26q23 -34 53 -62q4 -3 12 -3zM357 229l39 37l-101 114h-15l6 -22q11 -52 50 -106l14 -20q2 -2 4 -2t3 -1zM655 19h-4q-36 0 -74 16
q-19 8 -39 13l-11 3q-22 7 -44 7h-20q-88 0 -155 100q-9 15 -11 40l-5 28q-10 6 -25 10q-19 5 -33.5 14.5t-14.5 29.5v6q-9 14 -15 26q-42 74 -60 91q-39 38 -39 86q0 18 6 38q6 29 10 55q1 10 3 19l-6 23l-9 43q-30 161 -37 205l50 17l20 20l-59 31q7 4 16 6q-3 5 -5 11
l-17 33q-7 10 -8 19q0 3 4 7t8 6t7 2q8 0 22 -14q8 -8 23 -26l11 -12l52 174l-6 8q-5 -5 -11.5 -9.5t-11.5 -9.5t-5 -9v-10q0 -58 -64 -58l-21 1q16 33 30.5 65t29.5 62l15 -7q-2 29 -2 47q0 12 1.5 27t21.5 15q14 0 38 -5l-5 16l-10 31l149 225l22 -14l-110 -171l16 -11
q73 87 152 178q-24 11 -24 23q0 5 4 10.5t13.5 13.5t16.5 18q18 -23 31 -23q15 0 34 23q10 11 21 19q3 -8 5.5 -18.5t7.5 -28.5l29 64q6 -15 6 -19q76 25 90 25q7 0 16 -4t13.5 -11t4.5 -19q0 -11 -4.5 -17.5t-14.5 -9.5q-16 -4 -60 -4h-61q31 -34 60 -38q12 -2 23 -2
q17 0 33 4q9 2 20.5 3t25.5 3q48 7 96 7q6 0 36 -0.5t84 -28.5q-2 -9 -5 -17q-6 -13 -6 -25q0 -22 42 -22q20 -1 39.5 -24.5t31.5 -56.5q10 -28 10 -54v-8q-12 32 -35.5 47t-48.5 23q-31 9 -51 26l-81 -30q-29 -12 -59 -23q-75 -26 -141 -65q-63 -45 -121 -102.5t-94 -75.5
l-20 -10q22 -26 22 -44q0 -6 -6 -18.5t-45 -24.5q-11 -4 -18.5 -20.5t-9.5 -32.5q-21 -191 -21 -288q0 -141 74 -263q25 -33 62 -58l35 -28q30 -26 51 -61q64 -23 131 -23q56 0 113 24q60 28 115 66l45 28q18 12 33 29q32 39 67 39l10 -1q5 0 9.5 4.5t22.5 32.5
q67 92 75 129l4 15q26 35 43 49.5t36 14.5q30 0 60 -29q4 -5 4 -15q0 -14 -5 -27q-30 -72 -77.5 -131t-101.5 -114q-11 -11 -22 -34l-9 -18q6 -1 11.5 -3t10.5 -2h50q-4 -12 -6 -25q-7 -36 -21 -47q-69 -55 -149 -94q-66 -29 -137 -49l-58 -19q-67 -24 -135 -33zM1150 1393
l-334 243l21 -2q22 -2 39 -5q3 -1 6 -5.5t6 -5.5q57 -5 98 -35.5t76 -69.5l32 -32q24 -24 47 -52l20 -24z" />
    <glyph glyph-name="D" unicode="D" 
d="M331 -157l-8 24q-7 28 -20 53q-34 63 -112 63h-5q-47 0 -97 18q-24 7 -50 13q21 25 37 47q-37 10 -73 21q36 16 70 30q83 33 152 72q27 18 27 71q0 30 -19 124q-31 156 -34 389q0 77 4 155l5 108q0 64 -1 126.5t-1 123.5q0 39 3 77l1 16q0 39 -31 39q-17 0 -44 -12
q-23 -9 -51 -16l-29 -9q-7 35 -10 56l-105 -10q43 55 97 83.5t114 44.5q35 9 57 25.5t30 50.5q12 46 40 97l25 51l13 -138l16 -1l4 10q5 14 14 18t46 9q12 -56 49 -66q24 -6 51 -6q16 0 33 2l50 1q18 0 35 -21l-98 -5l-2 -9q27 -9 38 -9q47 1 94 4l105 4q4 0 8 -3
q15 -14 66 -46q137 -90 172 -101q22 -7 35 -19q69 -103 95 -136q33 -38 71 -72q24 -22 46 -44q41 -50 41 -156q0 -66 -20 -109q-78 -147 -78 -258q0 -19 2 -37q0 -39 -18 -79q-19 -57 -35 -113l-2 1q-18 3 -27 6q17 -34 17 -64q0 -50 -52 -119q-27 -37 -43 -75q-4 0 -22 4
q3 9 16 61q-22 -9 -42 -16q-40 -13 -68 -32q-35 -28 -67 -59q-48 -49 -106 -85q-43 -19 -101 -19h-6q-27 0 -53 -2l-44 -5q-114 -8 -128 -26.5t-14 -35.5l1 -6q2 -10 2 -19q0 -53 -66 -60zM466 177q43 14 91 33q19 8 41 16l-61 23q22 5 42 11q38 12 70 16q82 7 149.5 54.5
t92.5 111.5q82 251 173 463q24 56 24 108q0 12 -3.5 49t-36.5 99q-11 18 -30 33l-34 32q-32 32 -44 50q-9 17 -23 26q-38 19 -78 36q-67 27 -124 65q-68 45 -186 47l-31 3q-9 0 -20 -7q-20 -13 -25.5 -43t-17.5 -39q-46 -33 -46 -72q0 -28 19 -58q10 -16 10 -33
q0 -12 -17 -166q-10 -94 -19 -189q-9 -61 -9 -141q0 -60 17.5 -107.5t17.5 -88.5q0 -18 -1.5 -36.5t-1.5 -35.5q0 -9 0.5 -25.5t12.5 -36.5q15 -25 15 -46q0 -26 -25 -63l-8 -13l43 -20q-7 -24 -7 -49q1 -2 7 -4q9 -3 18 -3h5z" />
    <glyph glyph-name="d" unicode="d" 
d="M331 -157l-8 24q-7 28 -20 53q-34 63 -112 63h-5q-47 0 -97 18q-24 7 -50 13q21 25 37 47q-37 10 -73 21q36 16 70 30q83 33 152 72q27 18 27 71q0 30 -19 124q-31 156 -34 389q0 77 4 155l5 108q0 64 -1 126.5t-1 123.5q0 39 3 77l1 16q0 39 -31 39q-17 0 -44 -12
q-23 -9 -51 -16l-29 -9q-7 35 -10 56l-105 -10q43 55 97 83.5t114 44.5q35 9 57 25.5t30 50.5q12 46 40 97l25 51l13 -138l16 -1l4 10q5 14 14 18t46 9q12 -56 49 -66q24 -6 51 -6q16 0 33 2l50 1q18 0 35 -21l-98 -5l-2 -9q27 -9 38 -9q47 1 94 4l105 4q4 0 8 -3
q15 -14 66 -46q137 -90 172 -101q22 -7 35 -19q69 -103 95 -136q33 -38 71 -72q24 -22 46 -44q41 -50 41 -156q0 -66 -20 -109q-78 -147 -78 -258q0 -19 2 -37q0 -39 -18 -79q-19 -57 -35 -113l-2 1q-18 3 -27 6q17 -34 17 -64q0 -50 -52 -119q-27 -37 -43 -75q-4 0 -22 4
q3 9 16 61q-22 -9 -42 -16q-40 -13 -68 -32q-35 -28 -67 -59q-48 -49 -106 -85q-43 -19 -101 -19h-6q-27 0 -53 -2l-44 -5q-114 -8 -128 -26.5t-14 -35.5l1 -6q2 -10 2 -19q0 -53 -66 -60zM466 177q43 14 91 33q19 8 41 16l-61 23q22 5 42 11q38 12 70 16q82 7 149.5 54.5
t92.5 111.5q82 251 173 463q24 56 24 108q0 12 -3.5 49t-36.5 99q-11 18 -30 33l-34 32q-32 32 -44 50q-9 17 -23 26q-38 19 -78 36q-67 27 -124 65q-68 45 -186 47l-31 3q-9 0 -20 -7q-20 -13 -25.5 -43t-17.5 -39q-46 -33 -46 -72q0 -28 19 -58q10 -16 10 -33
q0 -12 -17 -166q-10 -94 -19 -189q-9 -61 -9 -141q0 -60 17.5 -107.5t17.5 -88.5q0 -18 -1.5 -36.5t-1.5 -35.5q0 -9 0.5 -25.5t12.5 -36.5q15 -25 15 -46q0 -26 -25 -63l-8 -13l43 -20q-7 -24 -7 -49q1 -2 7 -4q9 -3 18 -3h5z" />
    <glyph glyph-name="E" unicode="E" 
d="M377 -135l-24 12q-16 6 -26 18q-24 35 -66 35q-12 0 -24.5 -2.5t-21.5 -2.5q-28 0 -45 13t-25.5 30t-11.5 31q-39 162 -43 285v62q0 94 4 187q3 80 4 162q0 38 -7 75q-7 47 -7 72q0 29 8 56q40 124 47 292q7 59 34 116q29 62 29 130q1 40 9.5 79.5t40.5 76.5q15 18 24 45
l18 39l43 -54l76 -6q82 -11 162 -11q60 2 119 10q115 16 248 16q97 0 188 -26l64 -16q4 -1 4.5 -4.5t2.5 -11.5l5 -25l-106 -30q-311 -88 -329 -88q-20 0 -40 11l-13 -9q-42 -31 -73 -31h-5l-23 -1l15 54l-90 -26q-4 2 -13 2q-26 0 -60.5 -15.5t-43.5 -37.5
q-20 -68 -37 -137l-9 -35q0 -5 1.5 -9.5t1.5 -8.5q0 -17 -12 -44q-18 -41 -30 -122q-5 -36 -9 -118l725 96l24 -25l-68 -21l17 -20l115 48l10 -15l-18 -14q-16 -11 -29 -23q-41 -42 -94 -66q-169 -79 -380 -96q-95 -10 -190 -30l-3 -1q-6 -3 -24 -3q-13 0 -27 1.5t-27 1.5
q-42 0 -52 -36q-11 -49 -11 -100l-1 -22q-4 -140 -4 -287q0 -60 6 -112q4 -21 43 -35.5t94 -15.5l26 1q33 3 67 3q86 0 145 18l274 67l14 -25l-22 -36l1 -1q2 0 4 -2q40 13 74 13q72 0 125 -55q16 -14 47 -21q22 -5 41 -14q21 -14 36 -32l20 -21l-26 -12q-20 -13 -42 -16
q-197 -13 -390 -24q-300 -17 -399 -27q-39 -4 -50 -18q-8 -10 -8 -30q0 -10 3 -31z" />
    <glyph glyph-name="e" unicode="e" 
d="M377 -135l-24 12q-16 6 -26 18q-24 35 -66 35q-12 0 -24.5 -2.5t-21.5 -2.5q-28 0 -45 13t-25.5 30t-11.5 31q-39 162 -43 285v62q0 94 4 187q3 80 4 162q0 38 -7 75q-7 47 -7 72q0 29 8 56q40 124 47 292q7 59 34 116q29 62 29 130q1 40 9.5 79.5t40.5 76.5q15 18 24 45
l18 39l43 -54l76 -6q82 -11 162 -11q60 2 119 10q115 16 248 16q97 0 188 -26l64 -16q4 -1 4.5 -4.5t2.5 -11.5l5 -25l-106 -30q-311 -88 -329 -88q-20 0 -40 11l-13 -9q-42 -31 -73 -31h-5l-23 -1l15 54l-90 -26q-4 2 -13 2q-26 0 -60.5 -15.5t-43.5 -37.5
q-20 -68 -37 -137l-9 -35q0 -5 1.5 -9.5t1.5 -8.5q0 -17 -12 -44q-18 -41 -30 -122q-5 -36 -9 -118l725 96l24 -25l-68 -21l17 -20l115 48l10 -15l-18 -14q-16 -11 -29 -23q-41 -42 -94 -66q-169 -79 -380 -96q-95 -10 -190 -30l-3 -1q-6 -3 -24 -3q-13 0 -27 1.5t-27 1.5
q-42 0 -52 -36q-11 -49 -11 -100l-1 -22q-4 -140 -4 -287q0 -60 6 -112q4 -21 43 -35.5t94 -15.5l26 1q33 3 67 3q86 0 145 18l274 67l14 -25l-22 -36l1 -1q2 0 4 -2q40 13 74 13q72 0 125 -55q16 -14 47 -21q22 -5 41 -14q21 -14 36 -32l20 -21l-26 -12q-20 -13 -42 -16
q-197 -13 -390 -24q-300 -17 -399 -27q-39 -4 -50 -18q-8 -10 -8 -30q0 -10 3 -31z" />
    <glyph glyph-name="F" unicode="F" horiz-adv-x="1334" 
d="M265 -134l-25 123l-98 -16q0 37 -1 54v25q0 55 13 154q14 80 14 158l-1 44q-3 48 -3 95q0 82 9 160q7 80 15.5 125.5t8.5 62.5q0 18 -8 27.5t-36 9.5h-5q-27 1 -52 10l-31 8l-10 51q26 14 53 27q105 52 115 75t16 139q5 63 12 127q2 12 2 25v16q0 17 -8.5 22t-25.5 5
q-34 0 -113.5 -15t-96.5 -15q-19 0 -44 14l-36 14l75 80q102 105 115 123h9q9 0 13 -8l3 -3v-1q38 47 87 62.5t98 20.5q31 4 60 10q23 5 42 5q63 0 99 -54q1 -1 8 -1q17 0 44 6q35 8 63 8q55 0 91 -24q18 -13 36 -13q142 0 275 2q120 2 241 3q22 0 43 -9q13 -5 27 -8l16 -3
l-7 -51q-35 4 -59 11q-10 3 -24 5q-23 -57 -61 -77t-94 -20q-51 -3 -104 -14q-91 -20 -383 -20h-108q-30 0 -48.5 -11t-24.5 -54q-15 -98 -38 -192q-22 -90 -22 -105v-11h138q123 0 170 4q40 4 81 4q65 0 150 -19q74 -16 127 -18q59 0 93.5 -12t34.5 -78q0 -19 -4.5 -38.5
t-26.5 -28.5t-36 -9q-269 2 -506 9q-21 1 -40 24q-12 0 -24.5 -1t-25.5 -1q-20 0 -34 4t-27 4q-37 0 -60.5 -25.5t-26.5 -67.5l-5 -150q-3 -148 -19 -297q-1 -19 -1 -40q0 -20 1 -40t1 -38q0 -32 -5 -73t-43 -86q-1 -3 -1 -8t3 -24t3 -75l-1 -43v-50z" />
    <glyph glyph-name="f" unicode="f" horiz-adv-x="1334" 
d="M265 -134l-25 123l-98 -16q0 37 -1 54v25q0 55 13 154q14 80 14 158l-1 44q-3 48 -3 95q0 82 9 160q7 80 15.5 125.5t8.5 62.5q0 18 -8 27.5t-36 9.5h-5q-27 1 -52 10l-31 8l-10 51q26 14 53 27q105 52 115 75t16 139q5 63 12 127q2 12 2 25v16q0 17 -8.5 22t-25.5 5
q-34 0 -113.5 -15t-96.5 -15q-19 0 -44 14l-36 14l75 80q102 105 115 123h9q9 0 13 -8l3 -3v-1q38 47 87 62.5t98 20.5q31 4 60 10q23 5 42 5q63 0 99 -54q1 -1 8 -1q17 0 44 6q35 8 63 8q55 0 91 -24q18 -13 36 -13q142 0 275 2q120 2 241 3q22 0 43 -9q13 -5 27 -8l16 -3
l-7 -51q-35 4 -59 11q-10 3 -24 5q-23 -57 -61 -77t-94 -20q-51 -3 -104 -14q-91 -20 -383 -20h-108q-30 0 -48.5 -11t-24.5 -54q-15 -98 -38 -192q-22 -90 -22 -105v-11h138q123 0 170 4q40 4 81 4q65 0 150 -19q74 -16 127 -18q59 0 93.5 -12t34.5 -78q0 -19 -4.5 -38.5
t-26.5 -28.5t-36 -9q-269 2 -506 9q-21 1 -40 24q-12 0 -24.5 -1t-25.5 -1q-20 0 -34 4t-27 4q-37 0 -60.5 -25.5t-26.5 -67.5l-5 -150q-3 -148 -19 -297q-1 -19 -1 -40q0 -20 1 -40t1 -38q0 -32 -5 -73t-43 -86q-1 -3 -1 -8t3 -24t3 -75l-1 -43v-50z" />
    <glyph glyph-name="G" unicode="G" horiz-adv-x="1496" 
d="M651 -184l-20 2q-11 2 -62 5l39 67q-25 5 -46 5q-8 0 -15 -1q-37 -6 -70 -6q-95 0 -166 45t-128 140q-34 57 -54 114.5t-36 113.5q-10 35 -21 69l-1 -1q-15 44 -22 57l3 2l-35 107l16 13l-64 109l51 49l30 -17l76 -40l-3 -20q-8 -44 -14 -88l18 -13q0 43 13 81
q12 31 12 59q0 14 -3 27l-75 36q32 37 43 47q15 15 17 18q10 54 10 102v16q-40 27 -65 46l56 75q90 113 121 181q23 57 66 102q19 19 38 43q24 32 57 60.5t86 36.5q31 4 66 50q65 83 151 120t202 66q21 6 43 15q52 23 84 23q25 0 61 -23q5 -2 9 -5q16 9 36 9q51 0 114.5 -50
t116.5 -121.5t77 -140.5l27 -80q-101 69 -132 92q-65 49 -130 85q-50 27 -122 31q-21 0 -21 -4q0 -3 2 -10q5 -11 68 -104l-91 41q-55 24 -112 24q-62 0 -120.5 -24t-114.5 -55l-60 -30q-24 -13 -43 -46.5t-29.5 -67t-30.5 -58.5q-25 -33 -25 -53q0 -11 5 -24q3 -8 3 -15
q0 -10 -9.5 -22t-28.5 -26q-10 -9 -22 -19.5t-17 -19.5q-47 -99 -87 -232q-16 -52 -16 -115q0 -47 13 -99q10 -47 10 -59q0 -26 -19 -48l-29 -33l-25 54l-1 -41q0 -45 7.5 -97t48.5 -106q13 -18 13 -43q0 -15 -3.5 -26t-3.5 -17q0 -4 3 -9.5t27 -12.5q23 -9 40 -38
q2 -4 4 -6q52 -16 175 -47l1 -3q24 8 57 18.5t66 18.5q150 37 174 37q22 0 58 -24q4 -3 7 -4l5 2q89 45 122 85q14 25 15 71q5 73 76 288q10 22 32 28l-10 18q-168 -26 -276 -112q-31 -23 -62 -30t-60 -9q-41 -1 -73 -16l-30 -17l-25 77l41 16l-133 16q37 49 45 62
q13 25 35 39l117 66q328 199 452 199q60 0 122 -11l52 -7q11 0 22 -13q23 -32 23 -103q0 -11 -1 -20q-13 -89 -41 -172q-100 -298 -173 -385q-49 -59 -103 -110q-37 -36 -72 -74q-20 -22 -48.5 -33t-59.5 -19q-22 -5 -41 -11q-263 -93 -280 -93z" />
    <glyph glyph-name="g" unicode="g" horiz-adv-x="1496" 
d="M651 -184l-20 2q-11 2 -62 5l39 67q-25 5 -46 5q-8 0 -15 -1q-37 -6 -70 -6q-95 0 -166 45t-128 140q-34 57 -54 114.5t-36 113.5q-10 35 -21 69l-1 -1q-15 44 -22 57l3 2l-35 107l16 13l-64 109l51 49l30 -17l76 -40l-3 -20q-8 -44 -14 -88l18 -13q0 43 13 81
q12 31 12 59q0 14 -3 27l-75 36q32 37 43 47q15 15 17 18q10 54 10 102v16q-40 27 -65 46l56 75q90 113 121 181q23 57 66 102q19 19 38 43q24 32 57 60.5t86 36.5q31 4 66 50q65 83 151 120t202 66q21 6 43 15q52 23 84 23q25 0 61 -23q5 -2 9 -5q16 9 36 9q51 0 114.5 -50
t116.5 -121.5t77 -140.5l27 -80q-101 69 -132 92q-65 49 -130 85q-50 27 -122 31q-21 0 -21 -4q0 -3 2 -10q5 -11 68 -104l-91 41q-55 24 -112 24q-62 0 -120.5 -24t-114.5 -55l-60 -30q-24 -13 -43 -46.5t-29.5 -67t-30.5 -58.5q-25 -33 -25 -53q0 -11 5 -24q3 -8 3 -15
q0 -10 -9.5 -22t-28.5 -26q-10 -9 -22 -19.5t-17 -19.5q-47 -99 -87 -232q-16 -52 -16 -115q0 -47 13 -99q10 -47 10 -59q0 -26 -19 -48l-29 -33l-25 54l-1 -41q0 -45 7.5 -97t48.5 -106q13 -18 13 -43q0 -15 -3.5 -26t-3.5 -17q0 -4 3 -9.5t27 -12.5q23 -9 40 -38
q2 -4 4 -6q52 -16 175 -47l1 -3q24 8 57 18.5t66 18.5q150 37 174 37q22 0 58 -24q4 -3 7 -4l5 2q89 45 122 85q14 25 15 71q5 73 76 288q10 22 32 28l-10 18q-168 -26 -276 -112q-31 -23 -62 -30t-60 -9q-41 -1 -73 -16l-30 -17l-25 77l41 16l-133 16q37 49 45 62
q13 25 35 39l117 66q328 199 452 199q60 0 122 -11l52 -7q11 0 22 -13q23 -32 23 -103q0 -11 -1 -20q-13 -89 -41 -172q-100 -298 -173 -385q-49 -59 -103 -110q-37 -36 -72 -74q-20 -22 -48.5 -33t-59.5 -19q-22 -5 -41 -11q-263 -93 -280 -93z" />
    <glyph glyph-name="H" unicode="H" horiz-adv-x="1509" 
d="M264 -188l-25 27q-23 23 -32 39q-38 97 -38 122l1 12h1v50q0 42 11 89q16 73 19 179l-6 16q-11 23 -11 40q0 19 14 115q7 38 12 76q-21 18 -22 37q0 13 2 25l-118 -21l-1 50l-225 -38q182 112 210 132q63 43 125 73q24 11 30 27.5t6 43.5q0 77 -5 195q-3 78 -4 158
q0 19 12 32l-13 3l51 182l5 148l75 7l11 -11l44 79l78 -20q-3 -42 -8 -84q-11 -96 -11 -333v-70q0 -157 -2 -219q-2 -37 -2 -73v-1q94 47 194 66.5t200.5 29.5t200.5 30q21 4 21 23l-1 9q-16 186 -16 327q0 173 39 286q11 34 35 119l141 -154l-8 -19q-26 -51 -26 -97
q0 -25 8 -48l44 35l83 -478l66 -13l-1 -55l125 -45l-87 -38h13l25 -67l-39 -9q-42 -11 -55 -13q-38 -6 -53.5 -11t-15.5 -11q0 -19 12 -63q2 -8 3 -20q0 -12 -7 -27l-7 -15q3 -9 3 -18q0 -7 -3 -17t-11.5 -20t-14 -16t-9 -14t-3.5 -14q5 -152 12 -303q3 -41 10 -205
l-225 265l24 16l1 5q-4 42 -10 85q-9 57 -14 117q0 33 8 64q5 19 6 37q0 4 -4.5 13.5t-8.5 20.5q-1 6 -4 15q-10 22 -19 22q-13 0 -34 -12q-22 -9 -43 -9q-14 0 -28 2q-30 2 -83 2q-68 -18 -88 -18q-23 0 -39 9l-67 19q44 41 48.5 47.5t12.5 14.5l-20 -3q-30 -2 -44.5 -8.5
t-22.5 -23.5l-7 -18q-51 -7 -74 -7q-22 0 -42 1t-38 1q-37 0 -59.5 -9t-35.5 -37q10 -62 10 -80q0 -31 -13 -111q-17 -90 -17 -200l2 -124q0 -10 -2 -26q-8 -41 -67 -57q-15 -4 -15 -11t7 -20q13 -26 16.5 -54t3.5 -77q0 -28 -38 -46l-4 -3z" />
    <glyph glyph-name="h" unicode="h" horiz-adv-x="1509" 
d="M264 -188l-25 27q-23 23 -32 39q-38 97 -38 122l1 12h1v50q0 42 11 89q16 73 19 179l-6 16q-11 23 -11 40q0 19 14 115q7 38 12 76q-21 18 -22 37q0 13 2 25l-118 -21l-1 50l-225 -38q182 112 210 132q63 43 125 73q24 11 30 27.5t6 43.5q0 77 -5 195q-3 78 -4 158
q0 19 12 32l-13 3l51 182l5 148l75 7l11 -11l44 79l78 -20q-3 -42 -8 -84q-11 -96 -11 -333v-70q0 -157 -2 -219q-2 -37 -2 -73v-1q94 47 194 66.5t200.5 29.5t200.5 30q21 4 21 23l-1 9q-16 186 -16 327q0 173 39 286q11 34 35 119l141 -154l-8 -19q-26 -51 -26 -97
q0 -25 8 -48l44 35l83 -478l66 -13l-1 -55l125 -45l-87 -38h13l25 -67l-39 -9q-42 -11 -55 -13q-38 -6 -53.5 -11t-15.5 -11q0 -19 12 -63q2 -8 3 -20q0 -12 -7 -27l-7 -15q3 -9 3 -18q0 -7 -3 -17t-11.5 -20t-14 -16t-9 -14t-3.5 -14q5 -152 12 -303q3 -41 10 -205
l-225 265l24 16l1 5q-4 42 -10 85q-9 57 -14 117q0 33 8 64q5 19 6 37q0 4 -4.5 13.5t-8.5 20.5q-1 6 -4 15q-10 22 -19 22q-13 0 -34 -12q-22 -9 -43 -9q-14 0 -28 2q-30 2 -83 2q-68 -18 -88 -18q-23 0 -39 9l-67 19q44 41 48.5 47.5t12.5 14.5l-20 -3q-30 -2 -44.5 -8.5
t-22.5 -23.5l-7 -18q-51 -7 -74 -7q-22 0 -42 1t-38 1q-37 0 -59.5 -9t-35.5 -37q10 -62 10 -80q0 -31 -13 -111q-17 -90 -17 -200l2 -124q0 -10 -2 -26q-8 -41 -67 -57q-15 -4 -15 -11t7 -20q13 -26 16.5 -54t3.5 -77q0 -28 -38 -46l-4 -3z" />
    <glyph glyph-name="I" unicode="I" horiz-adv-x="423" 
d="M270 1772q7 0 14 -2q3 -18 17 -78l5 -18q7 -19 7 -45q0 -69 -9 -136q-10 -78 -10 -135q0 -55 14 -111q6 -34 6 -69q0 -38 -7 -79q-7 -45 -8 -90q0 -95 3.5 -189t3.5 -186q0 -82 -6 -164q-3 -40 -5 -81l5 -11l24 9q3 -79 3 -157q0 -196 -26 -342l-8 1h-10l-17 125
q-73 5 -75 87l1 18q0 80 -54 99l1 75q0 136 -9 269q-9 124 -9 248q0 70 3 140q4 89 4 180q0 164 -13 332q-7 117 -11 238q28 -18 48 -18q29 0 59 45t59 45z" />
    <glyph glyph-name="i" unicode="i" horiz-adv-x="423" 
d="M270 -112q-29 0 -59 45t-59 45q-20 0 -48 -18q4 121 11 238q13 168 13 333q0 90 -4 179q-3 70 -3 141q0 123 9 247q9 134 9 270l-1 74q54 19 54 99l-1 18q2 82 75 87l17 125h10l8 1q26 -146 26 -342q0 -78 -3 -157l-24 9l-5 -11q2 -41 5 -81q6 -82 6 -164
q0 -92 -3.5 -186t-3.5 -189q1 -45 8 -90q7 -40 7 -79q0 -35 -6 -69q-14 -56 -14 -110q0 -58 10 -136q9 -67 9 -136q0 -26 -7 -45l-5 -18q-14 -60 -17 -78q-7 -2 -14 -2z" />
    <glyph glyph-name="J" unicode="J" horiz-adv-x="1014" 
d="M500 -97l-287 62l-1 22q-37 4 -67.5 22.5t-39.5 68.5l-3 14l51 17l-20 40q-50 8 -62 12q-17 4 -26 16q-16 25 -16 47q0 37 43 67q17 13 27 69l5 28h-86l51 109l12 -2q113 -8 116 -99v-4q0 -42 19.5 -73t80.5 -46q70 -23 128 -67q19 -13 38 -25t35 -12q29 0 93 133
q40 80 67 137v1q19 41 25 49q9 17 12 30q7 68 11 140l5 67l6 2q0 11 -1 21l1 53q10 235 19 285q6 33 6 64q-2 28 -10 59q-9 38 -9 57q0 20 8 37l14 38q-26 21 -26 44q0 26 39 51h1l2 2q-32 18 -43 53l-1 12q0 28 27 59q9 13 11 36q2 32 24 74l33 67l26 -93q8 -44 25 -70
q33 -47 41.5 -95t9.5 -96l1 -20q7 -147 9 -254q0 -41 -2 -82q-2 -32 -2 -64l1 -42q0 -9 13 -27q18 -26 18 -49t-5.5 -42.5t-5.5 -34.5q0 -26 25 -66q11 -18 26 -49h-59l-30 -110q26 -22 26 -45q0 -18 -29 -56h-1l38 -23l-53 -97l-25 24l6 -52l-23 -1l-41 -76l-11 -20
q-16 -26 -21 -50q-12 -49 -46 -89q-39 -53 -39 -84l1 -21q0 -15 -28 -32q-11 -6 -21 -14q-50 25 -50 58q0 16 20 43q-46 -8 -68.5 -28.5t-37.5 -79.5zM365 137q-5 4 -9 9q-27 27 -50 30l11 -12q25 -27 45 -27h3z" />
    <glyph glyph-name="j" unicode="j" horiz-adv-x="1014" 
d="M500 -97l-287 62l-1 22q-37 4 -67.5 22.5t-39.5 68.5l-3 14l51 17l-20 40q-50 8 -62 12q-17 4 -26 16q-16 25 -16 47q0 37 43 67q17 13 27 69l5 28h-86l51 109l12 -2q113 -8 116 -99v-4q0 -42 19.5 -73t80.5 -46q70 -23 128 -67q19 -13 38 -25t35 -12q29 0 93 133
q40 80 67 137v1q19 41 25 49q9 17 12 30q7 68 11 140l5 67l6 2q0 11 -1 21l1 53q10 235 19 285q6 33 6 64q-2 28 -10 59q-9 38 -9 57q0 20 8 37l14 38q-26 21 -26 44q0 26 39 51h1l2 2q-32 18 -43 53l-1 12q0 28 27 59q9 13 11 36q2 32 24 74l33 67l26 -93q8 -44 25 -70
q33 -47 41.5 -95t9.5 -96l1 -20q7 -147 9 -254q0 -41 -2 -82q-2 -32 -2 -64l1 -42q0 -9 13 -27q18 -26 18 -49t-5.5 -42.5t-5.5 -34.5q0 -26 25 -66q11 -18 26 -49h-59l-30 -110q26 -22 26 -45q0 -18 -29 -56h-1l38 -23l-53 -97l-25 24l6 -52l-23 -1l-41 -76l-11 -20
q-16 -26 -21 -50q-12 -49 -46 -89q-39 -53 -39 -84l1 -21q0 -15 -28 -32q-11 -6 -21 -14q-50 25 -50 58q0 16 20 43q-46 -8 -68.5 -28.5t-37.5 -79.5zM365 137q-5 4 -9 9q-27 27 -50 30l11 -12q25 -27 45 -27h3z" />
    <glyph glyph-name="K" unicode="K" horiz-adv-x="1329" 
d="M1138 -83q-13 7 -28 13q-34 12 -55 32q-102 113 -200 228l-94 109q-14 17 -35 28q-26 13 -42.5 30t-16.5 48q-1 17 -17 34q-20 20 -45 40q-72 63 -150 126l-63 52q18 0 54 2l-95 49q-35 -29 -42.5 -61.5t-7.5 -65.5v-8q0 -37 -11 -75q-8 -28 -18 -98q-23 -121 -23 -232
q0 -22 9 -204l-55 -45l-100 47q-9 251 -16 420q-23 -4 -53 -8l-58 -9l21 56q48 119 62 190q7 45 25 87q9 21 9 41q0 28 -14 68q-14 36 -14 65q0 19 9 38q9 25 9 50q0 13 -2 25q-2 18 -2 33t8 27q35 52 38 107l19 257q15 191 24 324q1 27 3 53q111 -218 111 -400
q0 -29 -2 -58l75 227q11 -3 22 -4l-7 -35q-8 -39 -18 -78l-8 -29q-19 -61 -19 -103q0 -25 7 -50l1 -4q0 -4 -3 -10t-8.5 -14.5t-10.5 -17.5q40 -13 46 -36q3 -13 3 -28q0 -12 -2 -25q-3 -19 -3 -37q0 -19 10 -36q7 6 14 10q13 7 20 16l65 84q126 165 225 261q92 89 139 155
q32 47 74 83.5t109 50.5q16 4 33 14q20 13 50 20q-17 -21 -37 -48l-26 -33l44 -35q-31 -8 -101 -22q48 -44 64 -60l-32 -12q-29 -12 -56 -19q-62 -13 -62 -48q0 -12 7 -28l44 -6l-6 -16q-9 -40 -63 -40l-17 1q9 6 17 13l6 5v1q-6 5 -11 11l-92 -68h23q18 -1 30 -1t21 -1
l14 -14q-74 -9 -114.5 -45.5t-68.5 -81.5q-29 -41 -65 -80q-43 -45 -77.5 -95t-35.5 -110q18 -5 25 -8q2 8 5.5 18t8.5 29l121 -166q-46 -5 -57 -7q71 -19 116.5 -61.5t81.5 -93.5q22 -29 46 -57l-55 -21q-2 -9 -2 -18l125 -21q-1 -4 -1 -17l-54 -23q32 -26 66 -50
q38 -26 69.5 -53t46.5 -59.5t39 -55t50 -41.5q33 -23 60 -51q52 -62 96 -127q19 -28 39 -55q-16 -6 -33 -6q-61 0 -125 79q-18 20 -42 35q-11 7 -21 15q-8 -8 -16 -14q54 -60 78 -84l-2 -2q-36 -20 -36 -38q0 -2 1.5 -9t28.5 -24z" />
    <glyph glyph-name="k" unicode="k" horiz-adv-x="1329" 
d="M1138 -83q-13 7 -28 13q-34 12 -55 32q-102 113 -200 228l-94 109q-14 17 -35 28q-26 13 -42.5 30t-16.5 48q-1 17 -17 34q-20 20 -45 40q-72 63 -150 126l-63 52q18 0 54 2l-95 49q-35 -29 -42.5 -61.5t-7.5 -65.5v-8q0 -37 -11 -75q-8 -28 -18 -98q-23 -121 -23 -232
q0 -22 9 -204l-55 -45l-100 47q-9 251 -16 420q-23 -4 -53 -8l-58 -9l21 56q48 119 62 190q7 45 25 87q9 21 9 41q0 28 -14 68q-14 36 -14 65q0 19 9 38q9 25 9 50q0 13 -2 25q-2 18 -2 33t8 27q35 52 38 107l19 257q15 191 24 324q1 27 3 53q111 -218 111 -400
q0 -29 -2 -58l75 227q11 -3 22 -4l-7 -35q-8 -39 -18 -78l-8 -29q-19 -61 -19 -103q0 -25 7 -50l1 -4q0 -4 -3 -10t-8.5 -14.5t-10.5 -17.5q40 -13 46 -36q3 -13 3 -28q0 -12 -2 -25q-3 -19 -3 -37q0 -19 10 -36q7 6 14 10q13 7 20 16l65 84q126 165 225 261q92 89 139 155
q32 47 74 83.5t109 50.5q16 4 33 14q20 13 50 20q-17 -21 -37 -48l-26 -33l44 -35q-31 -8 -101 -22q48 -44 64 -60l-32 -12q-29 -12 -56 -19q-62 -13 -62 -48q0 -12 7 -28l44 -6l-6 -16q-9 -40 -63 -40l-17 1q9 6 17 13l6 5v1q-6 5 -11 11l-92 -68h23q18 -1 30 -1t21 -1
l14 -14q-74 -9 -114.5 -45.5t-68.5 -81.5q-29 -41 -65 -80q-43 -45 -77.5 -95t-35.5 -110q18 -5 25 -8q2 8 5.5 18t8.5 29l121 -166q-46 -5 -57 -7q71 -19 116.5 -61.5t81.5 -93.5q22 -29 46 -57l-55 -21q-2 -9 -2 -18l125 -21q-1 -4 -1 -17l-54 -23q32 -26 66 -50
q38 -26 69.5 -53t46.5 -59.5t39 -55t50 -41.5q33 -23 60 -51q52 -62 96 -127q19 -28 39 -55q-16 -6 -33 -6q-61 0 -125 79q-18 20 -42 35q-11 7 -21 15q-8 -8 -16 -14q54 -60 78 -84l-2 -2q-36 -20 -36 -38q0 -2 1.5 -9t28.5 -24z" />
    <glyph glyph-name="L" unicode="L" horiz-adv-x="1307" 
d="M283 1445q56 9 56 51q0 30 -29 77zM171 -121l-1 12l1 6q0 10 -3 11q-63 22 -78.5 68t-15.5 100q-6 62 -7 152q-3 20 -3 150v46q1 5 6 10l24 20q1 1 16.5 19t15.5 21q-16 21 -16 42t8 45t8 47v9q-3 26 -3 53q0 42 7 85l3 22q8 63 17.5 125t17.5 124q25 229 64 362
q10 45 10 95q0 27 -3 56q-4 36 -4 73l39 -61l62 148q1 -1 2.5 -1t3.5 -1l-5 -21q-8 -25 -9 -50q0 -6 4.5 -12t10.5 -12t11 -12l7 10q11 11 13.5 22t3.5 22q3 41 21 82v-216l3 4q13 16 20.5 25.5t13.5 15.5q-55 -241 -55 -292v-23q0 -45 -21 -147q-18 -93 -21 -122
q-16 -160 -25 -279q-9 -140 -27 -230q-15 -81 -15 -107t4 -55.5t4 -61.5q0 -18 -1 -38t-1 -41q0 -12 5 -52q24 7 125 29q90 18 240 53q131 33 182 42q53 9 78 9q11 0 38.5 -2t66.5 -44q8 -8 26 -8t39.5 3t40.5 3v-57h138l42 -45q-16 -3 -29 -8q-19 -7 -33 -7q-8 0 -15.5 2.5
t-13.5 2.5q-15 0 -26.5 -14t-23.5 -16q-69 -9 -137 -21q-121 -20 -201 -30.5t-395 -60.5l-63 -10q-25 -3 -44 -13t-24 -41q0 -3 -10 -8.5t-14 -5.5q-20 23 -39 23q-3 0 -15 -2t-45 -22z" />
    <glyph glyph-name="l" unicode="l" horiz-adv-x="1307" 
d="M283 1445q56 9 56 51q0 30 -29 77zM171 -121l-1 12l1 6q0 10 -3 11q-63 22 -78.5 68t-15.5 100q-6 62 -7 152q-3 20 -3 150v46q1 5 6 10l24 20q1 1 16.5 19t15.5 21q-16 21 -16 42t8 45t8 47v9q-3 26 -3 53q0 42 7 85l3 22q8 63 17.5 125t17.5 124q25 229 64 362
q10 45 10 95q0 27 -3 56q-4 36 -4 73l39 -61l62 148q1 -1 2.5 -1t3.5 -1l-5 -21q-8 -25 -9 -50q0 -6 4.5 -12t10.5 -12t11 -12l7 10q11 11 13.5 22t3.5 22q3 41 21 82v-216l3 4q13 16 20.5 25.5t13.5 15.5q-55 -241 -55 -292v-23q0 -45 -21 -147q-18 -93 -21 -122
q-16 -160 -25 -279q-9 -140 -27 -230q-15 -81 -15 -107t4 -55.5t4 -61.5q0 -18 -1 -38t-1 -41q0 -12 5 -52q24 7 125 29q90 18 240 53q131 33 182 42q53 9 78 9q11 0 38.5 -2t66.5 -44q8 -8 26 -8t39.5 3t40.5 3v-57h138l42 -45q-16 -3 -29 -8q-19 -7 -33 -7q-8 0 -15.5 2.5
t-13.5 2.5q-15 0 -26.5 -14t-23.5 -16q-69 -9 -137 -21q-121 -20 -201 -30.5t-395 -60.5l-63 -10q-25 -3 -44 -13t-24 -41q0 -3 -10 -8.5t-14 -5.5q-20 23 -39 23q-3 0 -15 -2t-45 -22z" />
    <glyph glyph-name="M" unicode="M" horiz-adv-x="1563" 
d="M94 -180q-11 30 -18 42q-15 24 -16 52q6 86 15 170q23 211 23 427l-1 68q0 132 -1 140.5t-1 14.5q0 25 8 37.5t8 22.5q0 14 -15 37q-19 27 -19 50l1 12q13 63 19 126q9 77 21 133.5t14 111.5q-2 28 -22 59q-16 27 -22 45h-1q-13 29 -13 39q0 9 7 15q30 24 38.5 53t9.5 63
q0 52 28 104l18 30l2 -35q3 -64 75 -64q19 0 55 3q1 -12 1 -48q0 -50 6 -89q10 -60 48 -120q56 -73 121 -139l42 -45q32 -35 66 -69q78 -74 139 -159q51 -80 138 -107l58 174l20 1q107 256 109.5 293t23.5 67q40 50 58 106q9 17 25 29q11 9 18 18q3 7 5 17q1 16 17 38
q35 53 82 99q22 17 58 22l22 6l31 68l45 -3q0 -21 1.5 -31.5t1.5 -20.5q0 -18 -7 -36q-5 -10 -5 -19q0 -15 26 -39l15 -16l36 14l6 -45q6 -24 6 -48q0 -29 -24 -155q-11 -61 -21 -123q0 -21 3 -36.5t3 -29.5l-1 -18q-13 -83 -13 -166q0 -86 13 -225q7 -70 13 -183
q26 -508 35.5 -536.5t9.5 -61.5q0 -14 -1 -26.5t-1 -24.5l-1 -9l-47 -9q-35 61 -69 118l-23 -116q-20 0 -40 -2l-16 146l-5 1q0 18 1 25.5t1 12.5q0 20 -14 42q-18 27 -18 46q0 20 21 44l1 4q0 7 -8 31q-5 13 -8 25q-5 26 -12 52q-16 60 -22 124q1 44 16 83l7 26l-41 85
l39 4q-3 21 -7 41q-10 34 -10 67q0 23 5 45q12 38 12 74q0 3 -1 24t-7 61t-6 81q0 19 1 37q8 79 13 188q0 3 -9 12l-4 5l-16 -13q-61 -45 -110 -168q-25 -73 -45 -147q-29 -103 -49 -159q-42 -116 -48 -198q-3 -42 -13 -85q-7 -25 -25 -45t-67 -61q10 46 10 59q0 61 -98 105
q-4 2 -13 2q-15 0 -39 -5q-19 -5 -43 -7l-5 -1q-86 86 -181 226q-124 179 -232 279q-22 -60 -22 -117q0 -55 20 -107q23 -61 23 -127q0 -63 -15 -156q-4 -25 -7 -51l51 10l-65 -154l-3 1l13 -114l-16 -2l-16 -36q-21 -39 -27 -73q-7 -52 -7 -105l-1 -55q0 -32 -9 -52.5
t-42 -20.5q-15 0 -43 5h-1q-5 -5 -29 -49z" />
    <glyph glyph-name="m" unicode="m" horiz-adv-x="1563" 
d="M94 -180q-11 30 -18 42q-15 24 -16 52q6 86 15 170q23 211 23 427l-1 68q0 132 -1 140.5t-1 14.5q0 25 8 37.5t8 22.5q0 14 -15 37q-19 27 -19 50l1 12q13 63 19 126q9 77 21 133.5t14 111.5q-2 28 -22 59q-16 27 -22 45h-1q-13 29 -13 39q0 9 7 15q30 24 38.5 53t9.5 63
q0 52 28 104l18 30l2 -35q3 -64 75 -64q19 0 55 3q1 -12 1 -48q0 -50 6 -89q10 -60 48 -120q56 -73 121 -139l42 -45q32 -35 66 -69q78 -74 139 -159q51 -80 138 -107l58 174l20 1q107 256 109.5 293t23.5 67q40 50 58 106q9 17 25 29q11 9 18 18q3 7 5 17q1 16 17 38
q35 53 82 99q22 17 58 22l22 6l31 68l45 -3q0 -21 1.5 -31.5t1.5 -20.5q0 -18 -7 -36q-5 -10 -5 -19q0 -15 26 -39l15 -16l36 14l6 -45q6 -24 6 -48q0 -29 -24 -155q-11 -61 -21 -123q0 -21 3 -36.5t3 -29.5l-1 -18q-13 -83 -13 -166q0 -86 13 -225q7 -70 13 -183
q26 -508 35.5 -536.5t9.5 -61.5q0 -14 -1 -26.5t-1 -24.5l-1 -9l-47 -9q-35 61 -69 118l-23 -116q-20 0 -40 -2l-16 146l-5 1q0 18 1 25.5t1 12.5q0 20 -14 42q-18 27 -18 46q0 20 21 44l1 4q0 7 -8 31q-5 13 -8 25q-5 26 -12 52q-16 60 -22 124q1 44 16 83l7 26l-41 85
l39 4q-3 21 -7 41q-10 34 -10 67q0 23 5 45q12 38 12 74q0 3 -1 24t-7 61t-6 81q0 19 1 37q8 79 13 188q0 3 -9 12l-4 5l-16 -13q-61 -45 -110 -168q-25 -73 -45 -147q-29 -103 -49 -159q-42 -116 -48 -198q-3 -42 -13 -85q-7 -25 -25 -45t-67 -61q10 46 10 59q0 61 -98 105
q-4 2 -13 2q-15 0 -39 -5q-19 -5 -43 -7l-5 -1q-86 86 -181 226q-124 179 -232 279q-22 -60 -22 -117q0 -55 20 -107q23 -61 23 -127q0 -63 -15 -156q-4 -25 -7 -51l51 10l-65 -154l-3 1l13 -114l-16 -2l-16 -36q-21 -39 -27 -73q-7 -52 -7 -105l-1 -55q0 -32 -9 -52.5
t-42 -20.5q-15 0 -43 5h-1q-5 -5 -29 -49z" />
    <glyph glyph-name="N" unicode="N" horiz-adv-x="1358" 
d="M118 -155l-10 14q-13 14 -18 29q-41 227 -41 379q0 104 21 210q35 196 47 394q5 35 16 255q7 143 19 284l1 13q0 7 -1 15.5t-1 18.5t2 24.5t19.5 27t58.5 12.5q13 -1 33 -10l29 -12v1l7 10q11 15 19 46l4 13q34 -20 65 -43q36 -24 51 -38l13 -16q48 -51 87 -107
q28 -46 52 -93q26 -51 57 -99q22 -31 51 -58q48 -46 53 -67q2 -11 2 -20q18 -17 34 -30q31 -25 50 -49q33 -45 63 -92q28 -42 58 -84q12 -14 33 -23l17 -10l27 157q27 175 64 346q18 81 28.5 163t27.5 162t55 157q4 0 9.5 -1t11.5 -1q0 -15 -4 -57l68 -2l-8 -16
q-18 -28 -18 -40q0 -13 7 -19q44 -29 44 -65q0 -20 -13 -42q-30 -47 -38 -96q-20 -201 -37 -402l-13 -160q-17 -183 -22 -251q0 -11 5.5 -23.5t5.5 -24.5v-3q0 -20 11.5 -41.5t11.5 -36.5q0 -30 -49 -50q-4 -2 -4 -11q0 -4 2 -15.5t7.5 -34.5t9.5 -42l-51 -3q-3 -20 -3 -41
q0 -36 9 -74t9 -77q0 -20 -4.5 -59.5t-74.5 -100.5l-86 255q-8 32 -23.5 61t-50.5 54t-60 92l-14 34q-13 29 -24 60q-29 90 -163 270q-55 77 -83 119q-47 69 -97 137q-13 17 -116 143q-7 0 -25 -6l-5 -63q-5 -45 -5 -89q0 -91 31 -191l16 -61l-55 26l26 -433l-46 116
l-12 -32q-10 -24 -10 -34q0 -5 2 -10q10 -15 10 -28q0 -19 -20 -42q-33 -40 -36 -105q-9 -73 -82 -322q-7 -15 -24 -29q-7 -6 -13 -13z" />
    <glyph glyph-name="n" unicode="n" horiz-adv-x="1358" 
d="M118 -155l-10 14q-13 14 -18 29q-41 227 -41 379q0 104 21 210q35 196 47 394q5 35 16 255q7 143 19 284l1 13q0 7 -1 15.5t-1 18.5t2 24.5t19.5 27t58.5 12.5q13 -1 33 -10l29 -12v1l7 10q11 15 19 46l4 13q34 -20 65 -43q36 -24 51 -38l13 -16q48 -51 87 -107
q28 -46 52 -93q26 -51 57 -99q22 -31 51 -58q48 -46 53 -67q2 -11 2 -20q18 -17 34 -30q31 -25 50 -49q33 -45 63 -92q28 -42 58 -84q12 -14 33 -23l17 -10l27 157q27 175 64 346q18 81 28.5 163t27.5 162t55 157q4 0 9.5 -1t11.5 -1q0 -15 -4 -57l68 -2l-8 -16
q-18 -28 -18 -40q0 -13 7 -19q44 -29 44 -65q0 -20 -13 -42q-30 -47 -38 -96q-20 -201 -37 -402l-13 -160q-17 -183 -22 -251q0 -11 5.5 -23.5t5.5 -24.5v-3q0 -20 11.5 -41.5t11.5 -36.5q0 -30 -49 -50q-4 -2 -4 -11q0 -4 2 -15.5t7.5 -34.5t9.5 -42l-51 -3q-3 -20 -3 -41
q0 -36 9 -74t9 -77q0 -20 -4.5 -59.5t-74.5 -100.5l-86 255q-8 32 -23.5 61t-50.5 54t-60 92l-14 34q-13 29 -24 60q-29 90 -163 270q-55 77 -83 119q-47 69 -97 137q-13 17 -116 143q-7 0 -25 -6l-5 -63q-5 -45 -5 -89q0 -91 31 -191l16 -61l-55 26l26 -433l-46 116
l-12 -32q-10 -24 -10 -34q0 -5 2 -10q10 -15 10 -28q0 -19 -20 -42q-33 -40 -36 -105q-9 -73 -82 -322q-7 -15 -24 -29q-7 -6 -13 -13z" />
    <glyph glyph-name="O" unicode="O" horiz-adv-x="1737" 
d="M900 -167q-17 0 -33 1q-6 1 -12 5t-11 8t-8 6q-52 -7 -102 -18l13 71l-12 -8q-50 -38 -77 -38q-9 0 -22.5 5.5t-22.5 49.5q-27 -19 -56 -19q-34 0 -44 48l-3 -37q-12 3 -48 59q-57 92 -112 123q-43 23 -71 65t-52 89q-27 55 -60 101q-11 16 -20 36q-22 53 -52 53
q-10 0 -14 29l-10 50q-19 76 -22 148q5 108 36 219q79 352 176 516q50 82 131 122q92 40 100 109l7 33l17 -29l91 -13q0 24 2 86l21 10q-2 -12 -2 -21q0 -42 49 -42q17 -1 32 -6l9 21l-45 30q35 0 60.5 9.5t51.5 9.5q16 0 31 -3q41 -10 84 -17q59 -8 116 -26q28 -10 58 -15
q42 -6 81 -24q67 -38 267 -144q-9 -23 -9 -45q0 -50 48 -106q110 -138 145 -331q15 -87 35 -267l32 65q2 -13 2 -26q0 -25 -18 -67q-14 -30 -19 -64q-8 -68 -36 -129q-23 -57 -45 -128q-41 -128 -91 -253l-17 9l39 115l31 95q-6 3 -10 8q-24 -42 -60 -94q-16 -26 -23 -33
q-18 -17 -18 -36q0 -15 15 -39q8 -11 8 -21q0 -19 -22.5 -41.5t-33.5 -28.5q-6 -4 -16.5 -4t-11.5 -3q-12 -37 -52 -67q-22 -17 -39 -39q-29 -43 -105 -71q-125 -51 -251 -51zM89 599l64 219l-13 19q-3 -45 -19 -45q-9 0 -24 19l-19 -210q5 -2 11 -2zM1017 909l138 408
l-10 13l-245 -278q4 -34 24 -56.5t45 -40.5q28 -20 48 -46zM1313 542l70 8l-21 28q-21 36 -250 129l-4 1q-50 0 -62 -153l33 5q27 7 51 7q94 -7 168 -24zM596 979l108 68q-51 133 -169 165zM376 598q39 10 96.5 23t96.5 23l-32 105q-41 -17 -80.5 -58t-80.5 -93zM897 573
q19 0 41 19q53 46 53 126q0 17 -4 29q-48 129 -121 191q-25 24 -43 24q-14 0 -32 -17q-53 -51 -156 -136q31 -90 57 -182l36 -12q85 -31 169 -42zM778 1120l135 82q7 6 14 15q14 22 33.5 35.5t35.5 35.5q12 15 25 27.5t32 15.5q9 2 18 14t17.5 27t16.5 27l-154 34
q-83 -9 -127 -9q-27 0 -79 6q-47 6 -93 6q-39 0 -77 -10q-36 -12 -67 -45v-3q0 -13 10 -36.5t108 -86.5q10 -6 20 -13q5 -4 11 -7q10 -4 19 -12zM260 692q50 50 72 77q34 45 62 53q61 14 126 89q12 13 12 29q0 5 -32 114q-12 38 -23 78q-22 65 -26 128q0 35 -16 59t-44 28
l-4 -18q-3 -19 -10 -29q-98 -118 -118 -252q-19 -151 -19 -288q1 -22 11 -46q5 -11 9 -22zM282 282l28 15l-85 173l-16 -9q57 -133 73 -179zM675 47l64 17l-10 45q-27 101 -44.5 204t-94.5 149q-79 34 -164 47q-14 2 -28 5t-34.5 5.5t-40.5 3.5q-20 0 -31 -2.5t-11 -7.5v-2
q48 -99 105 -190q39 -61 75 -124q-4 -6 -8 -11q108 -77 222 -139zM817 161q41 66 52 165q2 24 2 45q0 68 -25 114q-48 -7 -71 -7q-32 0 -32 -45q0 -44 45 -173q21 -62 29 -99zM910 -54q22 0 47.5 11.5t42.5 11.5q15 0 29 -10q11 12 19 31q13 30 24 30q8 0 19 -13
q81 76 173 136l-4 5q32 40 74.5 100.5t74.5 99.5h-15q-41 0 -87 18q-53 18 -83 18q-17 0 -39 -7q-3 0 -8.5 3t-10.5 4q-30 3 -61 18q-34 18 -68 19q-2 0 -4 -3t-10 -11q-25 -23 -34 -23q-8 2 -14 2q-11 0 -18 -10q-11 -15 -22 -76q-17 -88 -29 -108q-42 -58 -42 -133
q0 -31 16 -31q15 0 33 9t26 9q3 0 7 -3.5t11 -8.5q-44 -28 -91 -49q18 -39 44 -39zM1432 679q16 0 33 16q12 12 12 60q0 32 -7 64q-57 228 -93 316l-12 31q36 -27 57 -70t38 -92q14 -41 31 -79q-8 258 -174 305l18 51q-7 10 -11 15l-34 -38q-2 14 -2 30l2 36q0 18 -5 37.5
t-37 24.5l-45 -223l-35 31l-7 -7l46 -63l-8 -22q-11 -29 -23 -76q-10 -41 -23 -81q-18 -48 -18 -90l2 -33q6 -86 295 -143zM1565 586q47 82 47 196q0 93 -25.5 188t-71.5 160q32 -68 35 -142q2 -30 2 -60q0 -44 -4 -90q-3 -53 -3 -107q0 -10 1 -47t19 -98z" />
    <glyph glyph-name="o" unicode="o" horiz-adv-x="1737" 
d="M805 1714l-155 -125l9 -9q184 70 219 84zM1482 1535q-49 76 -112 101q-34 13 -75 13q-37 0 -81 -10q73 -29 148 -57zM314 989l196 322q-33 -1 -80.5 -54t-88 -125.5t-51.5 -132.5zM1146 262q53 68 115 133q84 87 148.5 183t68.5 218l-20 -25q-45 -44 -72 -106
q-40 -86 -102 -165q-22 -30 -41 -60l-82 -117l-37 -52zM770 77q29 1 83.5 25.5t100.5 56t49 51.5q5 57 36 101t71 84q34 33 63 69q25 36 48 81l26 47l40 3l6 36q2 35 14 62q63 122 131 243l44 79q39 76 39 150q0 103 -94 285q-22 -77 -35 -128h-25q18 41 18 76
q0 97 -130 148q-36 15 -67 15q-7 0 -28 -3t-55 -40q3 14 3 25q0 39 -41 39q-35 0 -309 -69q-4 -1 -9 -2.5t-16 -14.5l-7 -9q16 -2 31 -2q24 0 43 5q30 7 72 7q11 0 25 -1t29 -1q-93 -15 -158 -56.5t-121 -92.5q-28 -25 -57 -48q-59 -48 -95 -105.5t-65 -117.5
q-15 -34 -33 -66q-50 -104 -70 -218q-9 -49 -22 -97q8 1 16 3l6 1l32 -127l-59 -39q39 -17 53 -21l1 -19l-3 -34q0 -25 9 -43q30 -47 62.5 -89.5t58.5 -84.5q97 -158 289 -164zM805 1714q1 0 1 1q49 -16 84 -21l64 -5q69 -7 137 -7q37 0 75 3t75 3q79 0 166.5 -22
t138.5 -100q50 -92 72 -195l17 -62l13 -42q27 -78 27 -125q0 -13 -1 -25q-22 -138 -63 -275l-26 -96q-55 -207 -245 -407q-34 -39 -58 -84q-49 -94 -165 -174q-20 -14 -39 -29t-40 -31q-87 -59 -155 -135q-23 -24 -66 -38q-20 -7 -37 -15q-10 22 -16.5 43t-14.5 37
q-17 35 -134 35h-8q-26 1 -51 3q-2 -11 -7 -22l105 -32l-4 -15l-163 37q28 33 28 54q0 30 -55 56q-18 9 -33 20l-19 -39l-26 28q-32 28 -50 60q-25 52 -45 105t-44 103q-14 23 -43 43q-14 9 -28 20l42 12l-28 53q-50 92 -98 185q-1 0 -1 1q-10 16 -13 33t-6 35
q-19 90 -19 134q0 33 9 66q3 16 5 33l43 -9l-34 -98q16 9 33 16q36 17 39 28q11 41 95 406q3 18 3 36q0 29 11 54.5t55 38.5q0 11 -6 21v2q19 11 37 20q38 18 64 40q165 159 402 238zM805 1714l-1 1h1v-1z" />
    <glyph glyph-name="P" unicode="P" horiz-adv-x="1436" 
d="M473 804q11 0 24 3q213 33 258 33h13q23 0 46 3q121 21 199.5 91t138.5 162q20 29 20 55q0 30 -27 57l-20 19q-41 45 -90 80t-124 43q-137 16 -279 51l-133 28l-1 -42q0 -66 -63 -529l-1 -14q0 -40 39 -40zM1348 1258l1 35q-1 11 -10 23q-17 29 -35 29q-3 0 -11.5 -2
t-29.5 -27zM1229 909l101 115l-26 19l-101 -115zM1109 1561l-133 9l3 32l133 -9zM203 -268q1 15 1 31q2 88 3 95.5t1 16.5q0 19 -4 36q-9 24 -21 46q-37 64 -37 275q0 18 15 37q7 9 14 21l-74 21l20 28q17 -2 23 -2l7 63q10 54 10 107q0 23 -2 46q-4 20 -25.5 39.5
t-46.5 36.5q-11 7 -20 14q-14 9 -45 10q-17 1 -40 4q17 13 31 25q25 21 34 21q26 -11 44 -11q10 0 24 5.5t22.5 26.5t11.5 42l5 20q48 139 80 282q10 43 21 85q9 36 16 72q11 57 28 112q5 14 5 24q0 22 -26 22q-17 0 -26 -3l-25 -1q-18 0 -42 29l-12 13l13 10q13 13 29 20
q28 11 58 20l25 7q-2 2 -4.5 6t-5.5 9q-104 0 -143 -5q-23 -6 -48 -30q-14 -12 -31 -25l5 20q2 23 13 28q44 31 74 34q62 4 137 59q36 28 73 42l-9 20l-18 44l19 12q22 -10 57 -24l-43 78q1 -1 137 -28q-2 -7 -2 -13q-2 -12 -5 -22q-9 -22 -9 -40q0 -23 15 -39
q23 -25 70 -25l17 1q284 30 304 30q51 0 51 -29q0 -16 -13 -41l239 -62l27 39l47 -53q53 -64 112 -120q28 -27 28 -50q0 -17 -16 -32q-24 -23 -24 -43q0 -24 14 -47q28 -55 28 -111q0 -2 -1 -32t-20 -88q-3 -9 -10 -17q-15 -17 -71 -42q-62 -25 -100 -66q-24 -30 -54 -44
t-62 -23t-61 -23q-176 -83 -375 -92q-81 -5 -158 -25q-49 -14 -76 -54.5t-27 -90.5q0 -402 -13 -448q-9 -28 -26 -38q-64 -31 -83 -77.5t-23 -99.5q-3 -26 -8 -51q0 -11 -23 -18z" />
    <glyph glyph-name="p" unicode="p" horiz-adv-x="1436" 
d="M473 804q11 0 24 3q213 33 258 33h13q23 0 46 3q121 21 199.5 91t138.5 162q20 29 20 55q0 30 -27 57l-20 19q-41 45 -90 80t-124 43q-137 16 -279 51l-133 28l-1 -42q0 -66 -63 -529l-1 -14q0 -40 39 -40zM1348 1258l1 35q-1 11 -10 23q-17 29 -35 29q-3 0 -11.5 -2
t-29.5 -27zM1229 909l101 115l-26 19l-101 -115zM1109 1561l-133 9l3 32l133 -9zM203 -268q1 15 1 31q2 88 3 95.5t1 16.5q0 19 -4 36q-9 24 -21 46q-37 64 -37 275q0 18 15 37q7 9 14 21l-74 21l20 28q17 -2 23 -2l7 63q10 54 10 107q0 23 -2 46q-4 20 -25.5 39.5
t-46.5 36.5q-11 7 -20 14q-14 9 -45 10q-17 1 -40 4q17 13 31 25q25 21 34 21q26 -11 44 -11q10 0 24 5.5t22.5 26.5t11.5 42l5 20q48 139 80 282q10 43 21 85q9 36 16 72q11 57 28 112q5 14 5 24q0 22 -26 22q-17 0 -26 -3l-25 -1q-18 0 -42 29l-12 13l13 10q13 13 29 20
q28 11 58 20l25 7q-2 2 -4.5 6t-5.5 9q-104 0 -143 -5q-23 -6 -48 -30q-14 -12 -31 -25l5 20q2 23 13 28q44 31 74 34q62 4 137 59q36 28 73 42l-9 20l-18 44l19 12q22 -10 57 -24l-43 78q1 -1 137 -28q-2 -7 -2 -13q-2 -12 -5 -22q-9 -22 -9 -40q0 -23 15 -39
q23 -25 70 -25l17 1q284 30 304 30q51 0 51 -29q0 -16 -13 -41l239 -62l27 39l47 -53q53 -64 112 -120q28 -27 28 -50q0 -17 -16 -32q-24 -23 -24 -43q0 -24 14 -47q28 -55 28 -111q0 -2 -1 -32t-20 -88q-3 -9 -10 -17q-15 -17 -71 -42q-62 -25 -100 -66q-24 -30 -54 -44
t-62 -23t-61 -23q-176 -83 -375 -92q-81 -5 -158 -25q-49 -14 -76 -54.5t-27 -90.5q0 -402 -13 -448q-9 -28 -26 -38q-64 -31 -83 -77.5t-23 -99.5q-3 -26 -8 -51q0 -11 -23 -18z" />
    <glyph glyph-name="Q" unicode="Q" horiz-adv-x="1600" 
d="M397 1441q195 182 412 182h16q-40 16 -82 16q-60 0 -157 -41q-48 -21 -98 -34q-28 -8 -66 -78q-12 -23 -26 -44zM525 15q17 0 32 6q141 60 206 93q149 73 208 161l-53 61q-64 69 -117 141q-69 99 -188 99q-24 0 -51 -4l-9 -1q-26 0 -51 13q-17 7 -34 11l7 55h266l164 -19
q-3 -18 -3 -25v-7q2 -11 74 -54q-8 37 -29.5 64.5t-47.5 52.5q-47 40 -71 97l-3 6l29 28l323 -277l6 15q12 36 33 69q71 106 104 185q59 117 59 175q0 36 -16 75q-18 35 -18 65q0 12 5 31.5t38 40.5l-13 15h-1q-25 25 -43 52q-11 21 -18 44.5t-20 42.5q-10 14 -20 30
q-22 36 -49.5 62t-74.5 26h-9l-4 6q-26 42 -62 52.5t-76 10.5l-21 -1q-41 0 -73 4q-22 4 -40 4q-13 0 -21 -4q-63 -23 -122 -52l-41 -20q-98 -44 -137 -80q-26 -27 -60 -41q-56 -21 -89 -62.5t-45 -83.5q-48 -162 -48 -301q0 -85 18 -162q5 -20 5 -29q-1 -9 -9 -10
q-30 -10 -35 -27q-3 -10 -3 -22q0 -10 2 -21t2 -21q0 -19 -6 -37q-13 -30 -13 -62q0 -29 11.5 -70.5t11.5 -82.5l-2 -38q0 -53 49 -110q17 -24 33 -49l7 -11l35 26l-1 -29q0 -34 28 -64q44 -42 91 -42zM247 1213l39 63l-76 -56zM1479 -263q-59 0 -108.5 35t-73.5 87
q-9 18 -32 35q-43 33 -88 102q-23 40 -40 81l-11 22l-115 -53q-14 -6 -29 -11q-26 -8 -44.5 -21t-21.5 -43q-2 -14 -15.5 -25t-26.5 -12q-54 -3 -109 -19q-76 -21 -119 -21q-45 0 -84 16q-14 6 -34 6q-22 0 -47 -4.5t-50 -4.5q-13 0 -23 2q-108 17 -204 57q-41 20 -61 87
q-33 106 -46 222q-8 125 -8 235q0 119 9 223q9 74 9 151q0 60 -13 121q-3 14 -3 28q0 38 35 125q9 20 16 39q26 69 69 122.5t90 101.5q31 32 62 66q7 10 9 28q18 80 122 142q80 48 158 48q15 0 71 -4q77 -3 155 -15q50 -12 94 -42h1q52 -32 121 -32h14q42 0 83 -8.5
t75 -42.5q94 -99 121 -173q30 -88 63 -172l1 -2q9 -23 17 -47q15 -33 18 -70v-278l6 6l30 -8l-1 -27v-10q0 -17 -5 -33q-29 -74 -97 -236l-33 -86l-37 -97q-6 -11 -19 -18l-9 -7l-64 -67q50 -43 85 -98q29 -43 29 -70q19 -15 38 -28q57 -35 91 -85q15 -33 15 -77
q0 -17 -1.5 -36t-1.5 -39t1 -39l-85 34l81 -58z" />
    <glyph glyph-name="q" unicode="q" horiz-adv-x="1600" 
d="M397 1441q195 182 412 182h16q-40 16 -82 16q-60 0 -157 -41q-48 -21 -98 -34q-28 -8 -66 -78q-12 -23 -26 -44zM525 15q17 0 32 6q141 60 206 93q149 73 208 161l-53 61q-64 69 -117 141q-69 99 -188 99q-24 0 -51 -4l-9 -1q-26 0 -51 13q-17 7 -34 11l7 55h266l164 -19
q-3 -18 -3 -25v-7q2 -11 74 -54q-8 37 -29.5 64.5t-47.5 52.5q-47 40 -71 97l-3 6l29 28l323 -277l6 15q12 36 33 69q71 106 104 185q59 117 59 175q0 36 -16 75q-18 35 -18 65q0 12 5 31.5t38 40.5l-13 15h-1q-25 25 -43 52q-11 21 -18 44.5t-20 42.5q-10 14 -20 30
q-22 36 -49.5 62t-74.5 26h-9l-4 6q-26 42 -62 52.5t-76 10.5l-21 -1q-41 0 -73 4q-22 4 -40 4q-13 0 -21 -4q-63 -23 -122 -52l-41 -20q-98 -44 -137 -80q-26 -27 -60 -41q-56 -21 -89 -62.5t-45 -83.5q-48 -162 -48 -301q0 -85 18 -162q5 -20 5 -29q-1 -9 -9 -10
q-30 -10 -35 -27q-3 -10 -3 -22q0 -10 2 -21t2 -21q0 -19 -6 -37q-13 -30 -13 -62q0 -29 11.5 -70.5t11.5 -82.5l-2 -38q0 -53 49 -110q17 -24 33 -49l7 -11l35 26l-1 -29q0 -34 28 -64q44 -42 91 -42zM247 1213l39 63l-76 -56zM1479 -263q-59 0 -108.5 35t-73.5 87
q-9 18 -32 35q-43 33 -88 102q-23 40 -40 81l-11 22l-115 -53q-14 -6 -29 -11q-26 -8 -44.5 -21t-21.5 -43q-2 -14 -15.5 -25t-26.5 -12q-54 -3 -109 -19q-76 -21 -119 -21q-45 0 -84 16q-14 6 -34 6q-22 0 -47 -4.5t-50 -4.5q-13 0 -23 2q-108 17 -204 57q-41 20 -61 87
q-33 106 -46 222q-8 125 -8 235q0 119 9 223q9 74 9 151q0 60 -13 121q-3 14 -3 28q0 38 35 125q9 20 16 39q26 69 69 122.5t90 101.5q31 32 62 66q7 10 9 28q18 80 122 142q80 48 158 48q15 0 71 -4q77 -3 155 -15q50 -12 94 -42h1q52 -32 121 -32h14q42 0 83 -8.5
t75 -42.5q94 -99 121 -173q30 -88 63 -172l1 -2q9 -23 17 -47q15 -33 18 -70v-278l6 6l30 -8l-1 -27v-10q0 -17 -5 -33q-29 -74 -97 -236l-33 -86l-37 -97q-6 -11 -19 -18l-9 -7l-64 -67q50 -43 85 -98q29 -43 29 -70q19 -15 38 -28q57 -35 91 -85q15 -33 15 -77
q0 -17 -1.5 -36t-1.5 -39t1 -39l-85 34l81 -58z" />
    <glyph glyph-name="R" unicode="R" horiz-adv-x="1509" 
d="M1226 1101l16 28q53 86 53 92q0 2 -2.5 6t-7 7t-7.5 3q-32 0 -35 -10q-22 -52 -46 -118zM446 801q11 0 25 3.5t28 6.5q87 18 157 51q91 50 177 104q95 60 196 114q95 50 112 135q5 33 5 67q0 17 -1 34.5t-1 35.5q-1 140 -207 178l-46 10q-67 16 -135 16q-34 0 -71 -3
l-54 -2q-2 1 -6 3.5t-12.5 6.5t-29.5 4q-50 0 -65 -19t-16 -58q-33 -254 -71 -501q-22 -145 -22 -155q0 -31 37 -31zM259 810l24 1l-1 119l-39 -2zM384 -172q-41 0 -56 11q-63 54 -81.5 115.5t-22.5 125.5q-2 20 -5 39q-11 99 -14 198q-3 72 -9 144q-6 53 -17 106
q-8 40 -14 81q-4 43 -59 43q-11 0 -25 -2q-21 -3 -41 -3q-27 0 -59.5 6t-49.5 47q-4 8 -36.5 17t-63.5 32l-15 9q0 1 1 1q5 8 11 15q156 -8 249 -17l20 -1q61 0 64 45q5 37 13 75q11 54 17 108q0 28 -8.5 55t-8.5 52q0 38 24 62q27 33 27 46q0 1 -2 7.5t-48 24.5
q48 17 63 44q9 17 9 38q0 11 -2 22q-7 46 -7 95l-2 46q-21 -17 -37 -38q-20 -28 -51.5 -49.5t-93.5 -21.5l33 42l-11 16l-137 -34q-17 6 -97 31q38 12 72 24q148 49 219 64q41 8 80 19q37 14 57 41q33 43 62 88q11 18 23 35l27 -3l-12 -116q55 10 55 44q0 9 -4.5 23t-4.5 34
q0 42 78 45q-2 -18 -2 -50q0 -40 21 -51q16 -8 49 -8l31 1q86 6 173 9q118 4 226 14q66 9 139 9l-74 -34q18 -2 33 -5q24 -4 58 -4l23 1q43 0 73.5 -17.5t53.5 -43.5q7 -6 13.5 -12.5t15.5 -13.5q33 -27 49 -57q4 -8 4 -16q0 -25 -34 -52q0 -3 8.5 -10.5t22 -17t27 -15.5
t46.5 -8q19 -1 46 -4q-31 -12 -67 -22q-42 -12 -71 -25q-24 -11 -24 -26q0 -4 3 -15.5t65 -43.5q-15 -30 -36 -59q-57 -78 -57 -133l1 -15q-67 -4 -67 -23q0 -13 20 -42q-80 -85 -199 -133q-147 -60 -291 -96q-17 -5 -42 -14q-29 -14 -29 -30q0 -7 5 -15q12 -10 36 -35
q109 -118 147 -134q23 -9 30 -22q21 -52 96 -84q51 -20 86 -64q30 -36 83 -57q66 -30 225 -156l136 -128q-48 -31 -95 -31q-57 0 -112 47q-24 22 -62.5 25.5t-72.5 14.5t-60 45q-19 27 -54 34q-57 12 -97 50q-17 13 -34 25t-29 33q-26 41 -76 61q-33 12 -59 37
q-44 46 -121 106.5t-129 91.5q-39 25 -63.5 61t-64.5 61l-6 -172q2 -43 6 -87q6 -51 7 -102q-1 -103 -9 -407q1 -6 5 -12.5t4 -14.5q-6 -35 -19 -39q-10 -1 -21 -1z" />
    <glyph glyph-name="r" unicode="r" horiz-adv-x="1509" 
d="M1226 1101l16 28q53 86 53 92q0 2 -2.5 6t-7 7t-7.5 3q-32 0 -35 -10q-22 -52 -46 -118zM446 801q11 0 25 3.5t28 6.5q87 18 157 51q91 50 177 104q95 60 196 114q95 50 112 135q5 33 5 67q0 17 -1 34.5t-1 35.5q-1 140 -207 178l-46 10q-67 16 -135 16q-34 0 -71 -3
l-54 -2q-2 1 -6 3.5t-12.5 6.5t-29.5 4q-50 0 -65 -19t-16 -58q-33 -254 -71 -501q-22 -145 -22 -155q0 -31 37 -31zM259 810l24 1l-1 119l-39 -2zM384 -172q-41 0 -56 11q-63 54 -81.5 115.5t-22.5 125.5q-2 20 -5 39q-11 99 -14 198q-3 72 -9 144q-6 53 -17 106
q-8 40 -14 81q-4 43 -59 43q-11 0 -25 -2q-21 -3 -41 -3q-27 0 -59.5 6t-49.5 47q-4 8 -36.5 17t-63.5 32l-15 9q0 1 1 1q5 8 11 15q156 -8 249 -17l20 -1q61 0 64 45q5 37 13 75q11 54 17 108q0 28 -8.5 55t-8.5 52q0 38 24 62q27 33 27 46q0 1 -2 7.5t-48 24.5
q48 17 63 44q9 17 9 38q0 11 -2 22q-7 46 -7 95l-2 46q-21 -17 -37 -38q-20 -28 -51.5 -49.5t-93.5 -21.5l33 42l-11 16l-137 -34q-17 6 -97 31q38 12 72 24q148 49 219 64q41 8 80 19q37 14 57 41q33 43 62 88q11 18 23 35l27 -3l-12 -116q55 10 55 44q0 9 -4.5 23t-4.5 34
q0 42 78 45q-2 -18 -2 -50q0 -40 21 -51q16 -8 49 -8l31 1q86 6 173 9q118 4 226 14q66 9 139 9l-74 -34q18 -2 33 -5q24 -4 58 -4l23 1q43 0 73.5 -17.5t53.5 -43.5q7 -6 13.5 -12.5t15.5 -13.5q33 -27 49 -57q4 -8 4 -16q0 -25 -34 -52q0 -3 8.5 -10.5t22 -17t27 -15.5
t46.5 -8q19 -1 46 -4q-31 -12 -67 -22q-42 -12 -71 -25q-24 -11 -24 -26q0 -4 3 -15.5t65 -43.5q-15 -30 -36 -59q-57 -78 -57 -133l1 -15q-67 -4 -67 -23q0 -13 20 -42q-80 -85 -199 -133q-147 -60 -291 -96q-17 -5 -42 -14q-29 -14 -29 -30q0 -7 5 -15q12 -10 36 -35
q109 -118 147 -134q23 -9 30 -22q21 -52 96 -84q51 -20 86 -64q30 -36 83 -57q66 -30 225 -156l136 -128q-48 -31 -95 -31q-57 0 -112 47q-24 22 -62.5 25.5t-72.5 14.5t-60 45q-19 27 -54 34q-57 12 -97 50q-17 13 -34 25t-29 33q-26 41 -76 61q-33 12 -59 37
q-44 46 -121 106.5t-129 91.5q-39 25 -63.5 61t-64.5 61l-6 -172q2 -43 6 -87q6 -51 7 -102q-1 -103 -9 -407q1 -6 5 -12.5t4 -14.5q-6 -35 -19 -39q-10 -1 -21 -1z" />
    <glyph glyph-name="S" unicode="S" horiz-adv-x="1403" 
d="M953 1637l47 13l-8 8l-61 -3zM660 -23q13 2 21 17l-82 -7q35 -10 55 -10h6zM573 947l110 12l-110 -6v-6zM428 979q65 7 168 31l54 11q-105 10 -219 10l-54 -1q-8 -11 -13 -25q39 -26 61 -26h3zM641 1716l79 17v1zM463 -163q-16 0 -41 3h-10q-96 10 -176 41.5t-157 71.5
h-1q-36 19 -74 36l68 52l-83 119l136 -19q-4 17 -4 32q0 34 20 59q24 30 70 37l15 3l4 -48q4 -27 4 -54q0 -18 -2 -36q-6 -24 -31 -50h-1l-6 -7q30 2 58 2q44 0 83.5 -5t75.5 -5q84 0 136 27l33 16q42 22 70 34q24 9 43 21q136 84 190 170q16 28 27.5 59t28.5 60
q43 71 136 210q-50 10 -50 46q0 27 21 50q13 16 13 25q0 14 -31 27q-50 28 -87 28h-8q-89 -18 -174 -43q-126 -37 -195 -48q-31 -5 -57 -5q-112 0 -180 50.5t-117 125.5q-19 24 -44 48.5t-29 29.5l8 17q11 16 11 26q0 31 -11 141t-11 121q0 85 82 156q50 46 97 94
q69 70 148 136q110 89 325 101q41 3 114 18q31 6 64.5 11.5t122.5 11.5l-114 -55l52 -39q85 -63 169 -132q64 -57 110 -122q5 -8 5 -16t-6 -25q-3 -9 -6 -29q-16 3 -35 5q-25 1 -47 10q-35 17 -68 39l-37 23q6 17 6 25q0 12 -9 25q-19 32 -176 71l-26 -9q-52 -20 -86 -20
q-44 0 -76 30q-17 -7 -52 -25q-76 -39 -149 -119q-25 -26 -69 -68l-10 64q-21 -8 -31 -27q-6 -11 -6 -19q0 -7 8 -17q-8 -19 -42 -93q-46 -93 -77 -183q-8 -24 -8 -38q0 -11 5 -15q11 -9 49 -9l33 1q85 4 168 4q55 0 110 -2q61 -2 124 -2q23 0 45.5 2.5t43.5 2.5q32 0 62 -8
q116 -40 220 -107q67 -46 153 -132q17 -17 31 -43v-1q8 -15 32 -51l-97 11l4 -25l95 3l-3 -32l-62 -13l57 6l12 -27l-88 -33l-30 -217l-98 37l-6 -21q-13 -47 -23 -92q0 -3 3.5 -9t3.5 -13q0 -9 -173 -214q-22 -25 -43 -51l-9 -10l-51 30q-96 -129 -288 -152q-34 -6 -80 -11
q3 -12 3 -22q0 -9 -4 -21q-4 -16 -43 -16zM682 -143l112 78q43 31 93 61l36 22q13 -23 14 -32q0 -10 -18 -23q-13 -8 -43 -21.5t-85 -37.5t-109 -47z" />
    <glyph glyph-name="s" unicode="s" horiz-adv-x="1403" 
d="M953 1637l47 13l-8 8l-61 -3zM660 -23q13 2 21 17l-82 -7q35 -10 55 -10h6zM573 947l110 12l-110 -6v-6zM428 979q65 7 168 31l54 11q-105 10 -219 10l-54 -1q-8 -11 -13 -25q39 -26 61 -26h3zM641 1716l79 17v1zM463 -163q-16 0 -41 3h-10q-96 10 -176 41.5t-157 71.5
h-1q-36 19 -74 36l68 52l-83 119l136 -19q-4 17 -4 32q0 34 20 59q24 30 70 37l15 3l4 -48q4 -27 4 -54q0 -18 -2 -36q-6 -24 -31 -50h-1l-6 -7q30 2 58 2q44 0 83.5 -5t75.5 -5q84 0 136 27l33 16q42 22 70 34q24 9 43 21q136 84 190 170q16 28 27.5 59t28.5 60
q43 71 136 210q-50 10 -50 46q0 27 21 50q13 16 13 25q0 14 -31 27q-50 28 -87 28h-8q-89 -18 -174 -43q-126 -37 -195 -48q-31 -5 -57 -5q-112 0 -180 50.5t-117 125.5q-19 24 -44 48.5t-29 29.5l8 17q11 16 11 26q0 31 -11 141t-11 121q0 85 82 156q50 46 97 94
q69 70 148 136q110 89 325 101q41 3 114 18q31 6 64.5 11.5t122.5 11.5l-114 -55l52 -39q85 -63 169 -132q64 -57 110 -122q5 -8 5 -16t-6 -25q-3 -9 -6 -29q-16 3 -35 5q-25 1 -47 10q-35 17 -68 39l-37 23q6 17 6 25q0 12 -9 25q-19 32 -176 71l-26 -9q-52 -20 -86 -20
q-44 0 -76 30q-17 -7 -52 -25q-76 -39 -149 -119q-25 -26 -69 -68l-10 64q-21 -8 -31 -27q-6 -11 -6 -19q0 -7 8 -17q-8 -19 -42 -93q-46 -93 -77 -183q-8 -24 -8 -38q0 -11 5 -15q11 -9 49 -9l33 1q85 4 168 4q55 0 110 -2q61 -2 124 -2q23 0 45.5 2.5t43.5 2.5q32 0 62 -8
q116 -40 220 -107q67 -46 153 -132q17 -17 31 -43v-1q8 -15 32 -51l-97 11l4 -25l95 3l-3 -32l-62 -13l57 6l12 -27l-88 -33l-30 -217l-98 37l-6 -21q-13 -47 -23 -92q0 -3 3.5 -9t3.5 -13q0 -9 -173 -214q-22 -25 -43 -51l-9 -10l-51 30q-96 -129 -288 -152q-34 -6 -80 -11
q3 -12 3 -22q0 -9 -4 -21q-4 -16 -43 -16zM682 -143l112 78q43 31 93 61l36 22q13 -23 14 -32q0 -10 -18 -23q-13 -8 -43 -21.5t-85 -37.5t-109 -47z" />
    <glyph glyph-name="T" unicode="T" horiz-adv-x="1524" 
d="M753 19l11 160q-39 -34 -40 -53t-1 -25q0 -26 8 -52q4 -14 6 -29zM860 -390q-43 61 -102 100q-90 62 -90 123q0 28 9 74q-4 49 -4 102q0 41 15 84q4 13 4 26q0 22 -13 65l-41 -3q-12 0 -21 1q-14 5 -50 32q-21 -21 -35 -21q-15 0 -53 15q-5 1 -14 1q-6 0 -269 25
q-13 0 -25.5 -2t-25.5 -2q-20 0 -90 68q-16 16 -35 33q12 9 23 19q22 20 32 20q15 -7 28 -7q22 0 52 23q18 13 38 20q8 2 15 6q11 5 21 7l38 1q38 0 76 -4q33 -4 65 -4q48 0 96 9q5 1 11 1t116 -24l10 23l72 -13q-4 462 -6 539q-3 72 -3 145q1 52 5 103q5 61 5 122
q-1 35 -7 106q-9 82 -9 124q0 25 10 89q17 129 32 179l14 -4q8 -52 18 -102l45 178l25 -3q18 -71 28 -152q9 -70 18 -152q26 -197 40 -258q7 -19 24 -36q8 -7 18 -19q15 -16 15 -22q-1 -19 -1 -61l1 -26q0 -78 -25 -103.5t-29.5 -48.5t-4.5 -41q0 -8 1 -15q0 -34 -5 -56
q-13 -46 -14 -95q0 -28 1.5 -63.5t1.5 -62.5q1 -38 6 -75q7 -54 7 -80q0 -61 4 -121q2 -11 18.5 -22.5t40.5 -11.5q36 0 73 4q27 3 67 3q7 -1 15 -1q23 0 44 8q29 12 58 12q30 0 59 -13q43 -14 87 -26q37 -9 73 -20q21 -8 41 -22l19 -11l-6 -14l68 2q-70 -66 -122 -66
q-18 0 -39 6l-6 1q-5 0 -77 -22q-81 -27 -106 -27q-7 0 -15.5 1t-17.5 1l-11 9q-16 18 -26 18q-14 0 -43 -25q-10 -9 -23 -18q-5 2 -14 7t-23 10.5t-29 6.5q-17 0 -35 -10q-35 -19 -35 -51v-259q7 -21 7 -45q0 -69 -36 -96l-50 33q-15 -45 -17 -58q-5 -30 -7 -91z" />
    <glyph glyph-name="t" unicode="t" horiz-adv-x="1287" 
d="M531 -123l-15 219l-111 -53q6 57 9 72q4 29 4 51q-1 9 -5 20q-7 20 -7 35q0 18 15 36q-20 32 -20 64q0 31 9 60q7 25 8 48q3 79 19 249q0 9 -2 19v1q-5 18 -5 75q0 26 3.5 69.5t30.5 105.5q3 9 3 22q0 10 -1.5 22.5t-1.5 25.5v13q21 271 27 310l4 46q-175 -60 -401 -75
l-56 -3l-18 44l64 46l-61 16v46l61 16q73 20 197 47q94 18 187 44q29 7 38 14t9 27q5 55 34 105q8 17 16 33t28 21l27 14l12 -28q8 -16 8 -30l-3 -31q21 31 64 31q14 0 42 -6l-5 -73q10 -3 19 -3q30 0 70 32q17 12 36 23q26 15 50.5 36.5t51.5 38.5q15 9 42 9l11 -1
q19 0 52 2l-13 -31l-5 -16q-6 -21 -21 -42l-6 -7l142 29l4 -50q48 28 90 28q23 0 45 -9l42 -17l-83 -43q-47 -23 -93 -50q-142 -86 -311 -97q-71 -6 -117 -40q-8 -7 -13 -25l-13 -62q-31 -144 -36 -182q-4 -20 -4 -23v-6q0 -18 -13 -70l-9 -42q-12 -36 -12 -62
q2 -36 6 -71.5t6 -71.5q0 -12 -5 -21.5t-10 -16t-7 -10.5q-5 -7 -10 -12l-3 -4q2 -21 7 -42q8 -35 10 -73q0 -41 -9 -86l-6 -35q8 -11 8 -23q0 -18 -15 -40q-8 -14 -11 -26q-2 -8 -7 -66q-2 -35 -12 -67l2 -27q2 -57 16 -129q16 -80 16 -118q0 -20 -4.5 -52t-53.5 -73z" />
    <glyph glyph-name="U" unicode="U" horiz-adv-x="1358" 
d="M160 1354q-43 1 -90 6q-6 21 -6 38q0 67 109 84l-63 -98zM437 -74q-83 0 -157.5 44t-139.5 165q14 6 46 24q-2 3 -4.5 8t-5.5 5q-58 8 -71.5 38t-13.5 63q0 14 -3 36q-17 115 -25 231q-6 73 -14 146q-4 16 -23 33q-9 8 -17 18l38 5q-16 101 -17 136q4 409 14 429
q9 16 18 18q21 -2 46 -11q11 -4 24 -7l28 47l13 37q15 42 25.5 86.5t18.5 89t17 86.5q7 24 18 47l10 21l19 -7q-5 -39 -12 -80l-11 -78l117 138l16 -2l-15 -58q-18 -65 -31 -130q-40 -218 -75 -607q0 -24 5 -43t5 -39q0 -9 -4 -18.5t-8 -16.5t-6 -12q-3 -105 -5 -222
q-25 -11 -25 -28q0 -19 9.5 -40.5t10.5 -43.5q2 -11 9 -22q10 -14 10 -34l-1 -13q0 -42 12 -69t72 -34q29 -67 86 -82q47 -12 99 -12q59 0 172 21q31 20 37 69q2 4 28 9q6 9 11 20q18 30 22 30l15 -1q41 0 64 21.5t45 65.5q41 61 63 127l1 10q0 7 -3 17.5t-9 24.5t-11 27
q-15 -3 -67 -17l16 16q12 9 15 17l23 60q77 199 77 244q0 19 -4.5 39.5t-5.5 39.5q1 23 8 46q0 6 7.5 18t7.5 20q0 9 -26 78q-20 50 -34 101q-11 50 -15 104l-6 50l121 -3l-21 39q-45 78 -45 92q0 8 17 38q-33 21 -33 43q0 24 41 65q21 20 35 41q69 -42 98 -104
q34 -75 45 -142q6 -18 25 -34l16 -17q-11 -7 -11 -33q0 -52 30 -80t30 -54q-9 -81 -21 -161q-19 -127 -28 -254q0 -98 12 -170q10 -60 10 -74q0 -36 -101 -243q-49 -100 -94 -200q-17 -33 -90.5 -94.5t-152.5 -106.5q-57 -33 -88 -33q-12 0 -21 5q27 18 27 29q0 6 -7 10.5
t-19 8.5t-20 9q-19 -15 -47 -25q-141 -51 -241 -51z" />
    <glyph glyph-name="u" unicode="u" horiz-adv-x="1358" 
d="M160 1354q-43 1 -90 6q-6 21 -6 38q0 67 109 84l-63 -98zM437 -74q-83 0 -157.5 44t-139.5 165q14 6 46 24q-2 3 -4.5 8t-5.5 5q-58 8 -71.5 38t-13.5 63q0 14 -3 36q-17 115 -25 231q-6 73 -14 146q-4 16 -23 33q-9 8 -17 18l38 5q-16 101 -17 136q4 409 14 429
q9 16 18 18q21 -2 46 -11q11 -4 24 -7l28 47l13 37q15 42 25.5 86.5t18.5 89t17 86.5q7 24 18 47l10 21l19 -7q-5 -39 -12 -80l-11 -78l117 138l16 -2l-15 -58q-18 -65 -31 -130q-40 -218 -75 -607q0 -24 5 -43t5 -39q0 -9 -4 -18.5t-8 -16.5t-6 -12q-3 -105 -5 -222
q-25 -11 -25 -28q0 -19 9.5 -40.5t10.5 -43.5q2 -11 9 -22q10 -14 10 -34l-1 -13q0 -42 12 -69t72 -34q29 -67 86 -82q47 -12 99 -12q59 0 172 21q31 20 37 69q2 4 28 9q6 9 11 20q18 30 22 30l15 -1q41 0 64 21.5t45 65.5q41 61 63 127l1 10q0 7 -3 17.5t-9 24.5t-11 27
q-15 -3 -67 -17l16 16q12 9 15 17l23 60q77 199 77 244q0 19 -4.5 39.5t-5.5 39.5q1 23 8 46q0 6 7.5 18t7.5 20q0 9 -26 78q-20 50 -34 101q-11 50 -15 104l-6 50l121 -3l-21 39q-45 78 -45 92q0 8 17 38q-33 21 -33 43q0 24 41 65q21 20 35 41q69 -42 98 -104
q34 -75 45 -142q6 -18 25 -34l16 -17q-11 -7 -11 -33q0 -52 30 -80t30 -54q-9 -81 -21 -161q-19 -127 -28 -254q0 -98 12 -170q10 -60 10 -74q0 -36 -101 -243q-49 -100 -94 -200q-17 -33 -90.5 -94.5t-152.5 -106.5q-57 -33 -88 -33q-12 0 -21 5q27 18 27 29q0 6 -7 10.5
t-19 8.5t-20 9q-19 -15 -47 -25q-141 -51 -241 -51z" />
    <glyph glyph-name="V" unicode="V" horiz-adv-x="1430" 
d="M722 -42h-24l-30 54q-74 134 -108 174q-67 78 -91 176q-18 78 -65 145q-36 55 -57 113q-22 70 -41 141q-42 149 -65 199q-29 57 -34 115q-5 66 -38 123q-23 45 -34 93q-15 74 -38 148q-24 81 -24 92q0 3 1 7t4 10t4 11l84 -18l-72 130l-10 -22q-9 -16 -14 -27
q-5 0 -8.5 1t-7.5 1l28 122l20 3q17 -18 33 -38q34 -43 76 -81t62.5 -83.5t33.5 -92.5q27 -95 65 -144q2 -2 2 -6q0 -5 -4 -14t-4 -17v-3q8 -35 49 -54q26 -15 27 -23q6 -55 33 -102.5t61 -92.5l5 -6q4 -7 4 -17q-1 -11 -6 -18q-39 -55 -39 -109q0 -8 3.5 -43t43.5 -97
q42 -70 62 -145q1 -4 1 -9q0 -6 -3 -15t-8.5 -20.5t-9.5 -22.5l108 55q0 14 -9 106q68 90 142 186l-15 8l-42 -14q9 28 16 38l26 29q23 23 39 49q165 289 196 371q18 50 47 95q17 26 32 53q23 44 55.5 84.5t92.5 67.5q61 31 111 78q24 20 50 40l19 -19l-9 -21
q-40 -97 -93 -165q-63 -86 -75 -140q-14 -63 -41 -121t-58 -115q-39 -70 -70 -142q-39 -94 -87 -186q-53 -103 -95 -208q-52 -146 -89 -297l-27 -104q-1 -5 -1 -11q0 -11 4 -23l3 -14q5 -24 5 -32q0 -9 -3 -22t-33 -28q-14 -8 -21 -38q-3 -14 -34 -75q-6 -11 -11 -23z" />
    <glyph glyph-name="v" unicode="v" horiz-adv-x="1430" 
d="M722 -42h-24l-30 54q-74 134 -108 174q-67 78 -91 176q-18 78 -65 145q-36 55 -57 113q-22 70 -41 141q-42 149 -65 199q-29 57 -34 115q-5 66 -38 123q-23 45 -34 93q-15 74 -38 148q-24 81 -24 92q0 3 1 7t4 10t4 11l84 -18l-72 130l-10 -22q-9 -16 -14 -27
q-5 0 -8.5 1t-7.5 1l28 122l20 3q17 -18 33 -38q34 -43 76 -81t62.5 -83.5t33.5 -92.5q27 -95 65 -144q2 -2 2 -6q0 -5 -4 -14t-4 -17v-3q8 -35 49 -54q26 -15 27 -23q6 -55 33 -102.5t61 -92.5l5 -6q4 -7 4 -17q-1 -11 -6 -18q-39 -55 -39 -109q0 -8 3.5 -43t43.5 -97
q42 -70 62 -145q1 -4 1 -9q0 -6 -3 -15t-8.5 -20.5t-9.5 -22.5l108 55q0 14 -9 106q68 90 142 186l-15 8l-42 -14q9 28 16 38l26 29q23 23 39 49q165 289 196 371q18 50 47 95q17 26 32 53q23 44 55.5 84.5t92.5 67.5q61 31 111 78q24 20 50 40l19 -19l-9 -21
q-40 -97 -93 -165q-63 -86 -75 -140q-14 -63 -41 -121t-58 -115q-39 -70 -70 -142q-39 -94 -87 -186q-53 -103 -95 -208q-52 -146 -89 -297l-27 -104q-1 -5 -1 -11q0 -11 4 -23l3 -14q5 -24 5 -32q0 -9 -3 -22t-33 -28q-14 -8 -21 -38q-3 -14 -34 -75q-6 -11 -11 -23z" />
    <glyph glyph-name="W" unicode="W" horiz-adv-x="1762" 
d="M587 -127q-20 8 -24 14q-7 10 -13 104l-115 -25l-4 7q-52 84 -62 106q-57 132 -77 243q-10 69 -37 125q-62 120 -98 248t-66 270q-25 108 -25 159q0 40 14 73q24 53 30 105t6 106l1 46q0 42 -14 88q-9 35 -16 72l44 -25q22 40 42 80q73 -73 95 -151.5t29 -158.5
q6 -48 14 -96q23 -122 37 -244l10 -77l10 -87q12 -146 54 -288q0 -2 1 -3l14 -53l41 27q1 -24 4 -50q4 -31 4 -63v-13q0 -22 7 -29q3 -4 28 -4l12 1q24 0 36 -16h5l5 27q19 99 19 113q-1 6 -1 13t61 136l35 74q1 2 1 10q1 2 3 44v7q0 43 12 84q12 33 12 63q0 45 -28 106
q-45 108 -74 228q-21 82 -33 116h54q-13 63 -33 114q-18 37 -18 61q0 12 4 20q12 20 67 23l11 122l49 7l127 -554l12 -2l101 218l12 -38l87 231l77 -57l44 71l37 -9q-4 -19 -7 -56q-3 -53 -19 -103q-32 -78 -69 -152q-22 -43 -43 -88q-23 -52 -90 -210q-6 -15 -18 -25
q-42 -32 -42 -84q0 -27 11 -58q74 -218 141 -332l2 -2q7 -14 16 -29l17 92q28 150 62.5 291t91.5 274q81 180 303 652l30 -41q32 -41 35 -56q0 -5 2 -7q51 -21 51 -64q0 -21 -17 -61l-1 -1l-55 -135q-68 -162 -127 -330q-25 -77 -63 -144q-18 -39 -18 -93v-6q-1 -34 -7 -68
q-6 -26 -25 -51l-14 -23q0 -79 -16.5 -156.5t-38.5 -153.5q-35 -122 -45 -189l-27 12l12 -51l24 6l-44 -190l-54 19l53 146l-23 10q-22 -90 -83 -90q-20 0 -44 12l32 77q-37 4 -58 8l-15 34q-21 55 -86 151q-21 31 -42 65l-4 5v1q-22 29 -22 54v11q0 50 -30 50
q-14 0 -53 -15l-3 -10q3 0 3.5 0.5t1.5 0.5l15 -1q-16 -55 -20 -74q-17 -76 -46 -149q-17 -36 -45.5 -64t-42.5 -60q-32 -88 -53 -179q-9 -38 -20 -76zM491 201q-6 110 -15 119h-6q-11 0 -25 -4l-6 -2z" />
    <glyph glyph-name="w" unicode="w" horiz-adv-x="1762" 
d="M587 -127q-20 8 -24 14q-7 10 -13 104l-115 -25l-4 7q-52 84 -62 106q-57 132 -77 243q-10 69 -37 125q-62 120 -98 248t-66 270q-25 108 -25 159q0 40 14 73q24 53 30 105t6 106l1 46q0 42 -14 88q-9 35 -16 72l44 -25q22 40 42 80q73 -73 95 -151.5t29 -158.5
q6 -48 14 -96q23 -122 37 -244l10 -77l10 -87q12 -146 54 -288q0 -2 1 -3l14 -53l41 27q1 -24 4 -50q4 -31 4 -63v-13q0 -22 7 -29q3 -4 28 -4l12 1q24 0 36 -16h5l5 27q19 99 19 113q-1 6 -1 13t61 136l35 74q1 2 1 10q1 2 3 44v7q0 43 12 84q12 33 12 63q0 45 -28 106
q-45 108 -74 228q-21 82 -33 116h54q-13 63 -33 114q-18 37 -18 61q0 12 4 20q12 20 67 23l11 122l49 7l127 -554l12 -2l101 218l12 -38l87 231l77 -57l44 71l37 -9q-4 -19 -7 -56q-3 -53 -19 -103q-32 -78 -69 -152q-22 -43 -43 -88q-23 -52 -90 -210q-6 -15 -18 -25
q-42 -32 -42 -84q0 -27 11 -58q74 -218 141 -332l2 -2q7 -14 16 -29l17 92q28 150 62.5 291t91.5 274q81 180 303 652l30 -41q32 -41 35 -56q0 -5 2 -7q51 -21 51 -64q0 -21 -17 -61l-1 -1l-55 -135q-68 -162 -127 -330q-25 -77 -63 -144q-18 -39 -18 -93v-6q-1 -34 -7 -68
q-6 -26 -25 -51l-14 -23q0 -79 -16.5 -156.5t-38.5 -153.5q-35 -122 -45 -189l-27 12l12 -51l24 6l-44 -190l-54 19l53 146l-23 10q-22 -90 -83 -90q-20 0 -44 12l32 77q-37 4 -58 8l-15 34q-21 55 -86 151q-21 31 -42 65l-4 5v1q-22 29 -22 54v11q0 50 -30 50
q-14 0 -53 -15l-3 -10q3 0 3.5 0.5t1.5 0.5l15 -1q-16 -55 -20 -74q-17 -76 -46 -149q-17 -36 -45.5 -64t-42.5 -60q-32 -88 -53 -179q-9 -38 -20 -76zM491 201q-6 110 -15 119h-6q-11 0 -25 -4l-6 -2z" />
    <glyph glyph-name="X" unicode="X" horiz-adv-x="1466" 
d="M1344 -98l-29 1l-187 181q-59 59 -83 88q-29 39 -56 80q-63 94 -306 406q-5 5 -19 10q-7 2 -17 7q-112 -197 -413 -717l-76 50q-15 -10 -28 -26q-33 -40 -70 -40q-26 0 -63 16l191 424l-20 9l-29 -42q-36 -53 -78 -103q-16 -15 -46 -23l-24 -8l4 18q1 21 12 37
q60 75 123 150q101 120 229 282q71 89 92 109q47 47 47 71t-49 63q-23 19 -40 38l-58 72q-260 311 -260 362q0 22 6.5 55t6.5 71l-1 50l51 13l-46 72l20 1q97 0 161 -107q49 -88 104 -174q10 -13 36 -28l34 -23l-12 84l16 5h2l181 -373l81 87q168 184 256 268l43 43q6 6 8 6
q79 12 133 48.5t100 83.5q86 84 162 117q9 -3 49 -22l-10 -10q-12 -16 -32.5 -27t-20.5 -15v-1q4 -16 4 -30q0 -47 -65 -96q-93 -75 -145 -186l-3 -7q-14 -39 -36.5 -68t-76.5 -38q-15 -3 -17 -8q-15 -52 -50.5 -93t-78.5 -77q-29 -26 -56 -52q-19 -24 -25 -56l-8 -27
q9 -9 12 -13l-64 -24l-1 -18q0 -23 9.5 -48t50.5 -45q26 -14 49 -46l31 -34h3q30 0 44.5 -19.5t24.5 -46.5q8 -22 19 -41q5 -10 8 -22.5t11 -23.5q67 -70 136 -139l-25 -9l-50 -21l-12 -18q118 -7 134 -111q-39 -9 -44 -9l36 -45q92 -111 120 -157q11 -19 24 -38
q22 -32 22 -48q0 -3 -4 -14t-52 -11z" />
    <glyph glyph-name="x" unicode="x" horiz-adv-x="1466" 
d="M1344 -98l-29 1l-187 181q-59 59 -83 88q-29 39 -56 80q-63 94 -306 406q-5 5 -19 10q-7 2 -17 7q-112 -197 -413 -717l-76 50q-15 -10 -28 -26q-33 -40 -70 -40q-26 0 -63 16l191 424l-20 9l-29 -42q-36 -53 -78 -103q-16 -15 -46 -23l-24 -8l4 18q1 21 12 37
q60 75 123 150q101 120 229 282q71 89 92 109q47 47 47 71t-49 63q-23 19 -40 38l-58 72q-260 311 -260 362q0 22 6.5 55t6.5 71l-1 50l51 13l-46 72l20 1q97 0 161 -107q49 -88 104 -174q10 -13 36 -28l34 -23l-12 84l16 5h2l181 -373l81 87q168 184 256 268l43 43q6 6 8 6
q79 12 133 48.5t100 83.5q86 84 162 117q9 -3 49 -22l-10 -10q-12 -16 -32.5 -27t-20.5 -15v-1q4 -16 4 -30q0 -47 -65 -96q-93 -75 -145 -186l-3 -7q-14 -39 -36.5 -68t-76.5 -38q-15 -3 -17 -8q-15 -52 -50.5 -93t-78.5 -77q-29 -26 -56 -52q-19 -24 -25 -56l-8 -27
q9 -9 12 -13l-64 -24l-1 -18q0 -23 9.5 -48t50.5 -45q26 -14 49 -46l31 -34h3q30 0 44.5 -19.5t24.5 -46.5q8 -22 19 -41q5 -10 8 -22.5t11 -23.5q67 -70 136 -139l-25 -9l-50 -21l-12 -18q118 -7 134 -111q-39 -9 -44 -9l36 -45q92 -111 120 -157q11 -19 24 -38
q22 -32 22 -48q0 -3 -4 -14t-52 -11z" />
    <glyph glyph-name="Y" unicode="Y" horiz-adv-x="1467" 
d="M557 1092q-4 40 -36 54zM360 -67q-27 0 -71 6q11 91 34 159.5t79 128.5q24 32 29 79q2 14 5 27.5t6 27.5q7 47 30.5 93t93.5 77q5 5 17 102l3 24q-68 46 -160.5 172t-146.5 222q-49 89 -49 120v4q-10 11 -20 20q-56 49 -185 324q-18 46 -19 93l-6 56q55 11 91 11
q112 0 156 -94q32 -70 79.5 -120.5t128.5 -77.5q30 -9 53 -48q90 -143 141 -248q22 -55 29 -111q10 -69 30 -100l36 64q114 210 236 361q94 117 127 183q21 43 51 84q32 35 76 62q27 18 50 37l52 -34l-37 -75l163 49l-196 -161l96 -45l-157 -20l-2 -3l141 -60
q-48 -29 -69 -40q-48 -23 -76 -51q-75 -87 -187 -262l-1 -4q0 -11 13 -34l21 -52l-16 -7q-76 -35 -76 -133l2 -16q0 -1 -0.5 -6.5t-38 -37.5t-59.5 -65q-54 -87 -103 -174q-42 -72 -86 -145q-13 -18 -34 -29l-17 -38q0 -6 26 -20q15 -8 29.5 -19.5t14.5 -28.5q0 -20 -26 -41
l-186 -153l23 83q-13 -26 -24 -52q-26 -64 -114 -64z" />
    <glyph glyph-name="y" unicode="y" horiz-adv-x="1467" 
d="M557 1092q-4 40 -36 54zM360 -67q-27 0 -71 6q11 91 34 159.5t79 128.5q24 32 29 79q2 14 5 27.5t6 27.5q7 47 30.5 93t93.5 77q5 5 17 102l3 24q-68 46 -160.5 172t-146.5 222q-49 89 -49 120v4q-10 11 -20 20q-56 49 -185 324q-18 46 -19 93l-6 56q55 11 91 11
q112 0 156 -94q32 -70 79.5 -120.5t128.5 -77.5q30 -9 53 -48q90 -143 141 -248q22 -55 29 -111q10 -69 30 -100l36 64q114 210 236 361q94 117 127 183q21 43 51 84q32 35 76 62q27 18 50 37l52 -34l-37 -75l163 49l-196 -161l96 -45l-157 -20l-2 -3l141 -60
q-48 -29 -69 -40q-48 -23 -76 -51q-75 -87 -187 -262l-1 -4q0 -11 13 -34l21 -52l-16 -7q-76 -35 -76 -133l2 -16q0 -1 -0.5 -6.5t-38 -37.5t-59.5 -65q-54 -87 -103 -174q-42 -72 -86 -145q-13 -18 -34 -29l-17 -38q0 -6 26 -20q15 -8 29.5 -19.5t14.5 -28.5q0 -20 -26 -41
l-186 -153l23 83q-13 -26 -24 -52q-26 -64 -114 -64z" />
    <glyph glyph-name="Z" unicode="Z" 
d="M916 246q0 2 -2 2q0 -2 2 -2zM309 166q62 6 70 30q3 9 3 21q0 21 -9 51q-4 14 -7 29q-11 -17 -29 -34q-41 -37 -41 -63q0 -16 13 -34zM916 246q1 -24 4 -53l24 -1q49 0 92 -1l-2 24zM914 248l-1 10q0 20 20 20q10 0 25 -4q10 -3 18 -3q99 -8 189 -22q15 -12 29 -26
q35 -35 63 -43q30 -4 42.5 -16.5t21.5 -31.5t34 -60l11 -16l-27 -4q-19 -4 -33 -5q-89 -7 -124 -12q-30 -2 -43 -14q-37 -32 -77 -32q-28 0 -57 15q-103 -20 -113.5 -23t-20.5 -3l-10 1q-11 3 -11 27v4q-92 16 -184 29q-1 0 -1.5 -3.5t-0.5 -9t-1 -9.5l13 -3q14 -4 26 -4
q13 1 25 3q23 3 48 3h12q-30 -42 -74 -46l-22 -1q-32 0 -66 7l-18 1q-41 0 -79 -15q-71 -20 -166 -31l-24 -1l-28 1q-16 0 -36 -7q-14 -5 -25 -5q-7 0 -17 3.5t-17 44.5q-4 24 -24 24q-23 0 -35 -21q-40 -62 -86 -121l-21 5q2 18 2 35q0 49 -15 96q-7 21 -7 38q0 45 61 96
q40 32 60 76q25 57 67 103q67 81 128 234q23 54 47 105q4 7 26 14q10 2 19 6q-21 26 -21 41q0 6 7.5 15.5t44.5 9.5q26 0 49 -7q-23 16 -33.5 24t-11.5 10l-2 1q81 81 104 131q28 58 62 77q21 11 36 60q15 59 68 89q44 27 67 67q14 24 33 43l125 113q67 57 121 128
q-11 -3 -21 -7q-78 -24 -117 -25h-103q-89 0 -177 -2q-19 -3 -40 -22q-11 -9 -24 -17q-479 -51 -536 -56l-4 20l175 175l-167 38l1 27q62 20 137 20q41 0 80.5 -2.5t76.5 -2.5q86 0 285 29l114 15q3 1 6 5l16 15q22 18 498 32q34 -2 69 -17l32 -11l3 -26l-174 -77
q0 -38 -13 -65q-10 -23 -47 -23l-12 1q1 -3 2 -8t4 -12l117 -45l-34 -43q-138 -157 -245 -355q-51 -101 -115 -193q-114 -161 -216 -329q-80 -132 -166 -260l18 -22l32 2q69 0 118 17q31 11 63 14l83 1q59 0 109 -2zM1288 1435l-59 31l26 23q58 56 100 56q22 0 46 -11z" />
    <glyph glyph-name="z" unicode="z" 
d="M916 246q0 2 -2 2q0 -2 2 -2zM309 166q62 6 70 30q3 9 3 21q0 21 -9 51q-4 14 -7 29q-11 -17 -29 -34q-41 -37 -41 -63q0 -16 13 -34zM916 246q1 -24 4 -53l24 -1q49 0 92 -1l-2 24zM914 248l-1 10q0 20 20 20q10 0 25 -4q10 -3 18 -3q99 -8 189 -22q15 -12 29 -26
q35 -35 63 -43q30 -4 42.5 -16.5t21.5 -31.5t34 -60l11 -16l-27 -4q-19 -4 -33 -5q-89 -7 -124 -12q-30 -2 -43 -14q-37 -32 -77 -32q-28 0 -57 15q-103 -20 -113.5 -23t-20.5 -3l-10 1q-11 3 -11 27v4q-92 16 -184 29q-1 0 -1.5 -3.5t-0.5 -9t-1 -9.5l13 -3q14 -4 26 -4
q13 1 25 3q23 3 48 3h12q-30 -42 -74 -46l-22 -1q-32 0 -66 7l-18 1q-41 0 -79 -15q-71 -20 -166 -31l-24 -1l-28 1q-16 0 -36 -7q-14 -5 -25 -5q-7 0 -17 3.5t-17 44.5q-4 24 -24 24q-23 0 -35 -21q-40 -62 -86 -121l-21 5q2 18 2 35q0 49 -15 96q-7 21 -7 38q0 45 61 96
q40 32 60 76q25 57 67 103q67 81 128 234q23 54 47 105q4 7 26 14q10 2 19 6q-21 26 -21 41q0 6 7.5 15.5t44.5 9.5q26 0 49 -7q-23 16 -33.5 24t-11.5 10l-2 1q81 81 104 131q28 58 62 77q21 11 36 60q15 59 68 89q44 27 67 67q14 24 33 43l125 113q67 57 121 128
q-11 -3 -21 -7q-78 -24 -117 -25h-103q-89 0 -177 -2q-19 -3 -40 -22q-11 -9 -24 -17q-479 -51 -536 -56l-4 20l175 175l-167 38l1 27q62 20 137 20q41 0 80.5 -2.5t76.5 -2.5q86 0 285 29l114 15q3 1 6 5l16 15q22 18 498 32q34 -2 69 -17l32 -11l3 -26l-174 -77
q0 -38 -13 -65q-10 -23 -47 -23l-12 1q1 -3 2 -8t4 -12l117 -45l-34 -43q-138 -157 -245 -355q-51 -101 -115 -193q-114 -161 -216 -329q-80 -132 -166 -260l18 -22l32 2q69 0 118 17q31 11 63 14l83 1q59 0 109 -2zM1288 1435l-59 31l26 23q58 56 100 56q22 0 46 -11z" />
    <glyph glyph-name="one" unicode="1" horiz-adv-x="742" 
d="M576 -85l-30 1l-24 56q-44 88 -51 131q-4 18 -13 47q-3 7 -5 17l-3 13q-11 35 -13 68t-10 65q-2 8 -2 18l1 6q0 10 -4 15q-19 25 -23 53q-3 22 -3 45v12q0 29 -4 56t-4 54l2 48q0 19 -2 38q0 6 3 18q4 21 4 28q0 5 -1 6.5t-1 2t-1 1.5q3 21 5 65q11 235 16 263
q-3 -1 -31 -99t-30 -99q-5 -29 -24 -57q-23 -39 -23 -61q0 -19 15 -40v-1q0 -1 1 -1q-6 -5 -9 -16l-3 -10q-6 -13 -9 -25q-5 -18 -14 -32t-33 -18q-6 -1 -17 -25q-12 -41 -52 -68l7 18q14 32 14 49q0 5 -3 14q-5 14 -14 14q-15 0 -89 -49q-17 14 -19 17l105 376l14 15
q20 18 30 41q21 62 39 126q33 116 61 183q15 34 28 69q4 16 4.5 35t7.5 37q22 46 46 90q43 75 57 119l15 41l3 6q14 35 33 35q10 0 26 -12q6 21 10 41q4 0 7 1h11l5 -46q0 -19 -9 -59q-8 -33 -8 -66q0 -37 28 -80l21 -40q-32 -240 -32 -489v-154q1 -100 21 -537q7 -32 7 -52
q-1 -21 -4.5 -41t-3.5 -49q0 -30 12 -81v-3q0 -7 -3 -22t-8.5 -32.5t-9.5 -27.5q-7 -21 -12 -43z" />
    <glyph glyph-name="two" unicode="2" horiz-adv-x="1180" 
d="M1044 941l4 25l-32 4l-24 79q-11 -26 -15 -32q-14 -20 -14 -36q0 -15 23 -26q8 -3 58 -14zM997 1427l12 22q9 19 19 24q25 9 25 20q0 15 -104 94l-21 16l-15 -16q41 -80 84 -160zM15 -88q-5 35 -5 40l2 31q2 21 2 42v4q0 40 18 70t59 35q50 0 70 56q22 54 62 98
q33 41 85 118q107 160 240 302q97 107 186 222t152 248q27 55 64 101q26 34 26 61q0 5 -3 22.5t-40 49.5q-57 54 -129 87q-59 27 -124 27l-33 -1q-26 0 -53 8l-29 6l-4 4q-11 -1 -21 -3q-14 -3 -28 -3l-16 1q-19 4 -37 4q-59 0 -101 -44q-54 -54 -54 -138v-6
q11 -183 12 -231q-21 61 -45 121l-133 2l-9 141l-41 -45q-11 11 -11 15l9 29q8 37 31 64l24 23q58 58 122 108t137 67q28 7 55 27q19 13 40 23l35 -1l94 1q177 0 364 -81q59 -27 83 -87q16 -39 16 -80q0 -21 -29 -171q0 -5 -1 -9l24 -11q44 -16 76 -49q13 -15 13 -28
q0 -20 -33.5 -45.5t-39.5 -46.5l-25 47q-2 -12 -5 -23q-6 -20 -6 -37t14 -48l11 -25q1 -1 51 -11l-43 -32q-58 -36 -101 -88q-55 -75 -144 -88q-6 0 -13 -17q-4 -10 -9 -16q-82 -97 -131 -157q-92 -109 -186 -215q-8 -8 -32 -8q-11 -1 -21 -3l29 -34l-78 -105q7 -4 13 -9
q34 -27 129 -38q20 0 38.5 5.5t37.5 5.5q166 -15 326 -72q22 -6 45 -6h25q13 0 25 -1q16 -3 67 -22l-57 -10l-16 -3l10 -28q10 -27 10 -37q0 -5 -2 -7q-50 -63 -90 -68h-33q-87 0 -185 13q-126 15 -220 15q-92 0 -216 -11q-90 -7 -104 -7q-8 0 -16.5 1.5t-18.5 1.5
q-13 0 -27 -3q-14 21 -39 55q-37 -49 -57 -71q-7 -7 -38 -22z" />
    <glyph glyph-name="three" unicode="3" horiz-adv-x="1179" 
d="M366 1508q34 0 82 20l-144 4q26 -24 62 -24zM724 1175l12 5q19 4 31.5 14.5t22.5 28.5l7 11l-5 4l-75 -39zM461 -85q-20 0 -92 9q-46 1 -85 18q-66 36 -94.5 99t-74.5 83q-4 1 -4 5q-6 79 -25 147q-14 45 -48 131q19 7 37 15l4 1l11 -10q38 -30 71 -65q36 -40 47 -95
q9 -33 14 -33q6 0 23 14l10 8q40 37 66 37q6 0 21 -5q-11 -9 -25 -26q26 10 41 10q9 0 14 -1q1 -5 1 -15l16 1q4 0 28 -4q-8 -40 -15 -61l3 -4l6 12q5 19 15 19q12 0 23 -31q5 1 11 1q47 0 113 -52l2 -1l96 39l-34 70l24 10l26 -53q39 2 82 10l-6 6q12 16 22 37q16 36 39 55
q52 33 78.5 71t45.5 94l5 14l9 26q-21 10 -21 28q0 9 15 31l8 11q-23 46 -36 85l33 -13q1 0 1 -1l21 -8l-1 3q0 8 -2 12q-74 30 -140 69q-169 98 -272 98q-49 0 -104 -42q-8 -6 -17 -11l41 -23l-52 16l-16 4l4 2l-38 21l30 -9l-8 11q-20 28 -37 28q-21 0 -74 -45
q-34 -29 -41 -72l2 -28q-7 1 -25 1l-3 9q-4 12 -4 25q1 6 2.5 12.5t1.5 15.5q0 15 -15 31q-4 5 -4 14q0 34 16 56q50 60 101 119q64 75 125 150q59 71 175 153q35 25 68 51q16 14 31 34q22 33 128 114q1 0 1 1l19 14q-78 5 -158 8q-3 0 -8 -2.5t-14 -2.5q-21 5 -31 5
q-9 0 -14 -6t-14 -26l34 -33l-18 -21l-58 61q-24 -30 -58 -39t-71 -10q-33 -1 -64 -7.5t-55 -28.5l-17 -17l20 58l-27 -1l1 -9q0 -35 -49 -35q-19 0 -38 4l-44 11q30 26 30 51q0 40 -38 65q-47 31 -89 73l-22 21l7 29l44 2q217 6 234.5 12.5t64.5 8.5q107 8 209 19
q15 2 31 2q46 0 89 -10q18 -4 31 -4q27 0 58 10.5t53 10.5q47 0 95 -39l3 -2l-5 -24q-10 0 -82 -11l-2 -7l166 -70q-26 -31 -50 -67.5t-53 -70t-70 -52.5l14 -35q11 9 23 21q19 19 40.5 34.5t49.5 15.5q12 0 25 -3l-373 -381q14 -6 29 -11l106 -43q120 -49 177 -140
q33 -50 58 -63q44 -23 65.5 -65t32.5 -90v-5q0 -9 -5 -21l-8 -32l-59 118q5 -94 5 -190l-2 -1q-16 -17 -21.5 -39t-8.5 -46q-2 -30 -11 -58t-49 -53l17 48q19 39 19 79l-1 15q-31 -75 -76 -129.5t-99 -106.5q44 26 61 37l2 1l3 -1q12 -3 23 -7l-14 -22q-10 -24 -30 -41
q-112 -84 -272 -154q-11 -3 -22 -3h-29l-9 22l33 22q-18 7 -32 7q-26 0 -41 -24q4 -10 31 -37l6 -7q-12 -3 -39 -12t-54 -9z" />
    <glyph glyph-name="four" unicode="4" horiz-adv-x="1180" 
d="M734 -130l-55 103q0 8 24 104l6 -2v182q2 22 2 44q0 36 -21 36q-156 6 -182 6q-122 0 -256 -30q-77 -14 -81 -14q-24 0 -39 24q-3 6 -26 9q-15 3 -29 7l9 10q9 12 15 12q44 3 55.5 25.5t12.5 54.5q8 71 51 176v2l9 24q13 36 28 70q42 102 42 133q0 17 -6 33.5t-6 31.5
q0 26 22 62q8 13 14 26q100 248 206 483q35 77 107 163q6 8 22 8q15 0 33 -4l21 -3l60 122l57 -40l-85 -145q25 -33 25 -66q0 -5 -2.5 -25t-42.5 -77q-45 -64 -72 -157q-19 -53 -56 -99q-33 -45 -33 -54t-28 -67q-42 -89 -49 -119q-8 -42 -56 -109l-16 -25q9 -2 17 -2
q35 0 48.5 23.5t21.5 56.5q7 27 19 51l5 -10q20 -35 20 -61q0 -32 -30 -63q-23 -28 -40 -59l-22 -35l-30 55l-5 -1l12 -91l-121 -204l11 -2q15 -4 28 -4q19 0 103 14q113 18 208 26l75 8q54 4 54 59q3 42 14 83q8 34 12 68q11 63 44 114q24 40 38 85q14 71 43 151
q11 24 56 89l2 4l30 -9l-10 -104q48 -4 48 -35q0 -17 -15 -43q-33 -63 -39 -129q-3 -42 -3 -83l1 -50l1 -61l-7 -145l93 -5q-14 -18 -41 -45q-41 -39 -63 -83q-20 -51 -25 -112q-3 -27 -8 -55l-1 -8l-60 42v-42l1 -37q0 -92 -43 -211q-3 -7 -12 -15q-20 -18 -37 -18
q-3 0 -6 2q-9 6 -17 6q-11 0 -25 -14q-11 -10 -25 -16z" />
    <glyph glyph-name="five" unicode="5" horiz-adv-x="1179" 
d="M473 6q76 2 152 15l44 6q-7 12 -18 12q-17 0 -48 -10q-36 -10 -55 -10q-25 0 -45 13q-13 -17 -42 -17l-15 1q-32 5 -49 14t-62 16l3 -2q40 -11 58 -21q31 -16 77 -17zM380 1069l-4 5l-1 -4zM436 1003l-4 4l-16 -2zM655 253l-12 4q-61 12 -65 79v19q0 46 8 84l1 10l6 30
l27 -15q42 -28 45 -81l1 -28q0 -45 -9 -89q0 -6 -2 -13zM439 -120h-14q-91 5 -157 17q-41 6 -102 13q-33 4 -58.5 23t-26.5 55q-10 5 -20 14q-9 11 -68 103l120 -30l-58 144q77 69 153 139v-140q0 -92 65 -95q17 0 25 -23q7 2 14 2q34 5 91 5q4 -2 5.5 -2.5t5 -1.5t23.5 -1
q12 -2 34 -2l5 51l28 -49q5 2 11 2q32 8 66 13q28 5 28 10q1 1 1 4q0 11 -10 31l-7 19q14 0 36 -2h6q10 0 17 -4l50 -32q52 43 68 81q34 81 60 164l3 8l21 64q-24 19 -24 55q0 22 7 49q1 1 1.5 4t1.5 6q2 9 2 18q0 34 -36 81l-12 17q-128 181 -378 219q-7 1 -16 1l9 -44
l3.5 -14t2.5 -14l-50 14q-11 0 -33 13q-2 -15 -3 -31q0 -24 -2 -43q-2 -12 -10 -23q-13 -17 -28 -17q-16 0 -38 17.5t-31 33.5q-11 24 -15.5 45.5t-25.5 63.5q-7 10 -18 36l-1 3q-12 24 -14 48q3 88 46 214l6 19q7 23 16 45l1 3q13 32 19 62q-1 4 -6 10q-12 12 -24.5 30
t-24.5 34l50 -6q-1 1 -1 3h-1q-17 23 -17 36q0 10 6 18q13 17 19 44q0 2 1 3q4 17 12 34l2 5l11 3q53 15 80 85q19 44 51 70.5t76 44.5q20 6 35 11.5t35 11.5l-8 -24q-11 -28 -11 -43q0 -19 10 -27q21 -15 87 -15q93 0 305 25q14 1 27 3l1 1q22 3 47 5q23 0 37 -2l39 -3
q0 -14 3 -39q3 -13 5 -41q0 -10 -1 -15l69 -30l-14 -10q-18 -15 -24 -21q-5 -6 -11 -11t-36 -8l-23 -3q-204 -28 -410 -41q-37 -2 -54.5 -11.5t-25.5 -34.5q-52 -144 -129 -275l-2 -5q-24 -38 -42 -77l37 -9q22 -7 77 -19l82 -16q-5 0 -13 -2l6 -2q109 -25 213 -65
q44 -24 63 -61h1q26 -39 88 -101q44 -44 82 -92q74 -93 74 -188l2 -25l3 -22l-22 -3q-43 -9 -60 -51q-5 -14 -5 -28l1 -13q7 8 33 45l51 -24q-11 -20 -23 -52v-1q-14 -36 -33 -70q-62 -104 -125 -206l-33 -54q-10 -17 -25 -29q-72 -50 -115 -70q-56 -26 -118 -26l-18 1
q-38 0 -78.5 -6.5t-82.5 -6.5z" />
    <glyph glyph-name="six" unicode="6" horiz-adv-x="1179" 
d="M275 695l117 91q-14 4 -27 4q-38 0 -64 -27.5t-26 -67.5zM997 743l8 3v95l67 22q-34 57 -106.5 93.5t-149.5 36.5q-55 0 -94 -21h22q32 0 61 -7l23 -5q27 -5 52 -17t39 -46q25 -57 55 -111q12 -21 23 -43zM600 31q44 0 104 42q71 45 104 81l10 11l-5 7q-151 -24 -241 -24
q-66 0 -154 16q88 14 174 24l167 22q30 2 59 11q51 15 61 76q8 32 35 85q48 89 48 148q0 36 -16 76q-9 23 -16 47q-11 48 -36 77q-109 108 -233 108q-29 0 -58 -5q-168 -30 -293 -201l-83 -113l54 -105l-1 -2q-8 -23 -19 -33q36 -12 38 -24q0 -27 -9 -53l-4 -14q44 0 47 -13
q11 -62 47 -100.5t82 -71.5l30 -23q61 -49 106 -49h2zM408 -24l8 1l5 9l-93 62q28 -72 80 -72zM247 330l-10 48q-10 4 -20 11q-16 11 -33 15zM627 -104l-6 2q-25 7 -49 16t-48 16t-57 7q-23 -2 -43 -2q-89 0 -128.5 44t-76.5 135q-27 56 -64 110q-28 42 -34 55l1 8
q4 15 4 22q0 19 -22 36q-7 6 -13 13q-1 1 -1.5 3t-9.5 47q-25 130 -25 154q0 10 10 25.5t10 35.5q0 12 -4 26l-36 -1l18 49q34 83 34 118q0 18 -4 37q-6 26 -6 67q0 83 54 212l22 57q32 84 86 148.5t113 121.5q48 47 92 97q118 136 272 195q57 18 118 21l58 7l7 -31l-50 -27
l53 -30l-104 -118h-2l-216 -93l2 -17q0 -3 -3 -4q-39 -50 -56 -73l-40 -53q-52 -66 -96 -139q-44 -80 -75 -167l-1 -2q-5 -15 -12 -30t-7 -23q0 -10 13 -10q9 0 16 2l-2 -22t-3 -20q-4 -17 -24 -20q-9 -2 -28 -2l-11 -121l27 22q38 28 60 58q27 47 50 70.5t67 23.5
q8 0 15.5 -1t12.5 -1q47 4 96 26q110 45 223 45q102 0 202 -37q40 -16 87 -78q18 -24 39 -44l-14 -20q-15 4 -29 9l3 -54q1 -76 22 -144q14 -36 14 -73q0 -27 -8 -55q-16 -58 -33 -114q-27 -88 -50 -178q-14 -55 -46 -94.5t-69 -73.5l-25 -24l-79 -79l-29 10l-21 -44
q-14 -7 -24 -7q-23 0 -46 14q-22 11 -38 11q-25 0 -33 -50z" />
    <glyph glyph-name="seven" unicode="7" horiz-adv-x="1179" 
d="M330 -130l-20 6q-36 5 -59 12q-33 9 -33 65q0 33 13 64q28 75 45 152q14 64 35 128q19 48 48 89q28 44 85 164l30 62l-46 40l-15 -11q-31 -22 -54 -43q-37 -42 -72 -42q-27 0 -53 24l-9 7l3 41l22 -7l4 4l-17 23l42 18l-60 23l43 29h1q54 96 145 96q21 0 43 -5l13 17
q14 19 31 38q26 -4 31 -4q36 1 62 31t52 74q137 219 274 424q15 22 94 128l-25 -1q-87 -1 -248 -7q-149 -6 -426 -10l-200 -4l-4 -2q-7 -4 -18 -4q-14 0 -50 22l-47 25l45 31q41 27 45 28l-19 61q29 2 88 10q95 13 174 13q68 0 135 -4q72 -2 78 -3t13 -1q4 0 7 1.5t7 13.5
q7 28 61 31q249 10 290 14q26 3 53 3q32 0 52 -4q35 -8 35 -49q0 -9 -2 -20l133 -47q-55 -115 -68 -149v-4l5 -43l-4 -7q-160 -241 -314 -476l2 -1q37 -22 56 -22q9 0 17 3q162 45 167 50l72 21q16 -36 16 -55q0 -26 -16 -53q-40 -60 -114 -66q-13 -1 -30 -1q-40 0 -65 -6
t-42.5 -30t-160.5 -48q-7 -16 -15 -31q-46 -86 -46 -107t-10 -41q-77 -116 -125 -207q-53 -99 -69 -212q-3 -38 -17.5 -81t-61.5 -74q-5 -3 -14 -41q-5 -27 -18 -63z" />
    <glyph glyph-name="eight" unicode="8" horiz-adv-x="1190" 
d="M1006 747l-59 5l60 -122l14 6zM479 33q129 0 255 35q87 24 123 56.5t40 89.5q20 42 30 60q-7 9 -14.5 17.5t-13 16t-5.5 14.5q2 36 7 73q7 41 7 86q0 183 -132 325q-37 40 -85 88h-14q-38 0 -86.5 -14.5t-69 -41.5t-39.5 -54q-91 -120 -163 -264l-33 -63q-12 26 -27 55
l-1 2q-2 -78 -54 -149q-45 -70 -45 -150q0 -45 14 -93q12 -42 34 -60q19 -14 53 -14l30 2q17 0 33 -4q79 -13 156 -13zM484 1043l35 12q41 11 72 32q41 34 78 72q42 45 92 83q121 84 121 184q0 55 -36 121q-29 55 -83 55q-22 0 -243 -32q-61 -61 -103 -124q-40 -59 -40 -129
q0 -79 20 -151q19 -69 87 -123zM1006 747l-1 1q2 12 2 22q0 19 -11 37.5t-33.5 39.5t-40.5 47l19 -93zM317 -198q-18 38 -54.5 60.5t-81.5 40.5q-40 17 -62 51q-71 116 -75 250q-1 25 -3 49q-4 36 -4 71l2 46q3 42 55 133q59 94 64 155q4 35 22.5 51t41.5 26q28 11 47 31
q43 53 95 99q93 88 93 109q0 22 -51 23q-13 0 -24.5 9.5t-23.5 21.5q-15 16 -32 28q-88 58 -137 185l-1 4q0 5 3.5 12.5t10.5 19t15 25.5l-15 47l43 2l-18 41l-3 6l59 23l-29 16q16 28 31 44q4 3 18 5l10 1q8 2 42 52q29 46 69 82l6 6q93 83 172 83l26 -1q21 -2 42 -2l32 1
l18 1q129 0 179 -111q32 -63 84 -113q8 -7 15 -15l-8 -17l-25 -62q-9 -29 -25 -55q-20 -34 -25 -68q-21 -104 -123 -136q-21 -8 -34 -34q-20 -41 -20 -54q0 -6 7 -14q18 -20 44 -32q174 -70 248 -195q38 -72 62 -150l24 -68q-66 -43 -66 -94q0 -19 7 -40t7 -43q0 -20 -4 -40
t-5 -39q31 -17 31 -49q0 -2 -0.5 -20t-41.5 -55l17 58l-13 67q-30 -4 -38.5 -20.5t-10.5 -36.5q-1 -11 -3 -20l-27 -103q-14 -59 -30 -117q-5 -11 -25 -26q-17 -12 -27 -24l-33 -32q-23 -26 -51 -37q-203 -54 -493 -112z" />
    <glyph glyph-name="nine" unicode="9" horiz-adv-x="1178" 
d="M906 1366l1 10q-22 44 -103 89t-138 45q-15 0 -25.5 -5t-25.5 -34l-4 -9l11 2q25 6 37 6q30 0 157 -63zM1047 870l34 87l-17 7l-29 -89zM438 719q58 0 114 30l-99 6l3 30l3 1q24 15 46 15q37 0 67 -41q16 9 33 16q44 17 73 46l42 49q55 60 102 128t67 156q3 12 8 19
q46 55 46 89q0 42 -79 75q-197 82 -263 108l-15 2q-25 0 -44.5 -12.5t-38.5 -29.5q-32 -31 -83 -46l42 53l-47 47l153 41l-4 19l-257 -40l2 -33l-6 1q-33 0 -46 -18.5t-20 -46.5t-23 -51l65 -18v-21l-73 -17l-2 -1l1 -4l62 -24l-37 -19l-24 -206l88 -74l-4 -17l-82 24
l-7 -67l249 -113l-7 -25l-129 20q47 -51 124 -51zM496 622q29 0 60 5l1 1v44l-139 -13l-2 -13q31 -24 80 -24zM167 788q-3 25 -34 54q-19 14 -33 36l-1 -10q0 -20 10.5 -32.5t27.5 -23t30 -24.5zM158 -174q-34 0 -69.5 14t-54.5 44q-4 9 -4 21l1 29l17 -4v-1q7 -2 13 -2
l17 1q50 0 71 32q8 9 15.5 16.5t17.5 7.5t17.5 7t15.5 16q20 28 41 28q9 0 19 -5l6 10q9 18 23 40q16 28 66 85q51 55 88 121q29 49 68 78q48 40 150 186q1 0 1 1q61 86 104 137l19 24l15 83q-53 -7 -90.5 -42.5t-71 -82t-75.5 -87.5l-3 7q-7 10 -13 22l-9 -9
q-8 -10 -17 -18q-21 -17 -136 -17q-24 0 -47 1q-8 0 -21 21q-7 14 -18 28h50l-1 4l-1 8l-76 25q-73 24 -145 53q-47 19 -82 79q-64 111 -64 232q0 59 19 140q12 53 17 107q12 132 73 217t147 129q107 54 205 54q15 0 85 -5l-12 22q26 3 53 3q79 0 126 -52q10 -11 36 -15
q153 -18 243 -171q26 -42 58 -79q22 -27 44 -57q23 -40 28 -91q1 -22 7 -39.5t28 -29.5q20 -14 28 -73l2 -15q0 -11 -9 -20q-10 -13 -20 -13h-1q-11 2 -22 9l-15 8q23 -38 33 -65q9 -23 9 -44q0 -25 -90 -155l-32 -49v-1q-1 -1 -2 -3t-3 -3q-53 -30 -85.5 -80t-56.5 -105
q-32 -76 -83 -139q-5 -6 -10 -14q-11 -17 -25 -26h-1l-14 -10l-15 30l-89 -181l-39 16l-14 -23q-19 -26 -27 -53q-17 -57 -71.5 -111.5t-106.5 -65.5q-16 -4 -42 -41q-6 -10 -8 -10q-17 -11 -35 -20q-39 -22 -75 -48q-30 -21 -75 -21z" />
    <glyph glyph-name="zero" unicode="0" horiz-adv-x="1185" 
d="M235 392l48 112q-12 2 -25 2q-22 0 -29 -9t-7 -29q0 -27 13 -76zM1045 1272q-5 47 -28.5 82t-54.5 64q7 -99 83 -146zM646 87q34 12 73 35q23 13 31 57q5 30 16 41q36 32 59.5 71t43 80t43.5 81q-32 30 -32 47q0 20 47 45q25 16 25 23q9 50 9 104q0 6 -14 33l-10 -3v-139
q-62 50 -62 110q0 14 3 28q1 8 1 17v20q0 20 7 29q2 4 2 9q0 11 -1 20.5t-1 19.5q0 26 30 26l16 -1l-38 31l15 35l15 36q-19 13 -19 28q0 16 6.5 28t6.5 22q-2 48 -10 76q-4 12 -4 24l1 11q13 39 13 63q0 13 -7 29.5t-62 41.5q-7 3 -12 20q-1 9 -8 25l58 -22l1 12l-1 6
q-8 48 -33.5 85.5t-57 71t-57.5 71.5l-3 1q-22 0 -25 5q-12 30 -44 49t-71 19q-44 0 -74 -26q-47 -41 -73 -95t-45 -111l-23 -61q-24 -66 -37 -137q-18 -101 -46 -158q-19 -34 -23 -75q-4 -58 -18 -114q-14 -67 -31 -207q0 -1 -1 -1l-8 -68l70 -44l5 13v-16l12 -7l-12 1v-38
l1 -28q0 -21 -2 -42l-1 -23q0 -98 69 -175q83 -89 202 -92q34 0 52 6q23 -23 33 -23zM581 -77q90 1 142 81q-69 -15 -108 -27q-48 -15 -90 -46q29 -8 56 -8zM556 27l2 17l-152 12l-1 -11zM284 190l-46 141l-1 -23q0 -31 12 -65t35 -53zM593 -128q-48 0 -82 62q-30 20 -96 51
q-144 67 -169 102q-34 47 -81 141l-27 53l24 29l-44 2l-13 69q-17 76 -21 154q3 50 23 99q10 26 17 53l11 39q18 50 18 98v9q-3 22 -3 44q0 77 35 162l1 4q0 6 -8 24q-6 13 -10 28l39 -9q0 3 -1 4q-7 25 -7 48q0 5 0.5 21.5t34.5 38.5q13 9 13 38v17q0 110 78 258
q30 60 57 122q14 36 33 58t51 22q20 0 48 -10q14 -5 26 -5q21 0 52 21q26 17 58 25l-49 -62q140 -5 182 -8q53 -3 82.5 -27.5t48.5 -81.5q26 -77 45 -124h8q57 0 75 -56q6 -19 17 -39q22 -38 22 -67q0 -25 -19 -52q0 -3 5 -11t7.5 -18.5t7.5 -23.5q10 -25 10 -39
q0 -32 -43 -46q3 -21 9 -47v-1q7 -36 15 -47q12 -17 12 -27q0 -20 -28 -33l24 -11q0 -21 1 -40.5t1 -39.5l-1 -38v-67q0 -71 -6 -144q-4 -24 -16 -45q-9 -15 -13 -29l-2 -41q0 -34 -9 -68q-23 -72 -94 -268q-7 -19 -25 -36t-37 -35v-1q-66 -65 -138 -126q-57 -43 -112 -65
q-19 -8 -37 -8z" />
    <glyph glyph-name="period" unicode="." horiz-adv-x="567" 
d="M251 -65q-97 0 -138 49q-13 17 -13 36q0 15 7.5 31.5t15.5 34.5q24 56 60.5 106t110.5 78q36 13 66 13q29 0 64.5 -18.5t42.5 -106.5l-14 -27q-61 -115 -72 -127l-11 -16q-38 -53 -119 -53zM283 68l89 120q-58 -11 -78 -38q-14 -18 -14 -49q0 -15 3 -33z" />
    <glyph glyph-name="colon" unicode=":" horiz-adv-x="567" 
d="M227 -41h-4q-39 0 -69 35q-31 39 -61 84q8 28 16 52q17 47 20 89q3 32 20 44.5t39 18.5t39 19q27 22 85 22q67 0 91 -24q37 -39 37 -86q0 -6 -3 -36t-49 -75q-51 -46 -91 -101q-29 -39 -70 -42zM324 889h-13q-48 0 -95 29t-69 85q-9 23 -9 49q0 37 18 78t58 76t90 47
q13 3 27 3q72 0 112 -76l21 -32q20 -24 21 -46q0 -22 -24 -49q-17 -21 -24.5 -50t-22.5 -50q-25 -27 -61 -46zM341 1003l83 97q-23 1 -42.5 3t-32.5 3q-13 0 -17 -5q-13 -28 -13 -64l-2 -27z" />
    <glyph glyph-name="comma" unicode="," horiz-adv-x="567" 
d="M134 -361q-54 0 -54 29q0 19 17 52t85 149q21 -6 41 -6q8 0 24.5 2t17.5 42q-27 3 -62 4l21 45q-108 34 -108 108q0 20 8 42q11 43 32 83q19 36 64 65q45 26 89 26q16 0 54.5 -8.5t56.5 -57.5q26 -73 27 -146q0 -74 -63 -148q-32 -36 -32 -97l1 -21q0 -21 -12 -34
q-21 -22 -144 -64l-53 -19l11 -45zM236 109q56 24 56 57q0 17 -16 37q-35 -9 -45.5 -20.5t-10.5 -23.5q0 -13 16 -50z" />
    <glyph glyph-name="semicolon" unicode=";" horiz-adv-x="567" 
d="M276 1057q10 1 19 4q18 6 25 74l4 26l-21 4l-25 -46l-15 43l-61 -53l17 -17q18 -20 39 -32q7 -3 18 -3zM266 18l16 6l5 21q7 25 8 49q0 10 -6 21q-12 18 -27 18q-16 0 -23 -7q-5 -8 -5 -25q0 -18 23 -63zM253 923h-2q-21 0 -46 17q-21 13 -47 20q-42 12 -60 35
q-8 12 -8 21v2q15 68 35 135l9 34q2 5 7 11t5 12q-7 23 -7 34q0 3 1 10t15 7q8 0 16.5 -1.5t16.5 -1.5q7 0 20 17l15 16q15 15 61 15q28 0 55 -15t57 -74q11 -19 25 -35l13 -16q-10 -6 -24 -13.5t-35 -20.5q39 0 65 -2q-19 -61 -47.5 -112.5t-91.5 -80.5q-26 -12 -48 -14z
M201 -388q-3 24 -3 46q0 66 35 160q12 37 22 73l-37 25q-41 27 -76 59q-24 26 -24 53q0 31 26 79q6 9 19 40q25 60 50 75q40 19 103 19q23 0 46 -2q52 -8 96 -43q21 -17 21 -58v-7t-6 -10t-15 -13.5t-18 -16.5q15 -1 29.5 -1.5t39.5 -2.5q-26 -18 -47 -32t-44 -31v-3
q0 -18 6 -33l1 -2q11 -29 11 -39q0 -14 -37 -33q-15 -8 -18 -35q-24 -167 -142 -252q-8 -5 -21 -9z" />
    <glyph glyph-name="quotesingle" unicode="'" horiz-adv-x="567" 
d="M247 1191q-36 0 -55.5 16.5t-19.5 43.5q0 12 4 26q31 125 31 252q0 51 -5 102v7q0 28 14 58q8 15 60 102q2 4 14.5 5.5t25.5 1.5q13 -1 19 -5q42 -35 46 -68q6 -95 6 -191q0 -109 5 -166l3 -56q0 -43 -34 -79q-46 -49 -114 -49z" />
    <glyph glyph-name="quotedbl" unicode="&#x22;" horiz-adv-x="975" 
d="M339 1061l-23 37q-22 35 -38 66q-9 15 -32 23q-26 6 -54 48q-16 24 -16 46q0 36 22 129q22 88 22 174v21q0 31 17.5 43t41.5 17q18 4 32 11t17 25q0 3 10 8q4 1 78 43q9 -53 9 -63l-1 -16q-21 -117 -21 -235q0 -52 4 -103v-27q0 -88 -17 -177q-3 -16 -5.5 -29.5
t-28.5 -29.5zM579 1123q0 39 -7 256q0 12 5 17q25 21 25 61q0 11 -2 23.5t-2 25.5q0 9 2 24.5t23 32.5q-14 24 -14 47q0 29 17 67q15 33 16 66t16 53.5t43.5 39.5t51.5 19q1 0 13.5 -0.5t32.5 -15.5l-6 -47q-13 -76 -13 -231v-134q0 -121 -18 -149q-29 -45 -113 -109
q-12 -12 -44 -30z" />
    <glyph glyph-name="parenleft" unicode="(" horiz-adv-x="801" 
d="M700 -320q-20 0 -52 15.5t-53 15.5q-18 0 -36 -10q-6 -3 -13 -3q-45 0 -128 92q-32 34 -44 55q-26 46 -62 87q-35 43 -38 52t-3 21v9q-37 25 -47 59.5t-11 69.5q-1 31 -7 57q-27 108 -39 218l-2 13q0 22 15 45l10 17q-19 21 -19 47q0 27 8 61.5t21 188.5q7 113 22 227
q15 80 48 154q76 203 108 275q72 157 217 224q12 6 31 6q13 0 26 -2t47 -2l-55 -75q-63 -88 -120 -170v-9q0 -19 -8 -27l-18 -40q-50 -102 -111 -298l-13 -39q-24 -54 -25 -105q0 -67 -14 -130q-14 -70 -14 -110q0 -61 41 -141q9 -18 30 -67l-48 24l13 -96q7 -65 17.5 -126
t34.5 -116q16 -39 28 -81q15 -52 37 -97.5t75 -85.5q9 -43 31.5 -61.5t54.5 -31.5t60.5 -33.5t42.5 -60.5l5 -15z" />
    <glyph glyph-name="exclam" unicode="!" horiz-adv-x="567" 
d="M167 -3l168 26l-47 31l19 11l-35 55zM171 -141q-48 4 -48 54l1 16q0 5 -8.5 10.5t-21.5 13t-25 15.5q5 11 25 72l22 8l6 3q-27 14 -45 22v12q0 61 37.5 91t93.5 50q32 13 62 28q69 -25 145 -59q13 -8 23.5 -23.5t10.5 -29.5q-2 -33 -15 -66l-8 -27l-15 1q-2 47 -5 93
l-16 1q-2 -6 -20 -118h44q-5 -7 -8 -14q-8 -14 -16 -22l-25 -22q-47 -44 -100 -81q-43 -28 -94 -28zM263 489l-24 82l-47 -58l-58 331l-7 29q-5 21 -22 145q-22 150 -31 300l-5 74q0 39 10 78l48 150l79 45l26 -20q84 54 102 67q-52 -58 -52 -91q0 -20 19 -35l24 29
q56 72 60 74q16 19 16 29q0 12 -20 23q31 -16 36 -40q3 -14 3 -29q0 -12 -2 -24q-3 -6 -3 -53l1 -35v-47l79 116q35 -63 35 -126q0 -47 -13 -96q-69 -284 -128 -570q-24 -103 -24 -208l1 -42q0 -28 -16 -43t-41 -25.5t-46 -29.5z" />
    <glyph glyph-name="question" unicode="?" horiz-adv-x="1220" 
d="M377 7q14 13 23 33q15 36 37 36q15 0 39 -16q-5 24 -10 43l-21 1q-71 0 -71 -66q0 -14 3 -31zM180 1331q5 7 13 14.5t14 15.5t6 15q-2 30 -13 60l-7 25l-19 4l-18 -127zM527 -157q-17 0 -37 22q-5 4 -17 4l-40 -1q-46 0 -87.5 27.5t-53.5 73.5q-3 13 -16 39q5 44 34 67
q57 43 254 118q17 7 26 7l11 -1q25 -4 55 -47q37 -58 37 -94q0 -11 -5 -18q-25 -33 -36 -71q-9 -27 -22 -51.5t-42 -42.5q-9 -5 -17 -12q-24 -20 -44 -20zM472 297q2 17 2 31v8q0 22 5 38q18 48 37.5 93t37 91.5t30.5 95.5l48 157q7 -1 15 -1l2 -1l13 -28q7 -5 15 -9
q13 19 21 37q71 157 195 290q62 60 62 126v4q1 15 12 31q5 7 8 15l-99 28l30 5q60 4 80 4q-5 12 -5 25v4q0 15 -4.5 29t-25.5 26q-61 37 -113 85q-23 20 -45 37q-18 18 -34 18q-12 0 -28 -10l-4 -1q-3 0 -9.5 2t-16 6.5t-19.5 7.5q-14 -80 -14 -85h-18v24q0 20 8 44
q6 11 6 19q0 2 -0.5 7.5t-22.5 10.5l-6 1q-20 5 -36 5q-15 0 -15 -17q-1 0 -4.5 2t-10 4.5t-11.5 2.5h-4q-145 -28 -192 -73q-9 -9 -18 -16q-23 -16 -23 -31q0 -11 24 -25.5t43 -34.5q8 -9 17 -16l-48 -63l-14 56q-21 2 -35 2q-25 0 -34 -6.5t-9 -29.5q0 -10 2 -23
q0 -17 -8 -35l-5 -17l33 -36l124 -133l-9 -5l-169 75q-7 -7 -15 -13q-4 -2 -7 -5q-8 23 -14 47q-11 54 -41 98q-32 41 -32 82v23q2 72 47 119q94 105 205 219q32 31 115 31q91 0 120 -37q24 -32 81 -42q13 -2 25 -5q33 -8 69 -13q54 -7 102 -25q51 -26 87 -74q21 -21 38 -54
q12 -22 27 -41q66 -82 66 -183q0 -16 -7 -84.5t-101 -157.5q-19 -19 -29 -63l-2 -7q-9 -39 -15 -81l-7 -38q-20 5 -36 5q-50 0 -73 -55q-56 -141 -140 -235q-27 -32 -51 -65q-13 -19 -42 -96q59 11 66 13l-8 -6q-13 -10 -37.5 -15.5t-43 -16.5t-24.5 -39q-3 -9 -44 -23
q-20 -6 -40 -14z" />
    <glyph glyph-name="parenright" unicode=")" horiz-adv-x="801" 
d="M160 -418h-33l-31 1l-3 19q57 80 64 91q35 52 59 97q19 37 25 82q11 66 37 130l40 119l11 30l26 -12l-35 -69l24 -47q33 59 33 103q0 3 -1 28t-42 38q21 89 62 253l5 4l7 18q10 22 10 28q0 2 -1 3q-23 22 -23 54q0 14 3 29.5t3 38.5q-1 17 -1 52l1 26l-1 26q0 81 28 147
q25 62 25 122q0 81 -43 195q-18 47 -46 91q-134 240 -161 290q-8 17 -11 37l-3 18q32 -9 45 -9q16 3 33 11q8 4 17 7l-31 55q21 15 40 30l22 16l57 -114q68 -132 126 -269q82 -214 90 -454q4 -85 16 -199q3 -24 5 -50l-32 4l8 -41q19 -85 19 -109q0 -7 -7.5 -19t-7.5 -22
q2 -18 2 -35q0 -26 -7 -57t-44 -64q-8 -8 -9 -23q-1 -10 -1 -33q0 -28 -1 -41q-12 -65 -39 -181q-52 -53 -81.5 -121.5t-52.5 -143.5q-19 -65 -45 -128q-28 12 -51 12q-51 0 -81 -58q-4 -6 -18 -6z" />
    <glyph glyph-name="plus" unicode="+" horiz-adv-x="1104" 
d="M491 34q-7 0 -14 4q-22 11 -24 24q-16 121 -21 242q0 25 7 50q7 20 7 42q0 20 -6 42q-10 31 -24 40q-10 6 -23 6q-15 0 -93 -16q-92 -21 -129 -21q-52 0 -106 41l143 52q0 13 1 17q-66 26 -83 34l19 12q18 15 37 20q25 5 52 6.5t54 6.5q67 16 196 52q15 47 30 90l87 262
q12 28 15 42q8 45 42 76q31 27 78 27q15 -2 32 -26q5 -8 5 -16q-5 -68 -32 -128q-75 -142 -75 -244q0 -46 38 -46q11 0 25 4q118 30 236 55q25 0 44 -5q13 -4 28 -7l-268 -123l233 8q-47 -41 -47 -59q0 -17 47 -51q-186 -22 -266 -27q-38 -1 -57 -18q-15 -14 -15 -57l1 -24
q0 -20 -8 -104q-78 -11 -78 -76q0 -16 4 -34q1 -1 1 -3t-1 -3.5t-16 -36.5q-19 -46 -41 -90q-16 -31 -35 -40z" />
    <glyph glyph-name="hyphen" unicode="-" horiz-adv-x="1104" 
d="M520 461q-47 0 -84.5 10t-50.5 28q-12 -25 -22.5 -27.5t-14.5 -2.5q-15 0 -51 22q-30 24 -55 24q-18 0 -39 -16q-3 -2 -8 -2q-10 0 -30 8q-14 6 -30 10l92 121l-52 42q11 6 22.5 14t23.5 14t23 6q99 -3 197 -10q147 -10 190 -10q38 0 75 4q49 6 96 6q35 0 71 -6
q48 -9 93 -51h-60l63 -108q-165 -49 -317 -49q-48 0 -94 5q-2 -4 -2 -11q13 -6 24 -10q-23 -11 -60 -11z" />
    <glyph glyph-name="asterisk" unicode="*" horiz-adv-x="1095" 
d="M258 952l-6 15q-8 17 -8 32q26 182 142 325q32 39 32 55l-2 10q-5 16 -140 32q-50 7 -98 17q-27 9 -53 27q-11 8 -23 14l7 18l16 3q17 3 34 4q48 4 95 17q65 17 106 17q28 0 56 -7q15 -4 28 -4q56 0 56 77v17q0 90 33 178l11 32l16 -2l9 -42l5 31q5 53 19 65l25 17
q3 -5 8 -10q12 -15 12 -21q3 -42 10 -84q11 -55 11 -110q0 -52 -26 -103q-8 -15 -8 -26q0 -23 30 -23l14 1q60 8 119 13.5t116 14.5l23 4q-2 4 -7 24q37 -9 50.5 -31.5t18.5 -47.5l4 -12q-55 -52 -118.5 -68t-132.5 -20q-73 -5 -146 -23l326 -312q-54 -60 -105 -60
q-69 0 -137 117q-17 30 -39.5 56t-61.5 35q-5 2 -7 22q-1 14 -5.5 25.5t-40.5 82.5q-13 -17 -25 -31q-24 -28 -41 -54q-42 -70 -82.5 -139.5t-82.5 -137.5q-9 -12 -24 -21q-7 -4 -13 -9z" />
    <glyph glyph-name="slash" unicode="/" horiz-adv-x="1104" 
d="M311 -256l-116 37l16 207q9 3 32 5q-22 27 -44 56q14 9 30 18l19 12q-25 6 -65 19l98 217l-47 16q0 17 1 17q32 18 46 29t17.5 26.5t4.5 45t18 67.5q6 13 11 27q10 -5 16 -7l-7 124q15 -4 25 -4q28 0 28 37l-1 23q0 34 10 68l6 33l30 13l-74 -3l17 37q14 -2 25 -2
q55 0 57 71q2 21 7 38q37 96 66 196l26 84l-20 2q36 52 54 114q30 96 79 144q-3 8 -3 19q0 18 10 52.5t36.5 76t62.5 63.5l-29 -96l16 -9l91 144q4 -1 13.5 -4.5t20.5 -6.5l-41 -61l45 16l25 8q2 -5 5.5 -10.5t3.5 -9.5q0 -2 -14 -45q-29 -72 -29 -152q0 -27 2 -31
q4 -14 4 -15h1l-1 -1q-37 -25 -46.5 -59t-9.5 -72q0 -86 -76 -222q-51 -93 -94 -227q-17 -50 -36 -98q-32 -91 -52 -185q-15 -66 -34 -130q-16 -47 -44 -93l-25 -45l25 -12l-12 -63q-14 -78 -32 -157q-7 -22 -19.5 -42t-19.5 -40q-32 -90 -34 -184q-55 -55 -75 -76z" />
    <glyph glyph-name="equal" unicode="=" horiz-adv-x="1105" 
d="M571 728q-14 29 -36.5 36t-52.5 7l20 19q-1 4 -1 15q-35 8 -70 8q-53 0 -106 -18l1 -30q0 -4 -0.5 -12t-9.5 -8q-7 0 -21 9q-2 1 -5 1t-6.5 -1.5t-9.5 -1.5q-52 16 -62 32q-5 10 -10 10l-56 2q-16 -1 -57 -1l56 105q7 5 15 6t15 5q14 7 14 41h706q1 -8 1.5 -19t1.5 -16
l84 -69q-1 -2 -1 -5q-1 -11 -3 -21l-40 -13q-45 -12 -88 -31q-36 -16 -72 -16q-35 0 -71 5q-11 2 -23 3q-37 0 -76 -25q-18 -9 -37 -17zM481 770l-1 1h2zM852 182q-27 0 -55 13q-13 5 -28 5q-21 0 -49 -8q-34 -8 -49 -8q-76 7 -125 20q-63 19 -123 19q-19 0 -38 -2
q-15 -2 -29 -2q-77 0 -198 69l-58 31q27 58 55 70q11 5 25 5q21 0 50 -12q12 -3 25 -3q20 0 41 7q44 12 107 12q45 0 75 -8q34 -6 67 -7q46 0 91 2q29 2 58 2q51 0 107 -6h6q8 0 16 2t17 2q7 0 18.5 -1.5t24.5 -23.5q-4 -4 -28 -16q0 -7 1 -11h91l27 -116l32 8l-10 46
l30 -27l-6 -12q-7 -19 -13 -19q-39 -3 -76 -15q-46 -16 -79 -16zM473 762h-3l2 1zM389 724l-4 25q25 18 54 18q15 0 31 -5q-21 -9 -41 -19t-40 -19z" />
    <glyph glyph-name="backslash" unicode="\" horiz-adv-x="1104" 
d="M349 915l26 3q-19 234 -28 325q-1 7 -23 16q-14 6 -33 17zM1018 -310l-48 30q-15 8 -29 17l-70 -24q-1 37 -20 58t-44 37q-54 33 -63 75l48 16q-66 41 -98 97t-53 116q-22 64 -57 120q-51 79 -72 115q-22 33 -32 55q-32 70 -67 156q0 5 2 10q-4 7 -7 15q-14 34 -38 71
q-29 43 -29 56q0 4 2 6q18 25 18 41q0 4 -3.5 14.5t-18 22t-20.5 25.5l-1 26v9q0 26 -9 45l-13 19q-34 49 -34 86q0 24 13 53q3 6 3 14q0 12 -8 34.5t-8 42.5v8q9 68 10 98q0 108 -14 213q-7 41 -9 83q0 39 7 79l5 36h24q-26 40 -56 91l18 14l76 -87l67 -78l36 22l41 -229
l35 105l21 -7l3 -322q0 -18 6 -32q36 -66 37 -146q14 -171 96 -369q41 -92 61 -188q22 -110 72 -205q29 -57 51 -117q33 -89 83 -171l33 -61q7 -11 16.5 -18.5t15.5 -15.5l6 -9q25 -31 25 -66q0 -25 -5 -52q-3 -16 -5 -34z" />
    <glyph glyph-name="underscore" unicode="_" horiz-adv-x="1104" 
d="M837 -305q-11 23 -37 23t-39 -6q-17 -2 -36 -2q-18 0 -37 2q-23 2 -47 2q-32 -1 -64 -4q-40 -4 -152 -4q-120 0 -240 4q-17 2 -35 12q-35 18 -35 60q0 8 4 23.5t44 23.5q4 1 9.5 10t11.5 13.5t13 10.5q30 21 39 21l5 -1q36 -15 70 -15q48 0 93 30q5 2 12 2l14 -3
q4 -2 9 -3l23 -4q84 -19 140 -19q45 0 91 13l18 1q35 0 78 -20q27 -11 56 -19q16 0 90 6h6q21 0 34 -10.5t13 -25.5q0 -19 -19 -47q-31 -43 -100 -63z" />
    <glyph glyph-name="uni00AD" unicode="&#xad;" horiz-adv-x="1104" 
d="M520 461q-47 0 -84.5 10t-50.5 28q-12 -25 -22.5 -27.5t-14.5 -2.5q-15 0 -51 22q-30 24 -55 24q-18 0 -39 -16q-3 -2 -8 -2q-10 0 -30 8q-14 6 -30 10l92 121l-52 42q11 6 22.5 14t23.5 14t23 6q99 -3 197 -10q147 -10 190 -10q38 0 75 4q49 6 96 6q35 0 71 -6
q48 -9 93 -51h-60l63 -108q-165 -49 -317 -49q-48 0 -94 5q-2 -4 -2 -11q13 -6 24 -10q-23 -11 -60 -11z" />
    <glyph glyph-name="uni02D7" unicode="&#x2d7;" horiz-adv-x="1104" 
d="M520 461q-47 0 -84.5 10t-50.5 28q-12 -25 -22.5 -27.5t-14.5 -2.5q-15 0 -51 22q-30 24 -55 24q-18 0 -39 -16q-3 -2 -8 -2q-10 0 -30 8q-14 6 -30 10l92 121l-52 42q11 6 22.5 14t23.5 14t23 6q99 -3 197 -10q147 -10 190 -10q38 0 75 4q49 6 96 6q35 0 71 -6
q48 -9 93 -51h-60l63 -108q-165 -49 -317 -49q-48 0 -94 5q-2 -4 -2 -11q13 -6 24 -10q-23 -11 -60 -11z" />
    <glyph glyph-name="minus" unicode="&#x2212;" horiz-adv-x="1104" 
d="M520 461q-47 0 -84.5 10t-50.5 28q-12 -25 -22.5 -27.5t-14.5 -2.5q-15 0 -51 22q-30 24 -55 24q-18 0 -39 -16q-3 -2 -8 -2q-10 0 -30 8q-14 6 -30 10l92 121l-52 42q11 6 22.5 14t23.5 14t23 6q99 -3 197 -10q147 -10 190 -10q38 0 75 4q49 6 96 6q35 0 71 -6
q48 -9 93 -51h-60l63 -108q-165 -49 -317 -49q-48 0 -94 5q-2 -4 -2 -11q13 -6 24 -10q-23 -11 -60 -11z" />
    <glyph glyph-name="figuredash" unicode="&#x2012;" horiz-adv-x="1204" 
d="M620 461q-147 0 -184.5 10t-50.5 28q-12 -25 -22.5 -27.5t-14.5 -2.5q-15 0 -51 22q-30 24 -55 24q-18 0 -39 -16q-3 -2 -8 -2q-10 0 -30 8q-14 6 -30 10l92 121l-52 42q11 6 22.5 14t23.5 14t23 6q99 -3 197 -10q247 -10 290 -10q38 0 75 4q49 6 96 6q35 0 71 -6
q48 -9 93 -51h-60l63 -108q-165 -49 -317 -49q-48 0 -94 5q-2 -4 -2 -11q13 -6 24 -10q-23 -11 -60 -11z" />
    <glyph glyph-name="endash" unicode="&#x2013;" horiz-adv-x="1204" 
d="M620 461q-147 0 -184.5 10t-50.5 28q-12 -25 -22.5 -27.5t-14.5 -2.5q-15 0 -51 22q-30 24 -55 24q-18 0 -39 -16q-3 -2 -8 -2q-10 0 -30 8q-14 6 -30 10l92 121l-52 42q11 6 22.5 14t23.5 14t23 6q99 -3 197 -10q247 -10 290 -10q38 0 75 4q49 6 96 6q35 0 71 -6
q48 -9 93 -51h-60l63 -108q-165 -49 -317 -49q-48 0 -94 5q-2 -4 -2 -11q13 -6 24 -10q-23 -11 -60 -11z" />
    <glyph glyph-name="emdash" unicode="&#x2014;" horiz-adv-x="2158" 
d="M421 490q-126 1 -250 24q-10 0 -20 12q-16 18 -16 33q0 4 2 7q28 51 85 81q23 8 52 8h7q29 0 54.5 6t38.5 33q0 3 18 3q249 0 403 -3q21 -2 41.5 -10.5t41.5 -10.5l21 -1l47 -1h35t35 11q30 30 65 30q2 0 22 -0.5t40 -12.5q47 -22 93 -22q47 0 93 6.5t92 6.5
q189 -7 369 -7h227q6 -23 6 -42q0 -32 -22 -62t-117 -60q-98 -27 -207 -27q-103 0 -259 9q-229 15 -423 15q-141 0 -325 -13q-124 -9 -249 -13z" />
    <glyph glyph-name="uni2015" unicode="&#x2015;" horiz-adv-x="2158" 
d="M421 490q-126 1 -250 24q-10 0 -20 12q-16 18 -16 33q0 4 2 7q28 51 85 81q23 8 52 8h7q29 0 54.5 6t38.5 33q0 3 18 3q249 0 403 -3q21 -2 41.5 -10.5t41.5 -10.5l21 -1l47 -1h35t35 11q30 30 65 30q2 0 22 -0.5t40 -12.5q47 -22 93 -22q47 0 93 6.5t92 6.5
q189 -7 369 -7h227q6 -23 6 -42q0 -32 -22 -62t-117 -60q-98 -27 -207 -27q-103 0 -259 9q-229 15 -423 15q-141 0 -325 -13q-124 -9 -249 -13z" />
    <glyph glyph-name="uni203E" unicode="&#x203e;" horiz-adv-x="1104" 
d="M145 1535q-33 66 -33 97q0 6 4.5 22.5t78.5 34.5q183 50 398 50q78 0 144 -3q14 0 26.5 1t22.5 1q27 0 56.5 -9t50.5 -63q8 -16 46 -36q25 -12 46 -29q-303 -46 -613 -53z" />
    <glyph glyph-name="uni02B9" unicode="&#x2b9;" horiz-adv-x="567" 
d="M247 1191q-36 0 -55.5 16.5t-19.5 43.5q0 12 4 26q31 125 31 252q0 51 -5 102v7q0 28 14 58q8 15 60 102q2 4 14.5 5.5t25.5 1.5q13 -1 19 -5q42 -35 46 -68q6 -95 6 -191q0 -109 5 -166l3 -56q0 -43 -34 -79q-46 -49 -114 -49z" />
    <glyph glyph-name="uni02BA" unicode="&#x2ba;" horiz-adv-x="975" 
d="M339 1061l-23 37q-22 35 -38 66q-9 15 -32 23q-26 6 -54 48q-16 24 -16 46q0 36 22 129q22 88 22 174v21q0 31 17.5 43t41.5 17q18 4 32 11t17 25q0 3 10 8q4 1 78 43q9 -53 9 -63l-1 -16q-21 -117 -21 -235q0 -52 4 -103v-27q0 -88 -17 -177q-3 -16 -5.5 -29.5
t-28.5 -29.5zM579 1123q0 39 -7 256q0 12 5 17q25 21 25 61q0 11 -2 23.5t-2 25.5q0 9 2 24.5t23 32.5q-14 24 -14 47q0 29 17 67q15 33 16 66t16 53.5t43.5 39.5t51.5 19q1 0 13.5 -0.5t32.5 -15.5l-6 -47q-13 -76 -13 -231v-134q0 -121 -18 -149q-29 -45 -113 -109
q-12 -12 -44 -30z" />
    <glyph glyph-name="uni02BB" unicode="&#x2bb;" horiz-adv-x="567" 
d="M247 1191q-36 0 -55.5 16.5t-19.5 43.5q0 12 4 26q31 125 31 252q0 51 -5 102v7q0 28 14 58q8 15 60 102q2 4 14.5 5.5t25.5 1.5q13 -1 19 -5q42 -35 46 -68q6 -95 6 -191q0 -109 5 -166l3 -56q0 -43 -34 -79q-46 -49 -114 -49z" />
    <glyph glyph-name="uni02BC" unicode="&#x2bc;" horiz-adv-x="567" 
d="M247 1191q-36 0 -55.5 16.5t-19.5 43.5q0 12 4 26q31 125 31 252q0 51 -5 102v7q0 28 14 58q8 15 60 102q2 4 14.5 5.5t25.5 1.5q13 -1 19 -5q42 -35 46 -68q6 -95 6 -191q0 -109 5 -166l3 -56q0 -43 -34 -79q-46 -49 -114 -49z" />
    <glyph glyph-name="uni02BD" unicode="&#x2bd;" horiz-adv-x="567" 
d="M247 1191q-36 0 -55.5 16.5t-19.5 43.5q0 12 4 26q31 125 31 252q0 51 -5 102v7q0 28 14 58q8 15 60 102q2 4 14.5 5.5t25.5 1.5q13 -1 19 -5q42 -35 46 -68q6 -95 6 -191q0 -109 5 -166l3 -56q0 -43 -34 -79q-46 -49 -114 -49z" />
    <glyph glyph-name="quoteleft" unicode="&#x2018;" horiz-adv-x="567" 
d="M247 1191q-36 0 -55.5 16.5t-19.5 43.5q0 12 4 26q31 125 31 252q0 51 -5 102v7q0 28 14 58q8 15 60 102q2 4 14.5 5.5t25.5 1.5q13 -1 19 -5q42 -35 46 -68q6 -95 6 -191q0 -109 5 -166l3 -56q0 -43 -34 -79q-46 -49 -114 -49z" />
    <glyph glyph-name="quoteright" unicode="&#x2019;" horiz-adv-x="567" 
d="M247 1191q-36 0 -55.5 16.5t-19.5 43.5q0 12 4 26q31 125 31 252q0 51 -5 102v7q0 28 14 58q8 15 60 102q2 4 14.5 5.5t25.5 1.5q13 -1 19 -5q42 -35 46 -68q6 -95 6 -191q0 -109 5 -166l3 -56q0 -43 -34 -79q-46 -49 -114 -49z" />
    <glyph glyph-name="quotesinglbase" unicode="&#x201a;" horiz-adv-x="567" 
d="M246 -361q-35 0 -54.5 16.5t-19.5 43.5q0 12 4 26q30 124 30 252q0 78 -5 108q0 28 15 58q7 15 60 103q3 6 31 6q22 0 28 -4q42 -35 46 -68q6 -95 6 -191q0 -73 8 -222q0 -43 -34 -79q-46 -49 -115 -49z" />
    <glyph glyph-name="quotereversed" unicode="&#x201b;" horiz-adv-x="567" 
d="M247 1191q-36 0 -55.5 16.5t-19.5 43.5q0 12 4 26q31 125 31 252q0 51 -5 102v7q0 28 14 58q8 15 60 102q2 4 14.5 5.5t25.5 1.5q13 -1 19 -5q42 -35 46 -68q6 -95 6 -191q0 -109 5 -166l3 -56q0 -43 -34 -79q-46 -49 -114 -49z" />
    <glyph glyph-name="quotedblleft" unicode="&#x201c;" horiz-adv-x="975" 
d="M339 1061l-23 37q-22 35 -38 66q-9 15 -32 23q-26 6 -54 48q-16 24 -16 46q0 36 22 129q22 88 22 174v21q0 31 17.5 43t41.5 17q18 4 32 11t17 25q0 3 10 8q4 1 78 43q9 -53 9 -63l-1 -16q-21 -117 -21 -235q0 -52 4 -103v-27q0 -88 -17 -177q-3 -16 -5.5 -29.5
t-28.5 -29.5zM579 1123q0 39 -7 256q0 12 5 17q25 21 25 61q0 11 -2 23.5t-2 25.5q0 9 2 24.5t23 32.5q-14 24 -14 47q0 29 17 67q15 33 16 66t16 53.5t43.5 39.5t51.5 19q1 0 13.5 -0.5t32.5 -15.5l-6 -47q-13 -76 -13 -231v-134q0 -121 -18 -149q-29 -45 -113 -109
q-12 -12 -44 -30z" />
    <glyph glyph-name="quotedblright" unicode="&#x201d;" horiz-adv-x="975" 
d="M339 1061l-23 37q-22 35 -38 66q-9 15 -32 23q-26 6 -54 48q-16 24 -16 46q0 36 22 129q22 88 22 174v21q0 31 17.5 43t41.5 17q18 4 32 11t17 25q0 3 10 8q4 1 78 43q9 -53 9 -63l-1 -16q-21 -117 -21 -235q0 -52 4 -103v-27q0 -88 -17 -177q-3 -16 -5.5 -29.5
t-28.5 -29.5zM579 1123q0 39 -7 256q0 12 5 17q25 21 25 61q0 11 -2 23.5t-2 25.5q0 9 2 24.5t23 32.5q-14 24 -14 47q0 29 17 67q15 33 16 66t16 53.5t43.5 39.5t51.5 19q1 0 13.5 -0.5t32.5 -15.5l-6 -47q-13 -76 -13 -231v-134q0 -121 -18 -149q-29 -45 -113 -109
q-12 -12 -44 -30z" />
    <glyph glyph-name="quotedblbase" unicode="&#x201e;" horiz-adv-x="975" 
d="M339 -361l-23 37q-22 35 -38 66q-9 15 -32 23q-26 6 -54 48q-16 24 -16 46q0 36 22 129q22 88 22 174v21q0 31 17.5 43t41.5 17q18 4 32 11t17 25q0 3 10 8q4 1 78 43q9 -53 9 -63l-1 -16q-21 -117 -21 -235q0 -52 4 -103v-27q0 -88 -17 -177q-3 -16 -5.5 -29.5
t-28.5 -29.5zM579 -299q0 39 -7 256q0 12 5 17q25 21 25 61q0 11 -2 23.5t-2 25.5q0 9 2 24.5t23 32.5q-14 24 -14 47q0 29 17 67q15 33 16 66t16 53.5t43.5 39.5t51.5 19q1 0 13.5 -0.5t32.5 -15.5l-6 -47q-13 -76 -13 -231v-134q0 -121 -18 -149q-29 -45 -113 -109
q-12 -12 -44 -30z" />
    <glyph glyph-name="uni201F" unicode="&#x201f;" horiz-adv-x="975" 
d="M339 1061l-23 37q-22 35 -38 66q-9 15 -32 23q-26 6 -54 48q-16 24 -16 46q0 36 22 129q22 88 22 174v21q0 31 17.5 43t41.5 17q18 4 32 11t17 25q0 3 10 8q4 1 78 43q9 -53 9 -63l-1 -16q-21 -117 -21 -235q0 -52 4 -103v-27q0 -88 -17 -177q-3 -16 -5.5 -29.5
t-28.5 -29.5zM579 1123q0 39 -7 256q0 12 5 17q25 21 25 61q0 11 -2 23.5t-2 25.5q0 9 2 24.5t23 32.5q-14 24 -14 47q0 29 17 67q15 33 16 66t16 53.5t43.5 39.5t51.5 19q1 0 13.5 -0.5t32.5 -15.5l-6 -47q-13 -76 -13 -231v-134q0 -121 -18 -149q-29 -45 -113 -109
q-12 -12 -44 -30z" />
    <glyph glyph-name="minute" unicode="&#x2032;" horiz-adv-x="567" 
d="M247 1191q-36 0 -55.5 16.5t-19.5 43.5q0 12 4 26q31 125 31 252q0 51 -5 102v7q0 28 14 58q8 15 60 102q2 4 14.5 5.5t25.5 1.5q13 -1 19 -5q42 -35 46 -68q6 -95 6 -191q0 -109 5 -166l3 -56q0 -43 -34 -79q-46 -49 -114 -49z" />
    <glyph glyph-name="second" unicode="&#x2033;" horiz-adv-x="975" 
d="M339 1061l-23 37q-22 35 -38 66q-9 15 -32 23q-26 6 -54 48q-16 24 -16 46q0 36 22 129q22 88 22 174v21q0 31 17.5 43t41.5 17q18 4 32 11t17 25q0 3 10 8q4 1 78 43q9 -53 9 -63l-1 -16q-21 -117 -21 -235q0 -52 4 -103v-27q0 -88 -17 -177q-3 -16 -5.5 -29.5
t-28.5 -29.5zM579 1123q0 39 -7 256q0 12 5 17q25 21 25 61q0 11 -2 23.5t-2 25.5q0 9 2 24.5t23 32.5q-14 24 -14 47q0 29 17 67q15 33 16 66t16 53.5t43.5 39.5t51.5 19q1 0 13.5 -0.5t32.5 -15.5l-6 -47q-13 -76 -13 -231v-134q0 -121 -18 -149q-29 -45 -113 -109
q-12 -12 -44 -30z" />
    <glyph glyph-name="ellipsis" unicode="&#x2026;" horiz-adv-x="1425" 
d="M684 -8q-15 0 -30 4q-54 13 -98 49q-15 14 -15 34q0 23 22 53q30 41 66 67q27 18 103 62q24 12 46 12q20 0 49.5 -15.5t31.5 -64.5q-5 -88 -69 -151q-51 -50 -106 -50zM217 -58q-19 0 -34 7t-15 40l1 15q0 6 -1 7q-30 45 -30 88q0 2 0.5 24.5t38.5 57.5q50 38 104 62
q23 10 44 21l36 -14q31 -10 52 -25q49 -36 49 -64t-40 -78q-49 -66 -83 -97q-42 -39 -103 -43zM1143 -34q-49 0 -95 20q-12 7 -19 54q-2 17 -6 32l-12 22q-19 26 -19 47q0 12 6 26q14 31 139 122q17 11 42 11q73 0 106 -46q12 -24 12 -61q0 -104 -73 -194q-27 -33 -81 -33z
" />
    <glyph glyph-name="asciicircum" unicode="^" horiz-adv-x="1118" 
d="M135 730l-26 15l25 71q-17 18 -17 51q0 47 32 71q24 14 24 26q0 9 -12 22q-6 7 -6 23t122 218l27 44v1q34 62 76 119q63 76 131 146q27 28 53 57q32 37 74 78q11 9 26 11q10 2 18 5v-8q3 -13 4 -25q0 -7 -3 -13q-13 -28 -26 -46l-4 -6l33 -57q88 -145 294 -573
q15 -29 15 -59q0 -13 -3 -24q-17 -55 -56 -55q-13 0 -29 7q-1 1 -4 1q-7 0 -13.5 -2.5t-12.5 -2.5l-323 602q-83 -124 -160 -330q-40 -106 -90 -210q-2 24 -2 47q0 8 -1 15q-41 -15 -62 -46.5t-36 -69.5q-28 -70 -65 -100z" />
    <glyph glyph-name="less" unicode="&#x3c;" horiz-adv-x="1104" 
d="M771 -13q-22 0 -49 33v1q-5 5 -21 27q-11 20 -25.5 33t-45.5 13h-9q-25 0 -58 62q-61 108 -249 261l-62 53q-8 8 -11 19l-11 24q25 4 65 9q-22 16 -35.5 35.5t-28.5 32.5t-41 13l-9 -1q-9 0 -20.5 10t-18 22.5t-6.5 23.5q0 15 9 27.5t17 25.5q11 23 30 42t58 23
q7 1 28 22q4 5 28 29q140 137 258 260q11 9 38 14q13 0 20 5q0 4 -18 27q29 10 36 11q17 5 27.5 12l22.5 15q58 40 110 87q33 31 54 31q25 0 48 -30l27 70l21 -60q12 -25 12 -46q-5 -44 -50 -82.5t-99 -46.5l1 -12q0 -47 -43 -47q-12 0 -27 4q-6 0 -312 -246l-111 -90
q-22 -18 -22 -32q0 -10 12 -23q50 -56 97 -111q166 -195 292 -311q82 -77 92 -91t23 -25q25 -20 26 -44q0 -18 -9 -33q-30 -46 -61 -46z" />
    <glyph glyph-name="greater" unicode="&#x3e;" horiz-adv-x="1104" 
d="M317 7l-106 24l8 14q16 25 31 52q33 63 80 117q57 66 87 143.5t84 131.5q44 44 46 66q2 35 36 53l12 7l-6 51l12 1q35 5 71 49t49 105l-98 42q-149 61 -300 129q-53 29 -114 124q-15 25 -102 149q42 7 68 7q58 0 107 -18.5t95 -40.5q37 -19 78 -35l-55 57l27 26l49 -32
q121 -82 153 -105q57 -42 119 -80q34 -19 37 -41l11 18q25 -13 52 -24q58 -25 109 -59q11 -7 11 -28q0 -13 -5 -32q-9 -32 -96 -132q-129 -149 -230 -338q-49 -87 -184 -343l-5 -9q-39 13 -55 13q-55 0 -76 -62zM352 1107q-38 56 -87 56q-25 0 -41 -13zM810 951l-28 34
q-5 -10 -19 -22zM776 846l93 30l-101 28z" />
    <glyph glyph-name="guillemotleft" unicode="&#xab;" horiz-adv-x="1104" 
d="M576 -49q-45 0 -89 83q-19 36 -43 61q-47 48 -92.5 101t-78.5 86q-67 68 -130 153q39 3 55 31.5t26 69.5q41 149 119 227q114 101 199 250q16 28 68 46l23 10h2q8 0 18 -10q7 -7 7 -17q0 -7 -4 -18q-5 -17 -58 -78q-42 -48 -80 -103q-80 -124 -156 -250l-62 -101
q25 -35 47 -64q43 -56 76 -108q43 -74 83 -151q58 -109 74 -130q27 -39 27 -50l-5 -34q-14 -4 -26 -4zM840 -62q-4 0 -15.5 2t-35.5 43q-70 112 -151 207q-75 95 -97 118l-24 27l57 92q-6 25 -6 49q0 67 63 154q43 62 87 123q58 80 115 163q24 33 48 33q5 0 23.5 -5.5
t32.5 -61.5q7 -28 17 -54l8 -25q-74 -58 -133.5 -141.5t-116.5 -177.5q-31 -50 -64 -101l235 -427q-25 -18 -43 -18z" />
    <glyph glyph-name="guillemotright" unicode="&#xbb;" horiz-adv-x="1104" 
d="M205 -39l-56 51l39 87q41 96 88 177q58 95 124 180l56 76l-1 3l2 -1l-1 -1l85 -116l-49 -78q-49 -84 -101 -157q-58 -76 -125 -150zM580 472q-26 0 -123 62l6 11q17 29 17 53t-37 51q-76 59 -142 143l-44 51q-29 32 -29 60q0 25 22 71q7 14 12 28l20 -15q23 -14 41 -35
q221 -265 290 -392q5 -9 7.5 -24.5t2.5 -29.5q-2 -34 -43 -34zM607 -42q-2 0 -9.5 1t-27 6t-40.5 8q124 351 328 619q-31 59 -74 103t-92 85q-44 38 -87.5 81t-80.5 100q2 6 4.5 15t5.5 17t6 8q29 1 58.5 12.5t58.5 11.5q3 0 20 -0.5t47 -41.5t65 -77q25 -26 49 -55
q11 -14 23 -27q44 -45 63 -102q13 -55 13 -106q0 -34 -10.5 -91t-75.5 -121q-38 -42 -65 -109q-16 -34 -33 -65q-8 -12 -46 -43q9 -28 9 -51q0 -22 -12 -48t-40 -55.5t-45 -70.5q-2 -4 -12 -4z" />
    <glyph glyph-name="guilsinglleft" unicode="&#x2039;" horiz-adv-x="802" 
d="M635 -59h-5l-24 11q-55 19 -73 50q-84 148 -197 248q-80 80 -122 231q-9 40 -23.5 65.5t-66.5 29.5q74 100 142 169q33 33 78.5 86t92.5 101q23 24 41 59q47 88 98 88q14 0 35 -6l6 -42q0 -14 -29 -56q-15 -20 -73 -129q-40 -77 -83 -151q-34 -53 -77 -109
q-22 -29 -43 -59l59 -95q75 -126 155 -250q38 -54 80 -102q54 -62 60 -81q4 -12 4 -21q0 -15 -10 -24q-13 -13 -25 -13z" />
    <glyph glyph-name="guilsinglright" unicode="&#x203a;" horiz-adv-x="754" 
d="M307 -52q-31 0 -60.5 11.5t-56.5 12.5q-10 0 -14.5 11.5t-7 20.5t-5.5 19q40 62 84 105.5t90.5 83t89 83t69.5 95.5q-201 264 -329 628q32 5 51.5 10t27.5 6t11 1q15 0 21 -10q17 -40 44.5 -69t40.5 -57t13 -52t-7 -48q34 -27 43 -41q17 -32 33 -66q27 -66 63 -106
q67 -66 78 -125t11 -95q0 -52 -13 -108q-20 -59 -77 -119q-36 -43 -61 -69q-34 -36 -65.5 -78.5t-51 -43t-22.5 -0.5z" />
    <glyph glyph-name="numbersign" unicode="#" horiz-adv-x="1306" 
d="M300 -116q-10 12 -17.5 18t-13.5 14q-12 12 -14 193l-3 230q1 25 17 64t16 60q0 31 -30 36l-17 2l-3 -11q-1 -9 -16 -55l-21 74q-12 -7 -15.5 -15.5t-11.5 -17.5t-38 -21l19 85l6 -2l-36 71l175 18l11 37q16 54 32 114q39 161 39 181q0 46 -53 46l-12 -1q-18 -2 -30 -2
q-9 0 -16 1q-12 2 -24 2l-13 -1h-19q-2 -1 -3 -2t-4 -1q-9 -3 -24 -3l-6 -1l-14 106l255 24l102 599l26 -2l5 -76h3l15 78l25 8q11 -30 28 -98q14 -43 15 -88q-3 -49 -18 -97q-9 -31 -28 -115l-1 -1q-39 -154 -39 -177q0 -7 4 -12t36 -5q42 3 86 3t71.5 2t57.5 13l26 8
q8 34 13 72q8 78 45 153q-19 39 -19 77t6 76q6 31 6 63q0 28 -3 43l37 5l25 -96l1 11q2 22 11 41q16 25 36 46v1l20 24q15 -21 27 -34q36 -41 37 -66q-2 -41 -19 -81q-12 -31 -18 -62q-15 -122 -54 -224q-3 -6 -3 -15q0 -17 9.5 -31t65.5 -36q9 -5 11 -7h1v-1h3l43 -1
q30 -3 45 -24q10 -14 10 -33q0 -13 -5 -29l-58 -9l-1 -1l42 -4l-25 -20l-44 3h-54q-30 0 -71 4q-71 -162 -71 -300q0 -44 6 -89l65 34l-10 -26q17 -9 26 -21q4 -8 24 -20l6 66l9 -15q34 -59 52 -67q11 -5 28 -8l31 -8l18 -3q18 -2 33 -10t17 -35q0 -39 -34 -39q-7 0 -14.5 1
t-18.5 1q-26 -5 -35 -12q-5 -4 -14 -4q-10 0 -45 20q-12 5 -23 5q-2 -1 -5 -1q-9 0 -33 6q-55 15 -83 15q-30 0 -38 -18t-9 -63q-10 -105 -10 -199q0 -127 14 -200q5 -25 8 -50q0 -11 -3 -41l-137 106q0 12 13 57q18 64 18 101q0 17 -3 33q-10 48 -10 96q0 46 9 93
q0 7 -14 12l25 37l-20 7l2 26q-20 -2 -42 -2q-23 0 -42 1t-36 1q-66 0 -130 -32q-6 -4 -10 -13q-8 -15 -14 -116q-2 -108 -32 -208q-21 -68 -35 -169l-65 23q2 -2 2.5 -3.5t1.5 -2.5q12 -17 12 -29q0 -16 -20 -43q-7 -10 -14 -22zM720 634l17 75l18 -36q3 19 3 36
q4 49 13 70l2 5q-13 38 -13 46q0 16 15.5 40t16.5 49q0 40 -28 75q-8 10 -22 18.5t-41 8.5q-18 -2 -29 -2t-19 1.5t-30 1.5l-108 -53l9 -6l-11 -32q-26 -62 -26 -217q0 -18 1.5 -33t25.5 -28q15 -9 25 -9q13 0 28.5 6.5t33.5 6.5q24 -2 32.5 -7.5t27.5 -7.5l41 -5z" />
    <glyph glyph-name="ampersand" unicode="&#x26;" horiz-adv-x="1306" 
d="M444 -92q-28 0 -59 9q-132 42 -232 176l19 28q-44 28 -51 67q-4 23 -4 48q0 17 2 34.5t2 33.5l-2 31q-7 55 -7 112q0 7 1 42.5t25 95.5q23 51 59 96l21 30q45 65 92 130q20 27 39 55q-99 86 -129 199q-18 66 -18 140q0 52 9 109l-43 -31l-20 23q11 15 42 69q1 35 24 68
q30 43 73 86l6 8q72 95 144 95q17 0 36 -4l-26 64l69 -7q77 -6 146 -19q35 -10 68 -32q14 -9 26.5 -16t22.5 -14q20 -14 43.5 -22t47.5 -41q36 -51 36 -97q0 -18 -10 -31t-12 -26.5t-2 -27.5v-9q0 -25 -13 -41l-57 62l-25 -41l-7 -9l83 -35l-9 -20q-18 -39 -31 -57
q-7 -10 -16 -10q-7 0 -16 5q-17 9 -17 25q0 3 1.5 10.5t4.5 17t11 17.5l6 7l-16 13q-24 -38 -62 -103q70 -12 85 -16v-16l-14 -8q-20 -9 -31 -24l-1 -3q0 -3 2.5 -10t7.5 -17t9 -19q-22 15 -37 15q-24 0 -40 -49q-8 -22 -19 -35q-54 -61 -93 -132q-15 -26 -30 -49
q101 -188 228 -419q26 45 64 125q73 157 159 297q3 3 15 3h5q5 0 9 1.5t8 2.5q28 11 31 19q5 31 16 42.5t26 11.5q15 -1 32.5 -5.5t33.5 -4.5q3 0 7.5 -7t7.5 -14.5t3 -12.5l-8 -32q-11 -39 -24 -43q-63 -11 -88 -101l-5 -14q-34 -79 -85 -140q-83 -105 -83 -148
q0 -3 1 -18.5t46 -57.5q60 -65 96 -152q22 -58 66 -58q11 0 24 4l65 26q3 -8 8 -17l-73 -58l88 -9l1 -19q-84 -56 -158 -56q-101 0 -223 135q-30 30 -62 59l-83 -123h55l-38 -29q-34 -28 -64.5 -44t-59.5 -34q-93 -60 -155 -60zM639 583l11 12q-14 17 -18.5 45.5t-19.5 48.5
q-11 13 -37 13q-11 0 -25 -2zM595 725l-63 98q-31 -33 -31 -46q0 -10 19.5 -21t74.5 -31zM422 968q6 13 9 24q7 21 16 34q71 103 123 166q51 59 102 115q62 68 121 138q9 12 9 41q0 20 -6 34q-15 28 -60 41q-32 9 -67 9q-13 0 -44 -2.5t-56 -26.5l79 -64q-3 -8 -8 -16
l-32 16q-37 15 -66 40q-36 35 -72 35q-16 0 -50.5 -16.5t-72.5 -84.5t-38 -146q0 -81 42 -200q23 -66 71 -137zM450 37q15 0 30 4l-104 95l39 -19q94 -49 128 -49h13q28 2 63 66q11 18 23 35l64 75h-1q-9 19 -9 27v4q4 13 4 25q0 29 -32 63q-8 9 -15 19q-109 153 -224 298
q-14 16 -47 16q-12 0 -15 -3q-82 -181 -82 -262q0 -61 31 -121l-33 42l-22 30l2 -29l18 -181l37 21l54 -54h-60q23 -54 72 -83q33 -19 66 -19z" />
    <glyph glyph-name="at" unicode="@" horiz-adv-x="1711" 
d="M825 -150l-30 69l-1 -1q-23 -17 -50 -17q-14 0 -27 2l1 -1l-13 -33zM1099 695q10 15 24 29q-15 -7 -24 -29zM1046 887q8 0 16 5.5t15 23.5q-54 53 -85 53q-28 0 -49 -56l46 -11l38 -3l-9 -6q15 -6 28 -6zM977 686l11 9q57 45 57 93q0 7 -4.5 25.5t-53.5 60.5
q-47 -33 -47 -71q0 -3 1.5 -25t26.5 -71l1 -1zM952 904l-10 8l-2 -7zM944 1024q32 0 64 25l-92 -19q13 -6 28 -6zM885 655l-18 77l-1 1l-4 -9q-10 -22 -10 -29q0 -15 33 -40zM781 765l96 175q-50 -24 -77 -73q-20 -39 -20 -81q0 -11 1 -21zM1130 1697l1 5l-89 17l-1 -6z
M549 -116q12 0 23 8l-79 40q24 -48 56 -48zM731 -279q-105 0 -230 66q-29 14 -134 75l29 36q-56 89 -71 120q-62 137 -97 280q-68 275 -68 393q0 117 43 236q26 78 40 161q9 46 20 93q7 24 19 45l11 19q7 17 15 33v1q35 80 82 137l17 22q6 7 12 12q9 9 10 12
q13 55 45.5 84.5t70.5 51.5q27 15 52 34q83 64 174.5 81.5t189.5 20.5q32 2 61 14q39 14 59 14q27 0 40.5 -14t27.5 -25l8 -1l-1 -4q59 -39 126 -58q33 -11 65 -24q92 -43 136 -118.5t65 -155.5q9 -31 9 -65t-1 -48q-4 -55 -4 -111v-13q0 -80 -11 -162.5t-61 -160.5
q-12 -21 -26 -58l53 -42l-91 -25l-3 -23l14 20l36 -9q-5 -20 -6 -31.5t-4 -22.5q-5 -19 -91 -78q-46 -32 -89 -68q-39 -33 -95 -33q-33 0 -64 6.5t-73 6.5q-7 -1 -17 -1q-19 0 -32 -3q-48 -22 -92 -22q-122 0 -184 158q-65 180 -65 215q0 66 60 132l14 15l3 2q46 53 100 96
q72 58 166 58q36 0 78 -8l2 1v-1l32 -6q19 -6 42 -41q8 -12 30 -39l-37 -8q5 -1 16 -1q66 0 66 -60q0 -15 -5 -35q-11 -54 -19 -108l-10 -58h-37q0 -9 8 -27q10 -21 10 -38q0 -12 -6 -28q-3 -9 -3 -14q0 -13 24 -13q11 0 23 3q56 13 95.5 54.5t72.5 103.5q56 99 61 172
q4 55 12 107q11 74 11 148q-3 34 -19 70q-16 42 -16 56t16 49l19 -29l1 10q0 17 -31 25q-45 12 -45 45q0 8 3 16l-33 -12q-10 77 -47.5 108.5t-95.5 45.5v-59l-26 -8l-24 47l-79 -5l-1 41h53q-27 28 -71 28q-35 0 -93 -17q-42 -11 -85 -18q-62 -8 -120.5 -30t-103.5 -85
l-3 -5h-7q-44 0 -99 -56.5t-96 -129t-47 -126.5q-3 -30 -14 -60q-15 -40 -15 -70q0 -35 23 -64q-8 -20 -20 -44q-51 -100 -51 -162t35 -131q26 -56 31 -165l4 -55l-77 -8q11 -63 41 -117t68 -106q12 -16 42 -61q34 -52 73 -100q22 -26 63 -35q82 -18 167 -29l-2 6l25 -9
q2 -2 36 -7l-9 -5l2 -1q31 -15 61 -20q59 -8 119 -11q87 -6 111 -12l11 45l58 -12l32 75l25 -34l37 71l3 1q127 73 228 270l17 33l7 -59q2 -9 2 -17t-2 -15q-51 -159 -192 -308q-24 -26 -47 -53q-35 -40 -74 -81.5t-98 -41.5q-21 0 -45 6q-16 4 -33 4q-11 0 -23 -2l47 -18
l-31 -12q-21 -9 -27 -9l-159 10q-11 2 -19.5 11.5t-40.5 17.5h-1l-5 -30l-2 -20q-45 -5 -60 -5z" />
    <glyph glyph-name="dollar" unicode="$" horiz-adv-x="1542" 
d="M684 -400l-13 23q4 3 8.5 6t10 5.5t11.5 6.5q-26 9 -93 31q-11 19 -11 41q0 24 9.5 52t9.5 53q0 21 -13 41.5t-13 46.5q0 19 9 93v6q0 27 -15 40t-56 13q-22 0 -37.5 2t-28.5 2l-14 -1q-13 -2 -24 -2q-59 0 -119 41q-39 23 -87 40l-57 24l28 16l-7 15q-24 54 -43.5 77
t-19.5 32q0 5 4 10q23 23 63 41q14 6 29 15l-5 36l89 -3l-2 -20q0 -44 40.5 -90.5t104.5 -66.5q69 -20 117 -38q26 -9 45 -9q27 0 27 19q0 8 -5 19q-10 28 -10 53q0 9 2 19l-1 59q0 64 7 128q4 48 6 99q0 54 -5 113q-3 29 -3 60l5 2q-34 7 -66 16q-69 19 -114 19
q-21 0 -41 -3q-11 -3 -22 -3q-34 0 -69 13.5t-60 36t-25 46.5l1 5q4 21 4 32q0 9 -3 20.5t-31 20.5l-12 4l34 52q-6 34 -6 65q0 70 28 132q87 193 267 301q24 15 51 21q53 10 61 59q6 33 21.5 83.5t57.5 95.5q40 27 71 37.5t51.5 20.5t42.5 21l-55 -256q211 -6 324 -144
q62 -76 97 -139q42 -60 42 -99q0 -34 -28 -60l-111 41l12 10q18 14 18 29q0 18 -29 55q-78 107 -196 136q-68 16 -93 16l-16 3l-10 -39q-15 -41 -15 -77v-28q0 -153 10 -338q2 -26 24.5 -35t76.5 -10q104 0 199 -14t175 -76q45 -37 85 -77l45 -42l-19 -24l-135 26l30 -56
q13 -19 45 -34l-3 -7q-9 -33 -21 -65q-26 -70 -35 -137q-9 -82 -49 -151q-79 -137 -137 -157q-42 -14 -257 -59q-4 0 -90 -18l21 -400zM386 811l12 2q-50 35 -61 35q-6 0 -6.5 -3t-0.5 -4q35 -30 56 -30zM462 946l198 7l2 267l-13 -54q-17 -4 -35 -7l-11 17q-1 0 -1 1
q-16 19 -16 31q0 27 3.5 54t3.5 55q-1 23 -9 49h-1l-2 9q-10 -8 -11.5 -8t-1.5 -1q-40 -21 -64 -43q-55 -42 -55 -76q0 -8 2 -20v-2q0 -7 -5 -14l-32 -33q-1 0 -1.5 -0.5l-5.5 -5.5q-18 -81 -18 -89l4 2zM775 142q36 0 229 44q111 26 144 133q11 37 11 73q0 42 -18 113
q-8 34 -14 67q-7 68 -49.5 124t-159.5 71l-14 1q-57 0 -101 -35q-16 -14 -16 -39q27 -169 87 -300l23 -54l-32 -10l-73 76q-18 0 -26 -7t-8 -37q0 -28 3.5 -42t4.5 -28q0 -13 -6 -23q-14 -21 -14 -49q0 -16 3 -33q2 -10 3.5 -21.5t5.5 -17.5t17 -6zM1268 705l29 14l-10 19
q-53 122 -292 123q41 -18 86 -30q67 -17 127 -54q44 -33 60 -72z" />
    <glyph glyph-name="Euro" unicode="&#x20ac;" horiz-adv-x="1528" 
d="M314 752q17 0 17 11q0 8 -1 17t-2 19.5t-3.5 16.5t-10.5 6l-10 -1zM804 -114l-12 36l18 13l-330 223l35 -100l-24 12q-45 23 -63 64q-10 23 -10 46q0 15 5.5 31t5.5 30q0 26 -29 58q-15 16 -25 36l-8 12q-13 15 -13 31q0 11 7 27l1 4q0 12 -15 36q-14 29 -25 71
q-9 36 -23 66q-23 41 -78 41h-15l-8 -1q-9 0 -17 1l-26 2q19 40 19 49v9l1 12q14 37 26 37h3q12 -3 20 -3q17 0 23 11.5t9 36.5l9 51h1l3 17q12 74 15 87q-1 1 -2 1t-3 1q-29 16 -54 16l-6 -1l-20 -1q-39 0 -58 20t-19 66v19q30 3 58 3q55 1 109 10q62 10 62 62v30
q0 21 4.5 45t33.5 41q-24 5 -24 24q0 16 25 39q5 4 8 30l7 47l72 -52l6 28q10 55 21 107q6 30 16 37q108 89 168 133q145 104 288 104q35 0 66.5 2.5t61.5 2.5q94 0 156 -50q63 -54 63 -123q0 -35 -16 -74v-2q0 -17 15 -34q22 -22 70 -57l8 -6l-18 -30l-51 22l-18 -25
l-45 39q-60 55 -127 85q-39 16 -75 41l-64 46l216 -76q-10 17 -31 30q-30 20 -56 58q-21 34 -48 51q-18 9 -46 9q-27 0 -55 -8q-124 -39 -234 -93q-13 -6 -23 -42q-7 -20 -16 -38l-26 14v-1q3 -17 3 -33q0 -42 -45 -42l-15 1q-5 -3 -11 -9.5t-20 -203.5q-5 -45 -5 -60
q-9 -3 -11 -3q-3 0 -6.5 2.5t-17.5 16.5q-10 -7 -19 -12l-2 -2l9 -59h439l-8 -50q28 4 58 4q49 0 96 -10t93 -23l67 -18q-35 -13 -72 -25q-43 -13 -82 -32q-33 -17 -74 -17q-36 0 -70 8t-68 8h-7q-72 0 -121 6q-66 8 -182 8l-149 -1l-14 -188q192 -4 386 -30
q201 -28 415 -135q-43 -5 -103 -14q-73 -13 -142 -13q-30 2 -59.5 11.5t-64.5 10.5q-111 0 -197.5 7.5t-187.5 7.5h-34l18 -55q0 -9 55 -162q23 -62 58 -130q34 -63 89 -92t120 -48q22 -7 46.5 -15.5t51 -14.5t36.5 -10l6 -3q52 34 106 71q1 0 1 1l42 27l5 -12l8 -18
q28 3 43 47l1 1l6 15q28 63 67 126q14 21 52 21q9 0 30 -3l-97 -275l80 20q5 -32 5 -42q0 -66 -83 -75l-13 -1q-22 -3 -27 -6q-44 -29 -71 -29q-25 0 -51 16q-5 2 -12 2q-22 0 -53 -13q-17 -6 -33 -10q-70 -18 -144 -40z" />
    <glyph glyph-name="uni2621" unicode="&#x2621;" horiz-adv-x="1508" 
d="M66 -145l14 73q16 76 26 147q5 29 13 57q15 48 15 84q0 22 -6 46q-2 9 -2 19q0 37 32 107q12 28 133 391q21 62 59 179q45 146 140 375l33 80q57 148 119 289q6 13 31 25l17 10l13 -19l-44 -139l10 -15q8 5 17 9t17.5 9.5t13 14t4.5 22.5q0 10 -2 22l-2 38q14 -9 29 -16
q39 -17 48.5 -36t35.5 -29q38 -14 38 -51v-19q0 -37 6 -75q8 -73 14 -250l-39 -13l-2 -14l46 -11l-2 -66q-18 12 -34 24l-12 -14q13 -14 23 -25.5t14 -14.5q2 -49 5 -94q23 -445 28 -470l4 -23q2 -23 7 -46q7 -35 7 -74q0 -35 -22 -72q-11 -21 -11 -51q0 -33 14 -95l2 -12
l37 80l-12 -123q247 23 290 40q34 15 65 15q56 0 103 -50q18 -22 31 -54l15 -33q-16 -11 -31 -24q-59 -55 -112 -55l-15 1q-168 19 -337 24q-27 -2 -57 -21l-31 -16q-83 61 -83 174l2 46q0 57 -12 115q-5 32 -8 64q-17 151 -20 187q-1 20 -3 39q-21 248 -21 367l2 109
q0 93 -7 166q-3 43 -5 87q0 19 7 85q-10 -4 -20.5 -7.5t-17.5 -7.5q-13 -7 -60 -127q-12 -33 -25 -65l-46 -109q-103 -235 -178 -495l-2 -7q-4 -15 -4 -33l1 -18v-28q-42 -16 -54.5 -51.5t-15.5 -77.5q-2 -20 -6 -40q0 -34 -21 -73q-51 -74 -51 -166q0 -18 2 -37
q-16 4 -29 4q-16 0 -27 -6q-16 -8 -16 -45l2 -30q0 -75 -80 -81z" />
    <glyph glyph-name="currency" unicode="&#xa4;" horiz-adv-x="1491" 
d="M180 198q-8 0 -19 1.5t-23 1.5q9 67 40 117.5t96 88.5q85 48 85 103q0 3 -2.5 33t-95.5 106q0 28 -1 54l-1 37q0 35 4 68q8 56 47 97q44 40 44 78q0 6 -4.5 30.5t-38.5 68.5l-46 63q-55 70 -98 144q-3 6 -3 13t3.5 18.5t12.5 31.5t17 42q248 -179 330 -233q20 -11 51 -11
q45 0 118.5 26t124.5 26q42 0 87 -20q2 -1 5 -1q37 0 123 104q44 54 97 101q24 19 60 30q53 15 74 15q20 0 38 -17q27 -26 27 -56q0 -15 -9 -27q-19 -23 -33 -48q-32 -60 -83 -89q-54 -31 -54 -92q0 -47 24 -93q31 -61 31 -120q0 -20 -9 -69q-8 -44 -53 -156
q-13 -33 -13 -61q0 -12 4.5 -35.5t49.5 -56.5q61 -47 115 -98q24 -22 48 -42q-46 -65 -100 -65q-39 0 -82 33q-46 31 -106 53l-56 23q-38 -16 -74 -38q-92 -59 -161 -59q-34 0 -73 12q-34 12 -70 21q-50 13 -98 30q-23 11 -42 11q-35 0 -55 -36q-24 -36 -60.5 -58t-77.5 -39
q-56 -23 -102 -57q-4 -4 -13 -4zM799 386q22 0 50.5 12t86.5 43l-11 22q-44 -15 -91 -31.5t-104 -35.5q41 -10 69 -10zM631 504q106 8 282 39l5 18l-40 18q21 19 39 37q36 36 72 62q79 56 98 140q5 21 5 40q0 61 -44 111q-49 49 -159 104l-9 5q-28 14 -51 14q-44 0 -71 -52
q-10 -17 -46 -28q-105 -37 -156 -99q-43 -52 -43 -118q0 -64 48 -153q15 -32 32 -71q27 -67 38 -67z" />
    <glyph glyph-name="trademark" unicode="&#x2122;" horiz-adv-x="1711" 
d="M459 810q-30 0 -50 27q-15 20 -15 56v13q10 127 16 254l7 119l1 27q0 67 -35 67q-21 0 -55 -17q-19 -11 -34 -25l-13 -11l-156 65q1 19 1 39l37 9q83 17 131 34q68 21 112 23q32 1 63 9q26 11 49 34l21 18h118l42 72q11 -50 32 -79q16 -21 46 -21q10 0 21 2l-2 -18
q-18 -13 -37 -20q-27 -10 -54 -22q-67 -33 -136 -40q-31 0 -47 -11t-22 -44l-1 -6q-3 -12 -3 -23q0 -16 13 -16q7 0 20 5l2 1q7 0 22 -20q2 -3 3 -3l-18 -36q-21 -33 -26 -65q-9 -152 -9 -314q0 -34 -10.5 -58.5t-33.5 -24.5zM1531 890q-25 0 -43 13q-31 22 -50 411
q0 45 8 89q4 20 6 40q-18 19 -31 19q-19 0 -40 -38q-23 -37 -48 -72q-62 -87 -105 -185l-22 -45l-96 19q-3 63 -30 100t-61 64.5t-60 62.5l-15 -7l-17 -424q-35 -15 -68 -16q-10 1 -22 11t-14 20q-12 83 -12 165v52q0 44 36 122q7 16 8 37q1 13 4.5 26.5t3.5 28.5l-1 20
q0 20 5 39t33 30q3 1 4 10.5t2 21.5t2 23l10 61l5 26l18 5l5 2l32 -53q69 -120 165 -220q22 -23 44 -48q15 8 21 27t10 43q4 35 17 60q11 21 41 21l14 -1l6 58l41 -7q7 9 13 20.5t13.5 22.5t21.5 11q17 0 39 -11q14 -6 31 -12q28 19 46 19q9 0 21 -9.5t18 -84.5l1 -44v-22
q0 -73 12 -123t27 -280l7 -90q-34 -8 -56 -8z" />
    <glyph glyph-name="copyright" unicode="&#xa9;" horiz-adv-x="1956" 
d="M961 -185q-136 2 -230 126q-24 31 -53.5 48.5t-61.5 31.5q-24 10 -48 23q-146 78 -245 190t-122 276q-19 158 -36 316l-15 141q9 1 18 2.5t17.5 3.5t18.5 4q-26 43 -26 80q0 10 5 37.5t61 63.5l-26 41q12 15 26 28q30 28 49 60q107 198 295 334q21 15 40 30
q59 47 120.5 88.5t133.5 67.5q24 9 48 9q12 0 35.5 -4t54.5 -36l-25 1q-123 0 -222 -89l5 -19l120 13q50 8 99 8q35 0 93 -7t135 -53q40 -21 91 -26l28 -4q58 -11 178 -29l-12 -17l17 -25q34 -50 104 -135q112 -134 112 -145q0 -9 -3.5 -20t-4.5 -19q55 -76 55 -164
q0 -37 -10 -76q32 -10 32 -34q0 -13 -4.5 -26.5t-4.5 -25.5q-2 -17 -9.5 -35.5t-7.5 -31.5l1 -10q9 -27 9 -53q0 -37 -30 -105q-17 -34 -24 -75q-6 -33 -18 -63q-14 -25 -42 -47l-25 -23q-3 -52 -32 -94t-66 -80q-34 -36 -62.5 -75t-63.5 -73t-90 -49.5t-107 -41.5
q-101 -48 -170 -51q-96 -3 -200 -9q-48 -3 -101 -5l53 -33q52 -29 90 -62q32 -28 62 -28q39 0 130 39q58 23 72 23q10 0 48 -11l8 53l43 -69q-192 -30 -239 -45q-35 -13 -71 -15zM316 1006q4 3 9 5q14 5 17 11q64 131 75 194l5 26l-18 3l-39 -71l-20 57l-37 -76q15 0 57 2
l-17 -32q-44 -85 -44 -93q0 -3 1.5 -7t5 -9t5.5 -10zM721 93q27 0 66 16l-127 49q7 -65 61 -65zM1054 49q37 0 71 7q111 36 243 166q45 38 63 69q53 97 73 142l45 -28l8 17q13 25 35 121q48 196 86 319q9 22 26 41q8 8 14 17q-2 3 -7 7.5t-10 11.5q-9 11 -9 77l1 49
q0 127 -37 225q-27 72 -111 109q-107 41 -219 71q-64 18 -127 38q-46 14 -102 14q-34 0 -67 -3t-65 -3l-37 1q-75 0 -148 -24q-67 -21 -139 -27q-65 -4 -117 -51.5t-64 -124.5v-7q0 -19 9 -45l11 -38q-12 -17 -29.5 -44.5t-35.5 -54.5q1 -9 4 -18.5t3 -20.5q0 -21 -40 -93
l-18 -34q47 -5 52 -7l-95 -69l13 -22q15 -21 16 -38q-1 -8 -7.5 -16.5t-13 -15.5t-10.5 -12q14 -5 14 -24q0 -10 -2.5 -21.5t-2.5 -22.5v-12q0 -21 42 -21h13q-1 -6 -6 -18l-81 -22v-70l55 -22l-29 -21q22 -14 22 -34q0 -15 -6 -31l-4 -19q0 -12 15 -27q13 -17 27 -33
q30 -31 49 -67q27 -59 63 -59q22 0 58 14l6 -87l11 -2l36 67q20 -18 47 -45l4 8t3 7t2 3l48 -19q53 -18 100 -43q35 -19 68 -19q34 0 78 12q19 5 37 8q60 12 119 25l53 11q2 -9 5 -17l-203 -81l4 -20q24 0 50 -2q20 -2 40 -2zM878 402h-4q-39 0 -105 44l-42 25
q-14 8 -25 19.5t-22 19.5q-61 36 -62 102l9 126q10 108 13 217q1 32 17 52t35.5 35t33.5 32q45 51 114 68q81 21 155 55q125 56 212 56q23 0 47 -2q33 -3 67 -3q-11 -46 -39 -61t-63 -20l-22 -5q13 -12 60 -65l-182 -16l22 -27q-12 2 -25 2q-51 0 -113.5 -28.5t-113.5 -85.5
t-57 -124q1 -13 8 -25.5t10 -23.5q14 -72 14 -99q0 -14 -2 -29t-2 -29q0 -27 15 -47t67 -36q36 -12 67 -12q70 0 159 84l8 9q13 15 22 15q10 0 22 -19h1q2 0 13.5 4.5t31 13t41.5 17.5l-50 -103q10 -15 10 -29q0 -8 -6 -22t-62 -24q-62 -10 -123 -29q-76 -24 -154 -32z" />
    <glyph glyph-name="registered" unicode="&#xae;" horiz-adv-x="1956" 
d="M784 381q-33 0 -33 31l2 15q12 59 12 115q0 106 -52 279l-24 87q-2 15 -2 30t2 31q3 30 3 38q2 42 10 83q9 32 30 59q7 8 36 25q-46 33 -57 39l35 20q49 31 65 36q36 20 76 20q63 0 159 48q32 14 64 14q38 0 77 -21q49 -21 104 -31l47 -11l-1 -7q-48 0 -65.5 -21.5
t-28.5 -62.5q-19 -52 -24.5 -107t-27.5 -102q-30 -54 -121 -119q-6 -3 -10 -6t-8 -3q-8 0 -18 12t-16 36q-4 14 -4 27q0 10 2 19q17 -22 25.5 -30t16.5 -8q9 0 39 14q-62 31 -67 31q54 93 73 118q41 56 41 83q0 19 -20 39.5t-69 24.5l-9 -46h-12q-19 0 -38 11
q-102 -87 -134 -118q-21 -23 -31 -55q0 -4 2 -7.5t2 -9.5q-2 -13 -2 -25q0 -85 104 -93l39 51q6 -12 13.5 -24.5t10.5 -19.5t3 -12v-2q-14 -23 -14 -40q0 -24 28 -53q13 -14 21 -28q16 -27 44 -47q38 -31 57 -70q9 -15 30 -57l17 -94q-203 144 -341 243q0 -80 -1 -159
q0 -63 3 -121q0 -16 -4 -33t-32 -30q-15 -6 -27 -6zM370 356l-84 80l17 19l82 -82zM447 348v-2q1 0 1 1t-1 1zM1712 989q47 15 64.5 34.5t17.5 67.5q0 92 -134 152q67 -84 67 -171q0 -41 -15 -83zM860 -58q-21 110 -127 110q-42 0 -98 -17q22 -10 225 -93zM588 1441l132 59
l-14 30l-128 -68zM1231 1528l2 16l-177 25l-3 -24zM448 347q18 -48 23 -71q25 -119 136 -150q259 -68 281 -68q11 0 23 2q1 1 120 20q25 5 51 9l-114 62q2 16 4 22q88 0 121 22q91 63 129 112q18 22 39 40t53 20q4 2 7 10q13 43 41 73t63 55q55 37 64 80q17 94 96 134
q11 7 21 35q47 122 47 241l-1 61q0 51 3 57q1 9 1 23q0 29 -23 29q-8 0 -20 -4q-14 26 -14 33l1 18q0 54 -29 104t-83 69q-29 9 -59 15q-35 7 -69 18t-64 35q-5 3 -12 4l-15 -1q-24 0 -49 -3q-37 -3 -74 -3q-59 3 -118 8q-85 8 -169 8l-50 -1q-115 -8 -260 -111l-4 13
q-43 -26 -77 -53q-12 -12 -27 -42l16 -9l19 26l11 -59q-30 4 -40 4l-27 -71l35 -27l-81 -67q18 -21 18 -34q0 -19 -34 -37q-23 -9 -25 -21q12 -38 12 -45t-14 -55.5t-14 -80.5q0 -64 44 -86q-4 -14 -9 -26q-10 -19 -10 -33l1 -6q29 -84 73.5 -156.5t122.5 -118.5
q107 -61 341 -189q-19 -2 -36 -2q-52 0 -100 19q-42 20 -79 47t-75 47q-19 10 -38 24q-44 34 -78 34q-13 0 -26 -3zM447 348l1 12q0 42 -52 69q-33 18 -33 42q0 10 6 22l-90 115l-13 -9l18 -55l-44 -13l68 -52l-11 -19l-80 41l1 -56q0 -109 69 -182q21 -23 38 -51t40 -51
q30 -31 83 -31l11 1q18 0 22 -7q18 -31 44 -40t56 -12q20 -2 41 -6q-17 22 -22 24q-79 32 -114 96t-51 145v5q0 5 1 9t1 8zM927 -92l-12 1q-215 27 -365 109q-32 16 -68 24q-27 7 -53 18q-105 43 -145 119q-20 38 -50 68q-56 49 -56 121q0 14 2 29q0 6 -2.5 12.5t-5.5 12.5
t-5 11q-4 9 -9.5 18.5t-8.5 16t-3 11.5v3q13 43 13 84q0 22 -3.5 45t-3.5 47q0 26 4 53q12 66 19 134q4 45 11 90q1 5 6 10t12 10t15 12q-7 14 -7 26l1 8q19 54 36 109q23 82 55 160.5t88 144.5q151 172 312 215q169 41 341 68q69 11 138 24q4 0 36 -15l-127 -44l6 -15
q30 -7 60 -12q70 -12 138 -30q71 -22 178 -66q24 -9 33 -28q52 -92 179 -192l56 -48q49 -46 68 -119q9 -35 9 -68q0 -36 -11 -71q-28 -95 -47 -193q-15 -59 -36 -112q-10 -24 -18 -49q-11 -43 -33 -76q-17 -25 -28 -54t-28.5 -54.5t-53.5 -38.5q-17 -8 -34 -49
q-22 -62 -163 -170q-34 -25 -124 -77l12 -25l157 64q4 -14 9 -27l-69 -15q-3 -39 -24 -49.5t-50.5 -11.5t-54.5 -14l38 -21q-14 -4 -26 -10q-23 -11 -45 -13q-61 -3 -139.5 -57t-123.5 -54z" />
    <glyph glyph-name="bracketleft" unicode="[" horiz-adv-x="801" 
d="M297 -342q-96 9 -170 17v181q-6 4 -7 4.5t-2.5 1t-1.5 40.5l1 35q0 38 -8 160q-11 215 -11 271q0 61 10 120q19 89 19 211q0 45 -1.5 89.5t-1.5 87.5q0 44 1 87q20 310 30 393q10 66 10 130l-1 46q-9 50 -49 99q-17 24 -32 49q35 45 87 70q33 16 55 16q12 0 21 -5
q178 81 362 94q42 -1 86 -26q20 -11 40 -19v-17l-46 -15l-63 -22l30 -23l-107 -16l26 -36q6 -7 11 -15l-148 -17l106 66l-174 -45q0 -5 2 -13l15 -2l44 -7l-134 -40q-30 -259 -38 -391v-9q0 -52 10 -103q16 -82 16 -217l-1 -47q-5 -101 -46 -198q-22 -49 -22 -96
q0 -42 30 -81q3 -6 4 -15l1 -9l-42 24l12 -195l2 -1l1 -24l4 -51l7 -64q13 -93 13 -152l-1 -48q0 -20 2 -40q1 -10 12 -19.5t21 -10.5q21 1 42 9l26 7q134 30 280 53h2q14 2 31 2q39 0 39 -42v-8l-231 -26q40 -11 81 -14q50 -2 96.5 -18t82.5 -72h-1q-3 -14 -24 -26
q-77 -32 -163 -32h-10q-33 -3 -68 -17q-16 -6 -32 -10v41q-12 -8 -24 -18.5t-23.5 -18t-21.5 -7.5q-17 0 -44 17q-21 14 -49 20zM400 1705l120 47l-8 21l-120 -44zM434 1648h-4l7 1z" />
    <glyph glyph-name="bracketright" unicode="]" horiz-adv-x="801" 
d="M398 15q-8 0 -13 3q-30 15 -36 39q0 6 6 13t11.5 11t6.5 7l51 -71q-6 0 -12.5 -1t-13.5 -1zM481 -290q-52 30 -107 30q-52 0 -121 -15t-140 -15q6 42 8 49l-27 19q-43 24 -43 53q0 32 55 51q159 66 318 135v1h1l2 52q4 141 16 166q8 17 9 33q-2 59 -7.5 118.5t-5.5 89.5
q0 36 19 112q5 16 9 35l22 3q-16 44 -16 86q0 3 0.5 26t33.5 67q17 27 18 66q1 27 16 85q20 72 20 103q0 18 -5 37t-5 38q0 28 12 98q13 74 13 117q0 24 -3 48q-4 36 -4 142v171q-29 5 -63 5q-26 0 -58.5 -6.5t-53.5 -63.5q-8 -17 -21 -19q-154 0 -292 -6l114 26
q-52 22 -52 46q0 1 1 14.5t42 41.5l-146 37l4 20l61 6l-30 34q52 24 126 24q41 0 83 -3q48 -3 96 -3q49 0 98 6q14 2 26 2q51 0 111 -42q5 -4 5 -21q0 -13 3 -23q11 -19 28 -21q71 -13 82 -51q5 -18 5 -38q0 -22 -6 -47q-5 -32 -5 -80v-58q0 -87 -12 -221q-1 -27 -18 -48
q-11 -11 -11 -20q0 -11 18 -20q1 -1 1 -4l-1 -7q-5 -21 -10 -29q-15 -24 -15 -64l1 -28q0 -34 -14 -71q-10 -30 -23 -106l-15 -69q-16 -67 -16 -133q0 -30 2 -59q2 -34 2 -67q0 -53 -10.5 -133.5t-10.5 -134.5q1 -48 3.5 -97t3.5 -100q0 -21 -10 -39q-26 -39 -26 -63
q0 -6 4 -21t58 -38q-3 -6 -20 -52l38 -6z" />
    <glyph glyph-name="bar" unicode="|" horiz-adv-x="498" 
d="M237 -403l-82 146l-20 -7l25 65l-10 -3q0 155 -5 247q-6 128 -6 353q0 186 -2 214q-2 35 -2 70q2 170 15 177t25 12q-11 108 -11 216q0 170 26 378q21 215 25 433l36 -15q41 -15 75 -35q10 -8 17 -26t7 -34q1 -29 7.5 -59.5t6.5 -60.5q0 -4 -0.5 -23t-28.5 -49
q18 -40 18 -80q0 -42 -12 -94q-9 -43 -11 -85q-5 -63 -18 -175q-10 -84 -16 -169q-7 -121 -12 -395q-9 -276 -9 -351q0 -154 24 -325q7 -54 12 -108l23 -201q-6 -4 -18 -10l-50 154q-9 -16 -9 -36t3.5 -38.5t3.5 -33.5q0 -9 -1.5 -24.5t-25.5 -27.5z" />
    <glyph glyph-name="degree" unicode="&#xb0;" horiz-adv-x="1307" 
d="M808 725l-23 14l19 -16zM578 775q18 0 33 8q50 29 103 50.5t102.5 50t87.5 79.5q23 30 61 52q18 12 36 25l5 18q7 34 21 62q36 77 36 125q0 27 -9 57q-39 116 -133 163q-50 25 -101 25q-45 0 -89 -20q-103 -50 -202 -109l-60 -35q-56 -34 -89.5 -111.5t-33.5 -165.5
q0 -2 0.5 -47.5t52.5 -112.5q49 -59 111 -93q37 -21 68 -21zM808 725l31 -19q-148 -85 -284 -85l-25 1q-35 -1 -70 -19q-52 -25 -88 -25q-67 0 -89 87l-20 63l-10 34q-32 -16 -74 -16q-5 0 -25.5 1t-42.5 58l46 19q-10 53 -10 104q0 104 54 274q3 8 5 17q34 17 50 36.5
t16 59.5v10q0 26 26.5 54t60.5 56l31 26q30 27 65 50q50 31 88 72q29 34 64 41q26 5 53 5l34 -1q22 0 43 4q56 10 111.5 13t109.5 12l21 1q49 0 93 -34q49 -38 49 -103v-7q0 -39 11 -74q48 -122 48 -227q0 -48 -21.5 -141t-167.5 -219q-60 -50 -127 -91z" />
    <glyph glyph-name="divide" unicode="&#xf7;" horiz-adv-x="1104" 
d="M252 527q-70 0 -140 5q-9 1 -19 19q-21 36 -21 61q0 28 35 56q28 23 52 23q40 0 80.5 -15t56.5 -15q23 0 28 5q82 14 127 30q96 37 194 45q68 5 137 5l59 -1q38 -1 81 -1h16q39 0 63.5 -9t31.5 -57q0 -69 -17 -85q-8 -7 -22 -7q-18 0 -46 11l-14 2q-8 0 -14.5 -1.5
t-8.5 -4.5q-26 -50 -61 -55q-12 -2 -25 -2q-23 0 -47 6t-47 6l-20 -1q-102 -15 -205 -15h-35q-43 0 -85 -1q-92 -4 -134 -4zM583 119q-69 5 -118.5 52t-50.5 109q5 62 55.5 122t99.5 64q56 -6 113 -64.5t60 -112.5q-3 -32 -31 -71.5t-64 -68.5t-64 -30zM528 809
q-39 0 -82 37q-70 59 -70 110q0 47 23 77q38 38 94 61l44 22q81 -15 128 -78q34 -46 34 -98q0 -34 -5 -39q-5 -23 -13 -28q-22 -10 -45 -23q-67 -41 -108 -41z" />
    <glyph glyph-name="multiply" unicode="&#xd7;" horiz-adv-x="1010" 
d="M209 233l-54 97l9 11q101 135 201 259q24 30 24 46q0 18 -49 52q-49 31 -88 80q-39 60 -69 128q-16 34 -33 67l33 55l319 -232l32 37q54 65 112 125q46 39 95 55l3 2q16 5 19 5q15 0 34 -10q9 -4 55 -21l-236 -287l25 -35q39 -58 82 -108.5t92 -95.5l62 -60l-36 -35
l25 -54l-30 -13q-12 -6 -22 -6q-8 0 -14 6q-125 99 -198 172q-42 41 -86 77l-2 1q-7 0 -13 -2q-19 -7 -71 -96l-21 -34l-1 -3q-3 -13 -13 -22q-92 -60 -123 -82q-11 -9 -25 -29z" />
    <glyph glyph-name="exclamdown" unicode="&#xa1;" horiz-adv-x="567" 
d="M294 1159q-63 0 -133 28q-81 32 -81 85q0 61 50.5 115.5t131.5 68.5l18 1q55 0 104.5 -46t70.5 -124q2 -10 2 -20q0 -36 -34 -66.5t-104 -40.5zM332 844l14 -1q54 -93 63 -173t9 -140q0 -39 -3 -77l-1 -45q0 -177 71 -409q19 -59 19 -119q0 -50 -23 -135q-7 -27 -13 -55
q-38 -32 -61 -61q-27 -32 -56 -32q-28 0 -58 29q-35 35 -75 67l-34 29q-10 -4 -21 -7l3 50q3 96 32 238q28 125 34 250q-1 165 -20 329q-17 162 -17 197q0 37 12 48q16 17 97 17h28z" />
    <glyph glyph-name="questiondown" unicode="&#xbf;" horiz-adv-x="1220" 
d="M696 1218q-126 8 -126 76q0 35 28 88q39 65 99 112q23 20 42 39q14 -11 26 -19q25 -17 42.5 -34t37.5 -33q26 -22 46.5 -44t21.5 -44q-1 -43 -31.5 -80.5t-93.5 -38.5q-22 -2 -45.5 -12t-46.5 -10zM318 -403q-29 0 -50 41h93l-64 44q-84 58 -161 115q-25 18 -25 75
q0 29 2.5 56t2.5 52q0 49 -12 94q-4 13 -4 22q0 17 15 29q6 6 10 13q67 122 138 241q64 116 193 154q53 18 112 88t69 124q6 54 15 107q10 66 17 132q6 54 42 54q16 0 37 -9l82 -32l-51 -235l-12 -59l29 17l10 -7q-11 -17 -21 -35q-21 -41 -50 -73q-75 -78 -152 -155
q-103 -101 -201 -206q-33 -39 -51 -92q-31 -72 -55 -111.5t-24 -71.5q0 -57 78 -87q69 -22 130 -61q43 -26 85 -26q44 0 102 17q6 0 88 24l34 9q21 27 44 54q55 61 93 132q34 77 52 162q8 36 18 72q59 -29 89 -92q21 -43 21 -87q0 -21 -5 -43l-17 -60q-14 -44 -14 -55
q0 -5 2 -7q22 -17 22 -30q0 -7 -6.5 -14t-30.5 -23q-15 -13 -26 -29q-20 -27 -69 -70q-64 -57 -129 -76q-33 -12 -63 -27q-46 -24 -121 -24h-9q-34 0 -66 -6q-103 -21 -209 -24q-14 0 -27 -1z" />
    <glyph glyph-name="percent" unicode="%" horiz-adv-x="1724" 
d="M1148 -50q37 0 81 22l-62 6l4 1q33 19 59 41t40 60q17 40 50 76q20 24 37 49q17 30 17 57q0 7 -1.5 14t-1.5 16q0 23 14 51t49 44q-4 12 -9 23q-13 25 -15 49q0 83 -34 112q-27 23 -86 23q-79 0 -123 -35q-34 -28 -63 -63q-17 -21 -36 -40q-5 -5 -5 -24l-4 -24
q-5 -49 -18 -79q-9 -20 -10 -39q2 -77 7 -153q3 -40 5 -81q6 -71 59 -96q21 -10 46 -10zM398 1062q17 0 24 7q97 126 120 175q9 28 28 48q52 50 77 113t42 139q-6 10 -13.5 23t-17.5 27.5t-24 24.5q-40 22 -81 22q-57 0 -131 -34q-131 -60 -174 -195l-3 -6q-18 -49 -18 -92
q0 -40 32 -78q22 -26 34 -61q23 -65 83 -109q9 -4 22 -4zM300 -211l-3 16q-4 19 -5 39q1 6 9 15l9 11l-66 50l15 139l11 -12l79 70l-9 15l-56 -13l12 35q35 110 61 130q13 12 21 25l101 204q46 97 94 193q114 232 321 554q10 15 31 26l3 2l37 125h10l5 -32q19 120 143 156
l-33 2l54 39q42 33 89 59q25 12 56 13q14 1 27 4l8 -19l-71 -123q-81 -141 -142 -213q-52 -63 -95 -132q-46 -75 -73 -102q-35 -33 -70 -101l-11 -21q-3 -5 -5 -13t-33 -56q-25 -40 -48 -81q-124 -231 -175 -339q-16 -39 -21 -82q-5 -31 -13 -59l-16 -34q-40 -86 -49 -118
q-15 -55 -38 -72q-43 -32 -61 -73t-27 -85q-7 -30 -17 -59q-3 -9 -5 -19q-2 -17 -10 -30q-12 -14 -29 -24zM310 957h-3q-59 7 -87 42q-61 74 -76 193l-6 33l5 60q3 77 17 143t63 118q35 34 77 62q46 30 83 69q50 51 137 51q75 0 144 -34t89 -96q13 -45 13 -91v-17
q-11 -114 -76 -217q-22 -40 -48 -71q-21 -25 -56 -40q-7 -3 -7 -25q0 -47 -67 -95q-50 -37 -107.5 -61t-94.5 -24zM1203 -136q-60 0 -105 41q-11 -7 -20 -14.5t-16.5 -12.5t-12.5 -5h-2q-71 13 -95 39q-23 31 -33 73q-9 34 -14 40l-5 5q27 22 27 39q0 20 -24 46
q-36 41 -36 131q0 95 63 217q25 55 60 99t93 73q10 6 13 36l2 12q91 102 199 110q20 2 41 2q88 0 182 -28l16 -21l-8 -2q-20 -4 -27 -8t-25 -12q64 -11 64 -36q0 -4 -3 -13.5t-13.5 -25t-16.5 -30.5h6q61 0 61 -40q0 -19 -9 -44l-5 -17q-34 -162 -96 -317q-20 -60 -69 -149
q-38 -70 -100 -126q-18 -13 -50 -21q-17 -4 -39 -12q28 -5 45 -7.5t31 -5.5q-42 -16 -79 -16z" />
    <glyph glyph-name="asciitilde" unicode="~" horiz-adv-x="1508" 
d="M212 266l-85 171l32 30l13 -6q-7 28 -7 57q0 57 28 120q11 27 14 37q17 41 52 70q38 32 79 57q55 41 117 41q48 0 103 -29q25 -12 47 -21q38 -14 71 -40q37 -36 58 -87v-2q15 -28 34 -75q16 -44 39 -82q18 -27 49 -27q24 0 52 15t71 38.5t76 40.5l51 28q25 11 50 15
t38 12l8 7q30 73 30 134q0 25 -7 55q-7 24 -8 47q0 16 5 30l10 23q45 -49 101 -86l38 -26l6 -5l-3 -11q-3 -14 -8 -25.5t-5 -24.5q0 -14 5 -31q7 -22 7 -36q0 -23 -18 -33q-6 -6 -6 -8q-6 -50 -57 -114q-7 -9 -13 -19q-77 -104 -227 -114q-3 -1 -8 -1q-37 0 -45 -5
q-63 -50 -113 -50q-51 0 -102 39q-65 40 -114 92.5t-59 126.5q-14 90 -105 95h-6q-121 0 -188 -75q-40 -50 -40 -137q0 -21 2 -44l1 -13q0 -45 -39 -109z" />
    <glyph glyph-name="uni1E9E" unicode="&#x1e9e;" horiz-adv-x="1376" 
d="M113 -92l-27 5v348q-1 31 -1 63q0 178 23 337l21 182q12 110 26 220q9 67 36 206l31 191q-6 3 -15 9q47 18 93 38q22 10 39 27l67 68q37 39 75 76q31 29 75 31q45 0 76 -25q25 -24 57 -24q14 0 30 5q46 13 90 13q26 0 72 -9t101 -66q37 -35 88 -57h1q138 -68 138 -199
q0 -27 -6 -57q-4 -32 -4 -64t-2.5 -51.5t-18.5 -67.5q14 -14 18 -19l3 -8q-69 -122 -118 -183q-9 -10 -19 -23q31 -24 113 -93l11 -10q35 -26 51 -58q8 -21 18 -42q35 -74 35 -118q0 -21 -6 -43q-1 -6 -1 -13q0 -18 8 -39q11 -35 11 -81q0 -133 -86 -259
q-137 -206 -410 -206l-55 -1q-23 -2 -45 -2l-30 1q-215 7 -224 198l-1 42q0 42 4 85v15q2 15 21 23q8 0 16.5 -3t36.5 -54q41 -79 122 -177q32 -35 70 -36q43 0 80 16q24 10 49 19q69 26 135 59l11 6q33 14 59.5 37.5t26.5 68.5q12 -14 23 -25q2 5 5.5 10.5t5.5 9.5l1 5
q-30 17 -30 40t11 45q6 15 9 27q18 96 54 189q8 22 16.5 46.5t8.5 45.5q0 16 -9 39t-58 46q-91 44 -188 72q-18 4 -38 4q-18 0 -34.5 -2.5t-31.5 -3.5l-75 -6l-3 15l75 22l-200 33q12 51 52 76q33 21 79 21l19 -1q38 0 66 14q80 49 117 121.5t55 154.5q8 31 19 62q7 21 7 41
q0 53 -71 112l-18 17q-50 49 -108 86q-35 20 -79 20q-20 0 -47 -10q-39 -16 -65 -16q-22 0 -46 12q-5 2 -11 2q-20 0 -50 -19l25 -3q6 0 11 -1l-60 -60q-75 -71 -139 -148q-28 -42 -35 -98l-7 -32q-18 -81 -31 -162q0 -13 2.5 -21.5t2.5 -16.5q0 -17 -15 -52l-11 -29
q-7 -12 -7 -23q5 -44 19 -136q0 -14 -5 -23q-30 -50 -38.5 -102.5t-9.5 -106.5q-2 -40 -6 -80q-7 -48 -21 -96q-17 -66 -25 -153q-4 -72 -18 -144q0 -6 12 -18q6 -6 12 -14l-62 -19zM457 1590q99 28 180 52q-28 33 -61 33q-53 0 -119 -85zM1141 1346q25 30 25 56
q0 10 -7.5 31.5t-62.5 35.5zM1046 984q8 4 17 7q25 7 29 16q6 17 18 34q22 30 22 54q0 18 -16 41q-15 -55 -25 -73q-16 -24 -37 -45l-18 -19z" />
    <glyph glyph-name="germandbls" unicode="&#xdf;" horiz-adv-x="1376" 
d="M113 -92l-27 5v348q-1 31 -1 63q0 178 23 337l21 182q12 110 26 220q9 67 36 206l31 191q-6 3 -15 9q47 18 93 38q22 10 39 27l67 68q37 39 75 76q31 29 75 31q45 0 76 -25q25 -24 57 -24q14 0 30 5q46 13 90 13q26 0 72 -9t101 -66q37 -35 88 -57h1q138 -68 138 -199
q0 -27 -6 -57q-4 -32 -4 -64t-2.5 -51.5t-18.5 -67.5q14 -14 18 -19l3 -8q-69 -122 -118 -183q-9 -10 -19 -23q31 -24 113 -93l11 -10q35 -26 51 -58q8 -21 18 -42q35 -74 35 -118q0 -21 -6 -43q-1 -6 -1 -13q0 -18 8 -39q11 -35 11 -81q0 -133 -86 -259
q-137 -206 -410 -206l-55 -1q-23 -2 -45 -2l-30 1q-215 7 -224 198l-1 42q0 42 4 85v15q2 15 21 23q8 0 16.5 -3t36.5 -54q41 -79 122 -177q32 -35 70 -36q43 0 80 16q24 10 49 19q69 26 135 59l11 6q33 14 59.5 37.5t26.5 68.5q12 -14 23 -25q2 5 5.5 10.5t5.5 9.5l1 5
q-30 17 -30 40t11 45q6 15 9 27q18 96 54 189q8 22 16.5 46.5t8.5 45.5q0 16 -9 39t-58 46q-91 44 -188 72q-18 4 -38 4q-18 0 -34.5 -2.5t-31.5 -3.5l-75 -6l-3 15l75 22l-200 33q12 51 52 76q33 21 79 21l19 -1q38 0 66 14q80 49 117 121.5t55 154.5q8 31 19 62q7 21 7 41
q0 53 -71 112l-18 17q-50 49 -108 86q-35 20 -79 20q-20 0 -47 -10q-39 -16 -65 -16q-22 0 -46 12q-5 2 -11 2q-20 0 -50 -19l25 -3q6 0 11 -1l-60 -60q-75 -71 -139 -148q-28 -42 -35 -98l-7 -32q-18 -81 -31 -162q0 -13 2.5 -21.5t2.5 -16.5q0 -17 -15 -52l-11 -29
q-7 -12 -7 -23q5 -44 19 -136q0 -14 -5 -23q-30 -50 -38.5 -102.5t-9.5 -106.5q-2 -40 -6 -80q-7 -48 -21 -96q-17 -66 -25 -153q-4 -72 -18 -144q0 -6 12 -18q6 -6 12 -14l-62 -19zM457 1590q99 28 180 52q-28 33 -61 33q-53 0 -119 -85zM1141 1346q25 30 25 56
q0 10 -7.5 31.5t-62.5 35.5zM1046 984q8 4 17 7q25 7 29 16q6 17 18 34q22 30 22 54q0 18 -16 41q-15 -55 -25 -73q-16 -24 -37 -45l-18 -19z" />
    <glyph glyph-name="Lslash" unicode="&#x141;" horiz-adv-x="1307" 
d="M283 1445q56 9 56 51q0 30 -29 77zM308 636q-8 -90 -21 -154q-15 -81 -15 -107t4 -55.5t4 -61.5q0 -18 -1 -38t-1 -41q0 -12 5 -52q24 7 125 29q90 18 240 53q131 33 182 42q53 9 78 9q11 0 38.5 -2t66.5 -44q8 -8 26 -8t39.5 3t40.5 3v-57h138l42 -45q-16 -3 -29 -8
q-19 -7 -33 -7q-8 0 -15.5 2.5t-13.5 2.5q-15 0 -26.5 -14t-23.5 -16q-69 -9 -137 -21q-121 -20 -201 -30.5t-395 -60.5l-63 -10q-25 -3 -44 -13t-24 -41q0 -3 -10 -8.5t-14 -5.5q-20 23 -39 23q-3 0 -15 -2t-45 -22l-1 12l1 6q0 10 -3 11q-63 22 -78.5 68t-15.5 100
q-6 62 -7 152q-3 20 -3 150v18q-28 -12 -76 -25l-14 165q-13 3 -31 10l94 104l-22 21h55l-15 16l78 109v1q8 63 17.5 125t17.5 124q25 229 64 362q10 45 10 95q0 27 -3 56q-4 36 -4 73l39 -61l62 148q1 -1 2.5 -1t3.5 -1l-5 -21q-8 -25 -9 -50q0 -6 4.5 -12t10.5 -12t11 -12
l7 10q11 11 13.5 22t3.5 22q3 41 21 82v-216l3 4q13 16 20.5 25.5t13.5 15.5q-55 -241 -55 -292v-23q0 -45 -21 -147q-18 -93 -21 -122q-2 -23 -5 -46q11 13 23 28q46 62 76 98q14 12 35 16q48 9 48 51l-1 17l-92 -16l-3 19q12 2 25 3q57 9 66 9l11 -1q12 0 22 1
q19 2 158 155l38 42q35 41 77 71q39 26 94 26h12q-67 -134 -122 -221q-50 -79 -122 -143q-108 -96 -200 -208q-71 -82 -123 -177q-15 -34 -48 -79z" />
    <glyph glyph-name="lslash" unicode="&#x142;" horiz-adv-x="1307" 
d="M283 1445q56 9 56 51q0 30 -29 77zM308 636q-8 -90 -21 -154q-15 -81 -15 -107t4 -55.5t4 -61.5q0 -18 -1 -38t-1 -41q0 -12 5 -52q24 7 125 29q90 18 240 53q131 33 182 42q53 9 78 9q11 0 38.5 -2t66.5 -44q8 -8 26 -8t39.5 3t40.5 3v-57h138l42 -45q-16 -3 -29 -8
q-19 -7 -33 -7q-8 0 -15.5 2.5t-13.5 2.5q-15 0 -26.5 -14t-23.5 -16q-69 -9 -137 -21q-121 -20 -201 -30.5t-395 -60.5l-63 -10q-25 -3 -44 -13t-24 -41q0 -3 -10 -8.5t-14 -5.5q-20 23 -39 23q-3 0 -15 -2t-45 -22l-1 12l1 6q0 10 -3 11q-63 22 -78.5 68t-15.5 100
q-6 62 -7 152q-3 20 -3 150v18q-28 -12 -76 -25l-14 165q-13 3 -31 10l94 104l-22 21h55l-15 16l78 109v1q8 63 17.5 125t17.5 124q25 229 64 362q10 45 10 95q0 27 -3 56q-4 36 -4 73l39 -61l62 148q1 -1 2.5 -1t3.5 -1l-5 -21q-8 -25 -9 -50q0 -6 4.5 -12t10.5 -12t11 -12
l7 10q11 11 13.5 22t3.5 22q3 41 21 82v-216l3 4q13 16 20.5 25.5t13.5 15.5q-55 -241 -55 -292v-23q0 -45 -21 -147q-18 -93 -21 -122q-2 -23 -5 -46q11 13 23 28q46 62 76 98q14 12 35 16q48 9 48 51l-1 17l-92 -16l-3 19q12 2 25 3q57 9 66 9l11 -1q12 0 22 1
q19 2 158 155l38 42q35 41 77 71q39 26 94 26h12q-67 -134 -122 -221q-50 -79 -122 -143q-108 -96 -200 -208q-71 -82 -123 -177q-15 -34 -48 -79z" />
    <glyph glyph-name="longs" unicode="&#x17f;" horiz-adv-x="652" 
d="M464 1671q-2 1 -2 2zM155 -42q-28 0 -84 16q-38 120 -38 191q0 45 17 103q16 48 16 96l-3 64q0 36 5 74q4 48 4 91q0 51 -3 105q-4 59 -4 137q0 159 13 315q7 63 30 123q-26 10 -53 19q0 20 10 51.5t10 57.5q0 21 -23 27q-17 5 -17 19q0 26 21 42q32 25 52 49
q56 65 101 65q20 0 32 2q21 3 54 45q11 13 22 13q5 -1 17 -1t35 4q17 2 26 2q48 -8 58 -8q13 0 13 6q0 3 -2 5q10 -10 26 -10l15 1q37 0 104 -50q-2 -5 -3 -12q-20 0 -37 -9q12 -55 12 -127q-36 8 -48 9t-23.5 4.5t-21.5 3.5l-10 -1q-13 -5 -23 -5t-24 7t-48 13h-7
q-6 0 -6 -1q-8 -8 -17 -14q-24 -16 -24 -31q-3 -18 -21 -35q-40 -39 -40 -114q0 -58 17 -101q9 -24 9 -50q0 -29 -16 -89q-18 -56 -18 -113q0 -122 -44 -293q0 -10 12 -31q-33 -5 -37 -24q-2 -8 -2 -17q0 -11 2.5 -22t3.5 -20q6 -105 18 -209q1 -4 4 -33q8 -57 10 -164
q0 -42 -6 -93t-45 -79q-7 -4 -21 -4z" />
    <glyph glyph-name="uni05D5" unicode="&#x5d5;" horiz-adv-x="726" 
d="M524 -42q-14 0 -21 4q-39 28 -45 79q-9 74 -9 195q0 68 7 95q9 78 9 157l-1 52q1 9 3.5 20t2.5 22q0 9 -2 17q-4 19 -37 24q12 21 12 31q-17 121 -17 197q0 32 3 56q0 57 -18 113q4 60 4 87.5t9 51.5q-3 43 -3 81q0 75 -30 154q-18 17 -21 35q0 15 -24 31q-9 6 -37 34
q0 1 -13 1q-34 -6 -48 -13t-24 -7t-23 5l-10 1q-10 0 -21.5 -3.5t-33.5 -4.5t-58 -9q9 65 9 87q6 55 6 79q4 13 4 19l-1 4q41 9 78 9l15 -1q16 0 24 5q0 -6 13 -6q10 0 58 8q9 0 26 -2q23 -4 35 -4t17 1q11 0 22 -13q33 -42 54 -45q12 -2 32 -2q45 0 101 -165
q20 -24 26.5 -70t6.5 -67q0 -26 10 -57.5t10 -51.5q-20 -7 -20 -32q0 -8 5 -35t5 -290q0 -78 -4 -137q-3 -54 -3 -105q0 -43 4 -91q5 -38 5 -74l-3 -64q0 -48 16 -96q17 -58 17 -103q0 -71 -38 -191q-56 -16 -84 -16z" />
    <glyph glyph-name="uni05D0" unicode="&#x5d0;" horiz-adv-x="1508" 
d="M335 -53q-33 0 -51 52q-3 13 -8 25q-9 24 -12 49q-9 85 -46 160q-45 101 -45 172l1 24l13 154q21 237 44 473q12 117 52 234q4 -9 8 -20t10 -27l24 37l-24 48q-59 115 -88 151q-64 71 -64 118q0 29 20 62q106 -15 126 -20q47 -11 63 -39q37 -75 71 -153
q140 -324 366 -613q79 -102 88 -130q6 -21 17 -35q14 -14 58 -36q10 27 22 54q26 62 48 126q14 49 22 100l7 40q14 69 26 138q1 10 3 19q7 34 9 68q0 134 -3 268q0 46 -2 77q-2 45 -2 89q1 9 7 18.5t12.5 13t14.5 3.5q10 0 28.5 -7t39.5 -25t28 -38l5 9q4 9 9 16
q34 40 48 54l18 -27q23 -29 37 -63q10 -33 11 -70q2 -21 5 -41q7 -51 7 -101q0 -118 -38 -227q-10 -31 -18 -63q-12 -51 -30 -98.5t-54 -86.5q-22 -30 -30 -81q-5 -32 -15 -59q-35 -86 -76 -177q-18 -40 -36 -83q16 -41 43.5 -83.5t80.5 -71.5l5 -3q87 -36 95 -125
q2 -13 23 -35q18 -15 24 -35q5 -25 5 -57l-1 -29q-1 -25 -1 -55q-82 56 -101 72q-152 129 -170 164q-8 16 -18 27q-310 316 -365 351l-26 19l22 30l51 -14l4 11l-79 74v2q0 26 -30.5 84t-74.5 115.5t-83 82.5q-101 -145 -101 -353q0 -34 3 -68q3 -52 3 -105v-63
q0 -64 5 -128q14 -108 54 -208q11 -29 11 -48q0 -8 -4 -23t-39 -25q-9 -4 -17 -14q-18 -21 -45 -21z" />
    <glyph glyph-name="periodcentered" unicode="&#xb7;" horiz-adv-x="567" 
d="M251 574q-97 0 -138 49q-13 16 -13 36q0 15 7.5 31.5t15.5 34.5q24 56 60.5 106t110.5 78q36 12 66 12q29 0 64.5 -18t42.5 -106l-14 -27q-61 -115 -72 -127l-11 -16q-38 -53 -119 -53z" />
    <glyph glyph-name="uni0410" unicode="&#x410;" horiz-adv-x="1430" 
d="M634 824q55 9 119 24l59 12q-8 98 -25 156q-11 37 -14 75q0 44 10 85l6 35l-62 44q-7 -5 -19 -13t-73 -152l-19 -41q-6 -12 -6 -17q0 -3 1 -5q8 -19 8 -38q0 -26 -17 -67q-8 -20 -14 -41q-3 -17 -7 -33l-3 -16q9 -1 17 -3q16 -5 31 -5h8zM1044 1129l-53 62q20 2 35 2
q38 0 38 -16q0 -15 -20 -48zM152 -145q-7 0 -18 4.5t-15.5 33t-20 57t-21.5 57.5q0 52 24 105l1 2q55 142 112 284q22 54 43 109q13 30 13 54q0 63 -88 83q-44 12 -91 28l36 25q45 30 86 56q16 10 30 10l7 -1q14 -3 26 -3q57 0 84 63q56 134 108 268q45 115 48.5 118.5
t3.5 8.5q-4 52 -9 98l-2 24l2 2q-1 0 -3 -2.5t-5 -4.5l-10 13l53 32q-10 17 -10 29q0 20 34 35q30 16 36 30q-8 6 -18 14t-23 17l30 11l18 6q-4 4 -43 30q6 3 13 5q38 12 66 33t28 73l78 -14l13 32q25 56 51 117q12 -3 18 -3l-14 -212l21 -42q25 -42 38 -84q13 -53 21 -107
q6 -40 14 -79q2 -7 19 -24q3 -2 19 -18q13 -13 13 -18v-2q-5 -18 -5 -34q0 -36 32 -88q20 -33 20 -47l1 -7l43 94l2 5l16 -6l14 -131l-60 16q45 -49 94 -49q54 0 138 50l6 -23l-104 -111l209 -14l-22 -15q-16 -13 -46 -15.5t-56.5 -12t-47.5 -41.5q-10 -13 -57 -13h-11
q-21 0 -38 -2q8 -238 114 -442q12 -30 12 -65l-1 -58l-1 -23l-1 -12q0 -32 59 -113q12 -16 23 -33h-36l49 -74q-2 -1 -48 -44l-89 173l-91 -24q-1 32 -3 63l-4 76l14 6v7l-34 69q-72 143 -119 270q-21 54 -43 107q-11 25 -56 94l-118 -32q-8 -3 -13 -3q-2 0 -3 1
q-22 23 -39 23q-22 0 -47 -36q-3 -5 -7 -9q-7 -10 -13 -10l-15 1q-56 0 -87 -74q-7 -14 -15 -26q-14 -29 -17 -65q-3 -42 -58 -193q-25 -70 -25 -74v-4q6 -23 6 -44q0 -49 -40 -122q-14 -23 -14 -43q0 -7 3 -18.5t23 -23.5l1 -3q0 -15 -15 -42q-6 -11 -47 -11q-20 0 -42 2
l-37 2v1l-6 -7q-10 -10 -16 -22q-5 -8 -9.5 -18.5t-9.5 -19.5q-10 -16 -29 -16z" />
    <glyph glyph-name="uni0430" unicode="&#x430;" horiz-adv-x="1430" 
d="M634 824q55 9 119 24l59 12q-8 98 -25 156q-11 37 -14 75q0 44 10 85l6 35l-62 44q-7 -5 -19 -13t-73 -152l-19 -41q-6 -12 -6 -17q0 -3 1 -5q8 -19 8 -38q0 -26 -17 -67q-8 -20 -14 -41q-3 -17 -7 -33l-3 -16q9 -1 17 -3q16 -5 31 -5h8zM1044 1129l-53 62q20 2 35 2
q38 0 38 -16q0 -15 -20 -48zM152 -145q-7 0 -18 4.5t-15.5 33t-20 57t-21.5 57.5q0 52 24 105l1 2q55 142 112 284q22 54 43 109q13 30 13 54q0 63 -88 83q-44 12 -91 28l36 25q45 30 86 56q16 10 30 10l7 -1q14 -3 26 -3q57 0 84 63q56 134 108 268q45 115 48.5 118.5
t3.5 8.5q-4 52 -9 98l-2 24l2 2q-1 0 -3 -2.5t-5 -4.5l-10 13l53 32q-10 17 -10 29q0 20 34 35q30 16 36 30q-8 6 -18 14t-23 17l30 11l18 6q-4 4 -43 30q6 3 13 5q38 12 66 33t28 73l78 -14l13 32q25 56 51 117q12 -3 18 -3l-14 -212l21 -42q25 -42 38 -84q13 -53 21 -107
q6 -40 14 -79q2 -7 19 -24q3 -2 19 -18q13 -13 13 -18v-2q-5 -18 -5 -34q0 -36 32 -88q20 -33 20 -47l1 -7l43 94l2 5l16 -6l14 -131l-60 16q45 -49 94 -49q54 0 138 50l6 -23l-104 -111l209 -14l-22 -15q-16 -13 -46 -15.5t-56.5 -12t-47.5 -41.5q-10 -13 -57 -13h-11
q-21 0 -38 -2q8 -238 114 -442q12 -30 12 -65l-1 -58l-1 -23l-1 -12q0 -32 59 -113q12 -16 23 -33h-36l49 -74q-2 -1 -48 -44l-89 173l-91 -24q-1 32 -3 63l-4 76l14 6v7l-34 69q-72 143 -119 270q-21 54 -43 107q-11 25 -56 94l-118 -32q-8 -3 -13 -3q-2 0 -3 1
q-22 23 -39 23q-22 0 -47 -36q-3 -5 -7 -9q-7 -10 -13 -10l-15 1q-56 0 -87 -74q-7 -14 -15 -26q-14 -29 -17 -65q-3 -42 -58 -193q-25 -70 -25 -74v-4q6 -23 6 -44q0 -49 -40 -122q-14 -23 -14 -43q0 -7 3 -18.5t23 -23.5l1 -3q0 -15 -15 -42q-6 -11 -47 -11q-20 0 -42 2
l-37 2v1l-6 -7q-10 -10 -16 -22q-5 -8 -9.5 -18.5t-9.5 -19.5q-10 -16 -29 -16z" />
    <glyph glyph-name="uni0411" unicode="&#x411;" 
d="M303 154q261 28 421 112q109 64 205 158q39 35 80 70l-63 31l51 16q-22 20 -22 39q0 16 17.5 28.5t54.5 30.5q-27 10 -40.5 22t-21.5 34.5t-18 64.5q-24 104 -136 104q-214 -4 -360 -22q-87 -5 -114 -28q-80 -68 -80 -149l1 -21q23 -161 34 -317v-25q0 -45 -5 -94z
M572 -73q-112 5 -215 37q-84 24 -170 37l86 31l-15 46q-1 0 -1 -1q-17 -12 -72 -30l-32 -11q-3 20 -9 42q-14 57 -14 116q0 16 1 32.5t1 34.5v117l-61 8l31 46l-22 5l23 72h2l-34 49l27 16l-40 4l60 231l-51 22v114q20 5 44 13l-43 150l18 13q19 12 38 30q8 8 8 22
q-33 27 -33 55t10 52q12 36 26 225l11 128q4 35 21 82q3 7 11 12q15 9 27 9q6 0 10 -2q23 -18 53 -18t62 12q38 13 104.5 13t222.5 12q11 1 24 8t29 7q20 0 95 -14.5t136 -19.5q41 -4 83 -10q27 -5 56 -18l55 -20l-65 -33q-27 -14 -79 -34q-45 -20 -71 -20q-8 0 -15 2
q-43 9 -92 9q-64 0 -169 -18q-101 -18 -172 -18q-34 0 -68 4.5t-69 4.5q-41 0 -56 -16q-12 -13 -12 -39v-4q13 -238 18 -473q0 -20 -3 -37t-3 -32v-7q3 -52 24 -52q23 0 128 29q66 19 133.5 34t137.5 15q64 0 123 -15q25 -7 58 -7q35 0 71 4q28 4 55 4q79 0 107 -83
q18 -44 53 -78t80 -67q20 -17 33 -40q14 -28 14 -44q0 -10 -5 -15q-10 -13 -15.5 -34t-18.5 -40.5t-49 -19.5l-9 1l1 -7q2 -13 2 -24q0 -58 -29 -105q-65 -86 -135 -167q-30 -36 -51 -51q-11 -9 -84 -77l-275 -150h159l-47 -22q-79 -37 -168 -37z" />
    <glyph glyph-name="uni0431" unicode="&#x431;" 
d="M303 154q261 28 421 112q109 64 205 158q39 35 80 70l-63 31l51 16q-22 20 -22 39q0 16 17.5 28.5t54.5 30.5q-27 10 -40.5 22t-21.5 34.5t-18 64.5q-24 104 -136 104q-214 -4 -360 -22q-87 -5 -114 -28q-80 -68 -80 -149l1 -21q23 -161 34 -317v-25q0 -45 -5 -94z
M572 -73q-112 5 -215 37q-84 24 -170 37l86 31l-15 46q-1 0 -1 -1q-17 -12 -72 -30l-32 -11q-3 20 -9 42q-14 57 -14 116q0 16 1 32.5t1 34.5v117l-61 8l31 46l-22 5l23 72h2l-34 49l27 16l-40 4l60 231l-51 22v114q20 5 44 13l-43 150l18 13q19 12 38 30q8 8 8 22
q-33 27 -33 55t10 52q12 36 26 225l11 128q4 35 21 82q3 7 11 12q15 9 27 9q6 0 10 -2q23 -18 53 -18t62 12q38 13 104.5 13t222.5 12q11 1 24 8t29 7q20 0 95 -14.5t136 -19.5q41 -4 83 -10q27 -5 56 -18l55 -20l-65 -33q-27 -14 -79 -34q-45 -20 -71 -20q-8 0 -15 2
q-43 9 -92 9q-64 0 -169 -18q-101 -18 -172 -18q-34 0 -68 4.5t-69 4.5q-41 0 -56 -16q-12 -13 -12 -39v-4q13 -238 18 -473q0 -20 -3 -37t-3 -32v-7q3 -52 24 -52q23 0 128 29q66 19 133.5 34t137.5 15q64 0 123 -15q25 -7 58 -7q35 0 71 4q28 4 55 4q79 0 107 -83
q18 -44 53 -78t80 -67q20 -17 33 -40q14 -28 14 -44q0 -10 -5 -15q-10 -13 -15.5 -34t-18.5 -40.5t-49 -19.5l-9 1l1 -7q2 -13 2 -24q0 -58 -29 -105q-65 -86 -135 -167q-30 -36 -51 -51q-11 -9 -84 -77l-275 -150h159l-47 -22q-79 -37 -168 -37z" />
    <glyph glyph-name="uni0412" unicode="&#x412;" horiz-adv-x="1362" 
d="M83 -134q-1 8 -3 15q-4 13 -4 25q0 17 24 145q19 108 19 116q0 7 -3 14.5t-3 14.5l-3 40q-3 43 -3 85q0 72 9 142q5 45 8 89q-1 12 -14 27q-6 7 -12 16q27 30 45 48l3 35q0 33 9 59q25 74 29 149q3 47 3 94q0 29 -1 57q0 24 -9 48t-9 39q0 8 5 17t12.5 18t7.5 22
q-1 12 -4 25.5t-3 26.5q0 3 1 13t21 24t20 53q0 30 -11 62t-30 45q36 27 45.5 63.5t11 75.5t10.5 75t41 64q-2 -24 -6 -124q0 -3 22 -14l55 180q6 -31 17 -72l48 27v-49l17 -1q41 0 82 16q50 17 87 17q30 0 62 -16q25 25 90 25q103 0 137 -48l-56 -33q19 -16 38 -30
q43 -33 81 -65q25 -20 38 -47q29 -65 29 -130q0 -75 -39 -150q-25 -55 -36 -118q-6 -28 -13 -55q68 -9 103 -10q33 0 73 6q19 3 43 5q-24 -37 -38 -63l62 26l24 -63l15 -40q-3 3 -7 5q-8 4 -14 11q-52 63 -146 63q17 -16 37 -29q28 -16 44 -38q22 -32 48 -32q20 0 42 10
l22 -85q-65 -20 -65 -89v-8q-3 -35 -20 -69q-19 -40 -21 -84l-1 -28l-133 -183l-5 12l-35 -18q-41 -17 -72 -45q-56 -59 -120 -105q-174 -125 -316 -190l17 37q-31 0 -55 -10q-20 -10 -40 -10h-14q-12 0 -30 31q-50 -29 -83 -53q-5 -3 -5 -21l-2 -15h-67q7 5 29 26l22 20
l-78 30l-59 -148zM861 1199l74 4l5 10l-40 21l18 7l6 83l-10 -2zM410 1008q93 0 164.5 35t129.5 93.5t108 131.5q-10 5 -22 9q54 70 54 125q0 12 -8 48.5t-90 84.5l27 53q-103 -24 -196 -47l24 46h-12q-43 0 -67 -28t-39 -75q7 1 50 3l-52 -74v-219l81 7q-18 -15 -38 -22
q-14 -6 -26 -14q-15 -14 -25 -35l-9 -18l17 -5q28 -10 48 -10q14 0 27 2l16 3q1 -5 1 -11l-51 -16l-124 -41l11 -22zM427 1321l6 10q21 28 21 52q0 25 -32 56l-8 -87l-2 -27zM408 1176q33 18 33 51q0 25 -15 55l-39 -98zM442 37l123 38q-67 26 -86 26q-14 0 -21.5 -13
t-15.5 -51zM341 140q33 33 73 83l14 17l15 -15q-10 -13 -23 -28l-15 -18l138 -9q0 16 2 52l275 94l-38 28q56 24 94.5 61t47.5 98q3 5 25 11q37 5 37 34q0 12 -6 27q35 11 54 44q16 27 16 62q0 58 -42 85q-34 22 -78 35l-5 -39l-15 -8q-1 2 -3 3q-53 63 -107 125l10 10
l123 -86q-15 63 -55 97q-63 52 -140 52q-60 0 -166 -41q-50 -20 -102 -32q-55 -7 -60 -56q-5 -43 -12 -85q-24 -167 -24 -196q0 -14 4.5 -30.5t4.5 -32.5l-1 -11q-29 -145 -69 -312z" />
    <glyph glyph-name="uni0432" unicode="&#x432;" horiz-adv-x="1362" 
d="M83 -134q-1 8 -3 15q-4 13 -4 25q0 17 24 145q19 108 19 116q0 7 -3 14.5t-3 14.5l-3 40q-3 43 -3 85q0 72 9 142q5 45 8 89q-1 12 -14 27q-6 7 -12 16q27 30 45 48l3 35q0 33 9 59q25 74 29 149q3 47 3 94q0 29 -1 57q0 24 -9 48t-9 39q0 8 5 17t12.5 18t7.5 22
q-1 12 -4 25.5t-3 26.5q0 3 1 13t21 24t20 53q0 30 -11 62t-30 45q36 27 45.5 63.5t11 75.5t10.5 75t41 64q-2 -24 -6 -124q0 -3 22 -14l55 180q6 -31 17 -72l48 27v-49l17 -1q41 0 82 16q50 17 87 17q30 0 62 -16q25 25 90 25q103 0 137 -48l-56 -33q19 -16 38 -30
q43 -33 81 -65q25 -20 38 -47q29 -65 29 -130q0 -75 -39 -150q-25 -55 -36 -118q-6 -28 -13 -55q68 -9 103 -10q33 0 73 6q19 3 43 5q-24 -37 -38 -63l62 26l24 -63l15 -40q-3 3 -7 5q-8 4 -14 11q-52 63 -146 63q17 -16 37 -29q28 -16 44 -38q22 -32 48 -32q20 0 42 10
l22 -85q-65 -20 -65 -89v-8q-3 -35 -20 -69q-19 -40 -21 -84l-1 -28l-133 -183l-5 12l-35 -18q-41 -17 -72 -45q-56 -59 -120 -105q-174 -125 -316 -190l17 37q-31 0 -55 -10q-20 -10 -40 -10h-14q-12 0 -30 31q-50 -29 -83 -53q-5 -3 -5 -21l-2 -15h-67q7 5 29 26l22 20
l-78 30l-59 -148zM861 1199l74 4l5 10l-40 21l18 7l6 83l-10 -2zM410 1008q93 0 164.5 35t129.5 93.5t108 131.5q-10 5 -22 9q54 70 54 125q0 12 -8 48.5t-90 84.5l27 53q-103 -24 -196 -47l24 46h-12q-43 0 -67 -28t-39 -75q7 1 50 3l-52 -74v-219l81 7q-18 -15 -38 -22
q-14 -6 -26 -14q-15 -14 -25 -35l-9 -18l17 -5q28 -10 48 -10q14 0 27 2l16 3q1 -5 1 -11l-51 -16l-124 -41l11 -22zM427 1321l6 10q21 28 21 52q0 25 -32 56l-8 -87l-2 -27zM408 1176q33 18 33 51q0 25 -15 55l-39 -98zM442 37l123 38q-67 26 -86 26q-14 0 -21.5 -13
t-15.5 -51zM341 140q33 33 73 83l14 17l15 -15q-10 -13 -23 -28l-15 -18l138 -9q0 16 2 52l275 94l-38 28q56 24 94.5 61t47.5 98q3 5 25 11q37 5 37 34q0 12 -6 27q35 11 54 44q16 27 16 62q0 58 -42 85q-34 22 -78 35l-5 -39l-15 -8q-1 2 -3 3q-53 63 -107 125l10 10
l123 -86q-15 63 -55 97q-63 52 -140 52q-60 0 -166 -41q-50 -20 -102 -32q-55 -7 -60 -56q-5 -43 -12 -85q-24 -167 -24 -196q0 -14 4.5 -30.5t4.5 -32.5l-1 -11q-29 -145 -69 -312z" />
    <glyph glyph-name="uni0413" unicode="&#x413;" horiz-adv-x="1159" 
d="M200 -127q-7 0 -17.5 3.5t-18 18t-12 32t-11 28t-16.5 10.5l-8 -1l-10 51q-19 83 -19 145q0 20 1 39l1 60l-7 132q-8 111 -9 223q1 94 9 189q5 68 8 137q0 26 -6.5 51t-6.5 49v7q22 248 50 496q5 42 13 70l8 30q36 -18 48 -26l-3 22q20 5 41 9q49 10 96 26q32 14 64 37
q15 11 32 22l-11 -41q142 -14 332 -27.5t333 -27.5l-15 -22l30 -93l1 -7q0 -49 -70 -49q-25 0 -51 1.5t-53 1.5q-26 0 -53 -2q-71 -7 -174 -15q-322 -23 -363 -39q-13 -6 -13 -18q-11 -48 -11 -77q0 -26 12 -39q42 -40 42 -82v-23q0 -21 -14 -62q-7 -22 -29 -141
q-33 -163 -49 -327q-6 -54 -6 -109q0 -110 23 -222q11 -62 12 -125q1 -30 3 -59q-12 -2 -18 -4l-49 102l-18 -2l12 -257q1 -44 3 -87q-19 -8 -33 -8z" />
    <glyph glyph-name="uni0433" unicode="&#x433;" horiz-adv-x="1159" 
d="M200 -127q-7 0 -17.5 3.5t-18 18t-12 32t-11 28t-16.5 10.5l-8 -1l-10 51q-19 83 -19 145q0 20 1 39l1 60l-7 132q-8 111 -9 223q1 94 9 189q5 68 8 137q0 26 -6.5 51t-6.5 49v7q22 248 50 496q5 42 13 70l8 30q36 -18 48 -26l-3 22q20 5 41 9q49 10 96 26q32 14 64 37
q15 11 32 22l-11 -41q142 -14 332 -27.5t333 -27.5l-15 -22l30 -93l1 -7q0 -49 -70 -49q-25 0 -51 1.5t-53 1.5q-26 0 -53 -2q-71 -7 -174 -15q-322 -23 -363 -39q-13 -6 -13 -18q-11 -48 -11 -77q0 -26 12 -39q42 -40 42 -82v-23q0 -21 -14 -62q-7 -22 -29 -141
q-33 -163 -49 -327q-6 -54 -6 -109q0 -110 23 -222q11 -62 12 -125q1 -30 3 -59q-12 -2 -18 -4l-49 102l-18 -2l12 -257q1 -44 3 -87q-19 -8 -33 -8z" />
    <glyph glyph-name="uni0414" unicode="&#x414;" horiz-adv-x="1508" 
d="M792 171q108 0 163 16t60 30q3 22 3 45v25q0 29 7 56q13 44 13 228l-2 204q0 66 3 174.5t27 154.5l1 4q-1 1 -1 8l39 382q-117 -35 -232 -54q-229 -30 -229 -167v-7q0 -9 -6 -18q-25 -42 -51 -279q-48 -426 -48 -602l1 -42q0 -51 -14 -99q-10 -22 -10 -35q0 -3 2 -11.5
t40 -9.5q50 -2 234 -3zM45 -400q-16 67 -16 132q0 121 29 159l9 50l1 2q7 42 19 84q22 82 72 97q24 7 52.5 12.5t56.5 12.5q7 50 22 340q15 337 35 428q18 64 46 126q45 99 69 223l13 64q12 58 36.5 110.5t84.5 89.5q14 10 23 27q5 8 10 14l-16 25q115 22 260.5 43.5
t260.5 43.5q4 -6 6 -12l-43 -34l74 -26l15 -108l104 114q-13 -86 -30 -234q-21 -164 -38 -328l-14 -414q-5 -275 -8 -328v-3q-2 -19 -2 -37q0 -22 3 -44q12 -54 61 -54q21 0 47 9q37 14 39 14l96 -47l-10 -13q-13 -14 -13 -15l72 -137q-67 -1 -67 -62v-11q1 6 2 6l-4 -27
q-4 -30 -4 -60q0 -6 1 -27t22 -57q8 -16 8 -35t-2 -40q-4 -20 -4 -40q-48 -31 -75 -31q-8 0 -25 6q-27 9 -56 331q-2 34 -20 44t-52 10q-85 1 -185.5 4t-186.5 5q-53 0 -135 -7l-39 -2q-49 -4 -97 -4h-265q-16 -84 -17 -84q-2 0 -4 38q-7 -52 -15 -52l-16 7
q-44 -39 -44 -127q0 -17 2 -36q1 -6 1 -15q0 -8 -1.5 -25.5t-19.5 -36.5q-15 -15 -63 -15q-11 0 -31 -18q-15 -15 -34 -25z" />
    <glyph glyph-name="uni0434" unicode="&#x434;" horiz-adv-x="1508" 
d="M792 171q108 0 163 16t60 30q3 22 3 45v25q0 29 7 56q13 44 13 228l-2 204q0 66 3 174.5t27 154.5l1 4q-1 1 -1 8l39 382q-117 -35 -232 -54q-229 -30 -229 -167v-7q0 -9 -6 -18q-25 -42 -51 -279q-48 -426 -48 -602l1 -42q0 -51 -14 -99q-10 -22 -10 -35q0 -3 2 -11.5
t40 -9.5q50 -2 234 -3zM45 -400q-16 67 -16 132q0 121 29 159l9 50l1 2q7 42 19 84q22 82 72 97q24 7 52.5 12.5t56.5 12.5q7 50 22 340q15 337 35 428q18 64 46 126q45 99 69 223l13 64q12 58 36.5 110.5t84.5 89.5q14 10 23 27q5 8 10 14l-16 25q115 22 260.5 43.5
t260.5 43.5q4 -6 6 -12l-43 -34l74 -26l15 -108l104 114q-13 -86 -30 -234q-21 -164 -38 -328l-14 -414q-5 -275 -8 -328v-3q-2 -19 -2 -37q0 -22 3 -44q12 -54 61 -54q21 0 47 9q37 14 39 14l96 -47l-10 -13q-13 -14 -13 -15l72 -137q-67 -1 -67 -62v-11q1 6 2 6l-4 -27
q-4 -30 -4 -60q0 -6 1 -27t22 -57q8 -16 8 -35t-2 -40q-4 -20 -4 -40q-48 -31 -75 -31q-8 0 -25 6q-27 9 -56 331q-2 34 -20 44t-52 10q-85 1 -185.5 4t-186.5 5q-53 0 -135 -7l-39 -2q-49 -4 -97 -4h-265q-16 -84 -17 -84q-2 0 -4 38q-7 -52 -15 -52l-16 7
q-44 -39 -44 -127q0 -17 2 -36q1 -6 1 -15q0 -8 -1.5 -25.5t-19.5 -36.5q-15 -15 -63 -15q-11 0 -31 -18q-15 -15 -34 -25z" />
    <glyph glyph-name="uni0415" unicode="&#x415;" 
d="M377 -135l-24 12q-16 6 -26 18q-24 35 -66 35q-12 0 -24.5 -2.5t-21.5 -2.5q-28 0 -45 13t-25.5 30t-11.5 31q-39 162 -43 285v62q0 94 4 187q3 80 4 162q0 38 -7 75q-7 47 -7 72q0 29 8 56q40 124 47 292q7 59 34 116q29 62 29 130q1 40 9.5 79.5t40.5 76.5q15 18 24 45
l18 39l43 -54l76 -6q82 -11 162 -11q60 2 119 10q115 16 248 16q97 0 188 -26l64 -16q4 -1 4.5 -4.5t2.5 -11.5l5 -25l-106 -30q-311 -88 -329 -88q-20 0 -40 11l-13 -9q-42 -31 -73 -31h-5l-23 -1l15 54l-90 -26q-4 2 -13 2q-26 0 -60.5 -15.5t-43.5 -37.5
q-20 -68 -37 -137l-9 -35q0 -5 1.5 -9.5t1.5 -8.5q0 -17 -12 -44q-18 -41 -30 -122q-5 -36 -9 -118l725 96l24 -25l-68 -21l17 -20l115 48l10 -15l-18 -14q-16 -11 -29 -23q-41 -42 -94 -66q-169 -79 -380 -96q-95 -10 -190 -30l-3 -1q-6 -3 -24 -3q-13 0 -27 1.5t-27 1.5
q-42 0 -52 -36q-11 -49 -11 -100l-1 -22q-4 -140 -4 -287q0 -60 6 -112q4 -21 43 -35.5t94 -15.5l26 1q33 3 67 3q86 0 145 18l274 67l14 -25l-22 -36l1 -1q2 0 4 -2q40 13 74 13q72 0 125 -55q16 -14 47 -21q22 -5 41 -14q21 -14 36 -32l20 -21l-26 -12q-20 -13 -42 -16
q-197 -13 -390 -24q-300 -17 -399 -27q-39 -4 -50 -18q-8 -10 -8 -30q0 -10 3 -31z" />
    <glyph glyph-name="uni0435" unicode="&#x435;" 
d="M377 -135l-24 12q-16 6 -26 18q-24 35 -66 35q-12 0 -24.5 -2.5t-21.5 -2.5q-28 0 -45 13t-25.5 30t-11.5 31q-39 162 -43 285v62q0 94 4 187q3 80 4 162q0 38 -7 75q-7 47 -7 72q0 29 8 56q40 124 47 292q7 59 34 116q29 62 29 130q1 40 9.5 79.5t40.5 76.5q15 18 24 45
l18 39l43 -54l76 -6q82 -11 162 -11q60 2 119 10q115 16 248 16q97 0 188 -26l64 -16q4 -1 4.5 -4.5t2.5 -11.5l5 -25l-106 -30q-311 -88 -329 -88q-20 0 -40 11l-13 -9q-42 -31 -73 -31h-5l-23 -1l15 54l-90 -26q-4 2 -13 2q-26 0 -60.5 -15.5t-43.5 -37.5
q-20 -68 -37 -137l-9 -35q0 -5 1.5 -9.5t1.5 -8.5q0 -17 -12 -44q-18 -41 -30 -122q-5 -36 -9 -118l725 96l24 -25l-68 -21l17 -20l115 48l10 -15l-18 -14q-16 -11 -29 -23q-41 -42 -94 -66q-169 -79 -380 -96q-95 -10 -190 -30l-3 -1q-6 -3 -24 -3q-13 0 -27 1.5t-27 1.5
q-42 0 -52 -36q-11 -49 -11 -100l-1 -22q-4 -140 -4 -287q0 -60 6 -112q4 -21 43 -35.5t94 -15.5l26 1q33 3 67 3q86 0 145 18l274 67l14 -25l-22 -36l1 -1q2 0 4 -2q40 13 74 13q72 0 125 -55q16 -14 47 -21q22 -5 41 -14q21 -14 36 -32l20 -21l-26 -12q-20 -13 -42 -16
q-197 -13 -390 -24q-300 -17 -399 -27q-39 -4 -50 -18q-8 -10 -8 -30q0 -10 3 -31z" />
    <glyph glyph-name="uni0416" unicode="&#x416;" horiz-adv-x="1762" 
d="M936 -100q-18 18 -28 30q-1 2 -5 6q-68 18 -91 62t-30 93q-5 25 -8 33q-3 7 -3 16l1 8q10 37 10 67q0 44 -22 73l-4 3l12 116l-12 4l3 26q4 23 4 78q0 33 15 275q3 40 5 82q-19 0 -37 -1h-16q-42 0 -75 -9q-20 -8 -43 -53l-10 -16q-214 -360 -283 -561q-20 -55 -49 -108
q-21 -32 -54 -56q-49 -40 -65 -84l-16 -33l-45 14l36 152l-83 -16q7 23 10 44q3 29 16 51q20 28 43 53q45 47 108 164q52 93 106 177l59 93q50 78 98 158q0 3 -3 11.5t-73 131.5q-56 94 -81 147q-20 42 -45 80q-73 103 -147 203q-60 82 -66 89l63 70l44 -33l8 150l13 -3
q136 -26 143 -157q3 -18 17 -37q51 -102 133 -270q37 -76 37 -159q0 -17 -2 -34v-2q0 -18 30 -46q23 -21 67 -21q31 0 64 6l26 3l60 15q3 13 7 25v2q22 70 22 81t-4 17q-16 32 -16 64q0 34 11 76q13 53 13 90q0 31 -13 63q-6 16 -6 34q0 26 8 51q29 111 65 215q6 16 30 30
q9 6 23 18q12 -17 18.5 -23.5t12.5 -14.5q14 -20 21 -187q17 -281 17 -378q0 -38 -1 -75v-5q0 -20 7.5 -28t27.5 -8h5q45 0 74.5 -11.5t40.5 -51.5q30 0 31 2q27 30 30 58q5 44 48 87q19 19 31 39q32 54 65.5 107t64.5 107l105 182q21 31 52 53q39 30 72 78h1q10 15 22 29
q25 -7 45 -16q26 -14 26 -39q0 -18 -14 -42q-3 -6 -3 -13q0 -18 16 -44l3 -6l-84 -141q-53 -89 -118 -177q-62 -79 -112 -151.5t-85 -155.5q-15 -33 -15 -60v-16q0 -15 16 -52q42 -104 73 -211q36 -124 88 -243q21 -47 21 -86q0 -43 -21 -103q0 -1 -1 -1q-2 -8 -4.5 -16.5
t-2.5 -19.5q0 -6 1 -15t1 -29q-19 -8 -35 -8q-41 0 -74.5 36t-40.5 88q-16 148 -77 378q-27 102 -49 206q-12 57 -49 89.5t-89 32.5q-32 0 -65 -13q-28 -11 -43 -125l-7 -41q-5 -19 -5 -36q0 -8 7 -41.5t7 -71.5q0 -34 -21 -68q0 -5 7 -19q12 -24 17 -38q26 -74 35 -120
q10 -39 10 -55q0 -7 -2.5 -25t-41.5 -37q-2 -8 -2 -26q0 -26 5 -74q4 -43 4 -87q0 -42 -20 -74q-14 -25 -21 -45z" />
    <glyph glyph-name="uni0436" unicode="&#x436;" horiz-adv-x="1762" 
d="M936 -100q-18 18 -28 30q-1 2 -5 6q-68 18 -91 62t-30 93q-5 25 -8 33q-3 7 -3 16l1 8q10 37 10 67q0 44 -22 73l-4 3l12 116l-12 4l3 26q4 23 4 78q0 33 15 275q3 40 5 82q-19 0 -37 -1h-16q-42 0 -75 -9q-20 -8 -43 -53l-10 -16q-214 -360 -283 -561q-20 -55 -49 -108
q-21 -32 -54 -56q-49 -40 -65 -84l-16 -33l-45 14l36 152l-83 -16q7 23 10 44q3 29 16 51q20 28 43 53q45 47 108 164q52 93 106 177l59 93q50 78 98 158q0 3 -3 11.5t-73 131.5q-56 94 -81 147q-20 42 -45 80q-73 103 -147 203q-60 82 -66 89l63 70l44 -33l8 150l13 -3
q136 -26 143 -157q3 -18 17 -37q51 -102 133 -270q37 -76 37 -159q0 -17 -2 -34v-2q0 -18 30 -46q23 -21 67 -21q31 0 64 6l26 3l60 15q3 13 7 25v2q22 70 22 81t-4 17q-16 32 -16 64q0 34 11 76q13 53 13 90q0 31 -13 63q-6 16 -6 34q0 26 8 51q29 111 65 215q6 16 30 30
q9 6 23 18q12 -17 18.5 -23.5t12.5 -14.5q14 -20 21 -187q17 -281 17 -378q0 -38 -1 -75v-5q0 -20 7.5 -28t27.5 -8h5q45 0 74.5 -11.5t40.5 -51.5q30 0 31 2q27 30 30 58q5 44 48 87q19 19 31 39q32 54 65.5 107t64.5 107l105 182q21 31 52 53q39 30 72 78h1q10 15 22 29
q25 -7 45 -16q26 -14 26 -39q0 -18 -14 -42q-3 -6 -3 -13q0 -18 16 -44l3 -6l-84 -141q-53 -89 -118 -177q-62 -79 -112 -151.5t-85 -155.5q-15 -33 -15 -60v-16q0 -15 16 -52q42 -104 73 -211q36 -124 88 -243q21 -47 21 -86q0 -43 -21 -103q0 -1 -1 -1q-2 -8 -4.5 -16.5
t-2.5 -19.5q0 -6 1 -15t1 -29q-19 -8 -35 -8q-41 0 -74.5 36t-40.5 88q-16 148 -77 378q-27 102 -49 206q-12 57 -49 89.5t-89 32.5q-32 0 -65 -13q-28 -11 -43 -125l-7 -41q-5 -19 -5 -36q0 -8 7 -41.5t7 -71.5q0 -34 -21 -68q0 -5 7 -19q12 -24 17 -38q26 -74 35 -120
q10 -39 10 -55q0 -7 -2.5 -25t-41.5 -37q-2 -8 -2 -26q0 -26 5 -74q4 -43 4 -87q0 -42 -20 -74q-14 -25 -21 -45z" />
    <glyph glyph-name="uni0417" unicode="&#x417;" horiz-adv-x="1362" 
d="M776 -92q-49 0 -99 10q-20 3 -41 3l-60 -1q-14 0 -27 -1l-17 -1q-25 0 -48 8t-47 17q-123 41 -231 102q-42 27 -74 65.5t-60 79.5l-5 7q-5 8 -5 19q0 8 5 25q13 44 54 113l23 40l59 27l24 -93l20 1q54 0 97.5 -25t85.5 -64q97 -90 176 -90q41 0 99 16l67 16l-1 15
q0 24 16 24q10 0 30 -8.5t37 -8.5h3l-8 19l40 27q45 32 93 58q25 11 54 15q47 9 67 27q11 10 11 20q-1 53 -9 108l-5 44l-35 -22q-35 103 -62 186q-72 30 -103 37q-22 5 -41 5q-16 0 -27 -6q-84 -53 -182 -65h-8q-30 0 -60 20l113 27l-15 41q-16 -5 -99 -26l42 47l-40 20
l10 10q31 0 59 11q23 8 36 40q6 18 27 32q12 8 27 8q12 0 27 -5l6 -1q7 0 18 5q24 11 24 19l-1 21q-11 -11 -19 -13q-17 -3 -42 -3l163 231q40 32 52 73q10 33 10 69l-1 19q-28 -58 -55 -117l-16 -32l14 69q14 79 34 156q9 28 9 48t-12 40t-72 35q-46 13 -91 31
q-41 16 -84 29q-24 5 -49 5q-124 0 -206 -34q-76 -32 -120 -117q-16 -36 -44 -64.5t-51 -28.5h-5q-44 10 -73 44q-18 27 -27 61l-11 30q40 18 40 42q0 15 -20 36l42 -15l60 143q5 0 9 -1q1 -13 1 -54l54 33q61 39 122 73q9 5 19 12q28 21 48 21q16 0 35 -14q20 29 47 33
q12 2 24 2q16 0 33 -2.5t35 -2.5h10q41 0 80 -7q150 -30 206 -45q67 -15 86 -50t50 -66q61 -61 61 -113l-1 -17q0 -4 14 -11q26 -14 26 -38l-1 -12q27 -26 27 -36t-24 -31q-5 -5 -5 -7q0 -3 3 -9.5t10 -18.5t13 -24l-4 -65l-4 -50q58 0 58 -28q0 -16 -4.5 -32t-4.5 -30v-8
l-57 21l1 -7q0 -11 -4.5 -23.5t-4.5 -21.5q0 -14 23 -14q11 0 28 4q-127 -97 -234 -190q63 -40 160 -96q26 -18 44 -61q15 -38 15 -67v-10q0 -10 4 -23l20 -41q1 -4 11 -14q8 -6 8 -10q-15 -28 -15 -55q0 -24 11 -66q12 -36 12 -72q0 -103 -81 -179q-39 -38 -71 -83
q-28 -37 -60 -71q-39 -37 -93 -49l-8 -1q-127 -28 -198 -28zM199 1363l9 1q15 3 17 9q14 35 21 71l-14 7q-50 -58 -50 -67q0 -5 7 -15q4 -6 10 -6zM198 122q7 14 7 33q0 10 -4.5 33t-20 51.5t-30.5 31.5q-23 0 -48 -16q-11 -6 -21 -10l11 -15q20 14 39 29z" />
    <glyph glyph-name="uni0437" unicode="&#x437;" horiz-adv-x="1362" 
d="M776 -92q-49 0 -99 10q-20 3 -41 3l-60 -1q-14 0 -27 -1l-17 -1q-25 0 -48 8t-47 17q-123 41 -231 102q-42 27 -74 65.5t-60 79.5l-5 7q-5 8 -5 19q0 8 5 25q13 44 54 113l23 40l59 27l24 -93l20 1q54 0 97.5 -25t85.5 -64q97 -90 176 -90q41 0 99 16l67 16l-1 15
q0 24 16 24q10 0 30 -8.5t37 -8.5h3l-8 19l40 27q45 32 93 58q25 11 54 15q47 9 67 27q11 10 11 20q-1 53 -9 108l-5 44l-35 -22q-35 103 -62 186q-72 30 -103 37q-22 5 -41 5q-16 0 -27 -6q-84 -53 -182 -65h-8q-30 0 -60 20l113 27l-15 41q-16 -5 -99 -26l42 47l-40 20
l10 10q31 0 59 11q23 8 36 40q6 18 27 32q12 8 27 8q12 0 27 -5l6 -1q7 0 18 5q24 11 24 19l-1 21q-11 -11 -19 -13q-17 -3 -42 -3l163 231q40 32 52 73q10 33 10 69l-1 19q-28 -58 -55 -117l-16 -32l14 69q14 79 34 156q9 28 9 48t-12 40t-72 35q-46 13 -91 31
q-41 16 -84 29q-24 5 -49 5q-124 0 -206 -34q-76 -32 -120 -117q-16 -36 -44 -64.5t-51 -28.5h-5q-44 10 -73 44q-18 27 -27 61l-11 30q40 18 40 42q0 15 -20 36l42 -15l60 143q5 0 9 -1q1 -13 1 -54l54 33q61 39 122 73q9 5 19 12q28 21 48 21q16 0 35 -14q20 29 47 33
q12 2 24 2q16 0 33 -2.5t35 -2.5h10q41 0 80 -7q150 -30 206 -45q67 -15 86 -50t50 -66q61 -61 61 -113l-1 -17q0 -4 14 -11q26 -14 26 -38l-1 -12q27 -26 27 -36t-24 -31q-5 -5 -5 -7q0 -3 3 -9.5t10 -18.5t13 -24l-4 -65l-4 -50q58 0 58 -28q0 -16 -4.5 -32t-4.5 -30v-8
l-57 21l1 -7q0 -11 -4.5 -23.5t-4.5 -21.5q0 -14 23 -14q11 0 28 4q-127 -97 -234 -190q63 -40 160 -96q26 -18 44 -61q15 -38 15 -67v-10q0 -10 4 -23l20 -41q1 -4 11 -14q8 -6 8 -10q-15 -28 -15 -55q0 -24 11 -66q12 -36 12 -72q0 -103 -81 -179q-39 -38 -71 -83
q-28 -37 -60 -71q-39 -37 -93 -49l-8 -1q-127 -28 -198 -28zM199 1363l9 1q15 3 17 9q14 35 21 71l-14 7q-50 -58 -50 -67q0 -5 7 -15q4 -6 10 -6zM198 122q7 14 7 33q0 10 -4.5 33t-20 51.5t-30.5 31.5q-23 0 -48 -16q-11 -6 -21 -10l11 -15q20 14 39 29z" />
    <glyph glyph-name="uni0418" unicode="&#x418;" 
d="M158 -52q-10 20 -22 40q-32 51 -38 98l-1 124q0 104 3 207t3 210q-1 70 -5 139q-4 64 -4 128q0 92 16 177q10 55 15 111q6 87 30 496h6q37 -50 54 -76l10 6q20 15 29 49q4 18 11.5 27.5t43.5 9.5l-1 -38q0 -30 4 -61q5 -16 41 -22q-39 -34 -39 -103q0 -60 37 -98
q-51 -27 -56 -62q-2 -14 -2 -28q0 -20 5 -39.5t5 -37.5q0 -14 -3 -26q-6 -25 -6 -50q0 -28 7 -55v-1q3 -31 16 -74t13 -77q0 -84 -50 -167l-15 -28l-90 36l97 -123q20 26 46 41q17 10 31.5 22.5t14.5 30.5t-20 37l1 7q42 11 58 33t23 45q6 19 16 34q45 66 96.5 122t128.5 99
q22 13 24 48q3 20 12 33q41 46 86 89q51 48 97 100q52 65 89 152q10 27 28 46.5t63 27.5q20 3 39 28t42 25q7 0 16 -2q51 -11 63 -20l1 -37q0 -31 -7 -138q0 -30 3 -58q3 -24 3 -59l-1 -21q0 -59 3 -117q4 -49 4 -97q0 -33 -2 -65q-4 -42 -17 -84q-14 -48 -18 -97
q0 -120 13 -237q3 -23 5 -47q17 -179 39 -302q12 -69 19 -138q0 -36 -30 -60q-26 -23 -41 -45.5t-48 -46.5q-7 -5 -14 -14t-15 -15q-4 0 -7 1l-16 2l-19 177l-44 393q-9 79 -26 156q-28 126 -28 228q0 93 40 187l3 140l-117 -123q-32 -45 -37 -50l-118 -161q0 -5 -280 -379
q-20 -23 -40 -39q-91 -78 -119 -155l-11 -28q-26 -61 -26 -98q0 -27 12 -54q2 -2 2 -6q-1 -8 -11 -28l-9 -22l-1 -2q-9 -9 -9 -18q-4 -36 -8.5 -55.5t-16.5 -30.5q-6 -5 -10 -10t-10 -10q-15 -13 -59 -27z" />
    <glyph glyph-name="uni0438" unicode="&#x438;" 
d="M158 -52q-10 20 -22 40q-32 51 -38 98l-1 124q0 104 3 207t3 210q-1 70 -5 139q-4 64 -4 128q0 92 16 177q10 55 15 111q6 87 30 496h6q37 -50 54 -76l10 6q20 15 29 49q4 18 11.5 27.5t43.5 9.5l-1 -38q0 -30 4 -61q5 -16 41 -22q-39 -34 -39 -103q0 -60 37 -98
q-51 -27 -56 -62q-2 -14 -2 -28q0 -20 5 -39.5t5 -37.5q0 -14 -3 -26q-6 -25 -6 -50q0 -28 7 -55v-1q3 -31 16 -74t13 -77q0 -84 -50 -167l-15 -28l-90 36l97 -123q20 26 46 41q17 10 31.5 22.5t14.5 30.5t-20 37l1 7q42 11 58 33t23 45q6 19 16 34q45 66 96.5 122t128.5 99
q22 13 24 48q3 20 12 33q41 46 86 89q51 48 97 100q52 65 89 152q10 27 28 46.5t63 27.5q20 3 39 28t42 25q7 0 16 -2q51 -11 63 -20l1 -37q0 -31 -7 -138q0 -30 3 -58q3 -24 3 -59l-1 -21q0 -59 3 -117q4 -49 4 -97q0 -33 -2 -65q-4 -42 -17 -84q-14 -48 -18 -97
q0 -120 13 -237q3 -23 5 -47q17 -179 39 -302q12 -69 19 -138q0 -36 -30 -60q-26 -23 -41 -45.5t-48 -46.5q-7 -5 -14 -14t-15 -15q-4 0 -7 1l-16 2l-19 177l-44 393q-9 79 -26 156q-28 126 -28 228q0 93 40 187l3 140l-117 -123q-32 -45 -37 -50l-118 -161q0 -5 -280 -379
q-20 -23 -40 -39q-91 -78 -119 -155l-11 -28q-26 -61 -26 -98q0 -27 12 -54q2 -2 2 -6q-1 -8 -11 -28l-9 -22l-1 -2q-9 -9 -9 -18q-4 -36 -8.5 -55.5t-16.5 -30.5q-6 -5 -10 -10t-10 -10q-15 -13 -59 -27z" />
    <glyph glyph-name="uni041A" unicode="&#x41a;" horiz-adv-x="1329" 
d="M1138 -83q-13 7 -28 13q-34 12 -55 32q-102 113 -200 228l-94 109q-14 17 -35 28q-26 13 -42.5 30t-16.5 48q-1 17 -17 34q-20 20 -45 40q-72 63 -150 126l-63 52q18 0 54 2l-95 49q-35 -29 -42.5 -61.5t-7.5 -65.5v-8q0 -37 -11 -75q-8 -28 -18 -98q-23 -121 -23 -232
q0 -22 9 -204l-55 -45l-100 47q-9 251 -16 420q-23 -4 -53 -8l-58 -9l21 56q48 119 62 190q7 45 25 87q9 21 9 41q0 28 -14 68q-14 36 -14 65q0 19 9 38q9 25 9 50q0 13 -2 25q-2 18 -2 33t8 27q35 52 38 107l19 257q15 191 24 324q1 27 3 53q111 -218 111 -400
q0 -29 -2 -58l75 227q11 -3 22 -4l-7 -35q-8 -39 -18 -78l-8 -29q-19 -61 -19 -103q0 -25 7 -50l1 -4q0 -4 -3 -10t-8.5 -14.5t-10.5 -17.5q40 -13 46 -36q3 -13 3 -28q0 -12 -2 -25q-3 -19 -3 -37q0 -19 10 -36q7 6 14 10q13 7 20 16l65 84q126 165 225 261q92 89 139 155
q32 47 74 83.5t109 50.5q16 4 33 14q20 13 50 20q-17 -21 -37 -48l-26 -33l44 -35q-31 -8 -101 -22q48 -44 64 -60l-32 -12q-29 -12 -56 -19q-62 -13 -62 -48q0 -12 7 -28l44 -6l-6 -16q-9 -40 -63 -40l-17 1q9 6 17 13l6 5v1q-6 5 -11 11l-92 -68h23q18 -1 30 -1t21 -1
l14 -14q-74 -9 -114.5 -45.5t-68.5 -81.5q-29 -41 -65 -80q-43 -45 -77.5 -95t-35.5 -110q18 -5 25 -8q2 8 5.5 18t8.5 29l121 -166q-46 -5 -57 -7q71 -19 116.5 -61.5t81.5 -93.5q22 -29 46 -57l-55 -21q-2 -9 -2 -18l125 -21q-1 -4 -1 -17l-54 -23q32 -26 66 -50
q38 -26 69.5 -53t46.5 -59.5t39 -55t50 -41.5q33 -23 60 -51q52 -62 96 -127q19 -28 39 -55q-16 -6 -33 -6q-61 0 -125 79q-18 20 -42 35q-11 7 -21 15q-8 -8 -16 -14q54 -60 78 -84l-2 -2q-36 -20 -36 -38q0 -2 1.5 -9t28.5 -24z" />
    <glyph glyph-name="uni043A" unicode="&#x43a;" horiz-adv-x="1329" 
d="M1138 -83q-13 7 -28 13q-34 12 -55 32q-102 113 -200 228l-94 109q-14 17 -35 28q-26 13 -42.5 30t-16.5 48q-1 17 -17 34q-20 20 -45 40q-72 63 -150 126l-63 52q18 0 54 2l-95 49q-35 -29 -42.5 -61.5t-7.5 -65.5v-8q0 -37 -11 -75q-8 -28 -18 -98q-23 -121 -23 -232
q0 -22 9 -204l-55 -45l-100 47q-9 251 -16 420q-23 -4 -53 -8l-58 -9l21 56q48 119 62 190q7 45 25 87q9 21 9 41q0 28 -14 68q-14 36 -14 65q0 19 9 38q9 25 9 50q0 13 -2 25q-2 18 -2 33t8 27q35 52 38 107l19 257q15 191 24 324q1 27 3 53q111 -218 111 -400
q0 -29 -2 -58l75 227q11 -3 22 -4l-7 -35q-8 -39 -18 -78l-8 -29q-19 -61 -19 -103q0 -25 7 -50l1 -4q0 -4 -3 -10t-8.5 -14.5t-10.5 -17.5q40 -13 46 -36q3 -13 3 -28q0 -12 -2 -25q-3 -19 -3 -37q0 -19 10 -36q7 6 14 10q13 7 20 16l65 84q126 165 225 261q92 89 139 155
q32 47 74 83.5t109 50.5q16 4 33 14q20 13 50 20q-17 -21 -37 -48l-26 -33l44 -35q-31 -8 -101 -22q48 -44 64 -60l-32 -12q-29 -12 -56 -19q-62 -13 -62 -48q0 -12 7 -28l44 -6l-6 -16q-9 -40 -63 -40l-17 1q9 6 17 13l6 5v1q-6 5 -11 11l-92 -68h23q18 -1 30 -1t21 -1
l14 -14q-74 -9 -114.5 -45.5t-68.5 -81.5q-29 -41 -65 -80q-43 -45 -77.5 -95t-35.5 -110q18 -5 25 -8q2 8 5.5 18t8.5 29l121 -166q-46 -5 -57 -7q71 -19 116.5 -61.5t81.5 -93.5q22 -29 46 -57l-55 -21q-2 -9 -2 -18l125 -21q-1 -4 -1 -17l-54 -23q32 -26 66 -50
q38 -26 69.5 -53t46.5 -59.5t39 -55t50 -41.5q33 -23 60 -51q52 -62 96 -127q19 -28 39 -55q-16 -6 -33 -6q-61 0 -125 79q-18 20 -42 35q-11 7 -21 15q-8 -8 -16 -14q54 -60 78 -84l-2 -2q-36 -20 -36 -38q0 -2 1.5 -9t28.5 -24z" />
    <glyph glyph-name="uni041B" unicode="&#x41b;" horiz-adv-x="1565" 
d="M313 -116q-10 0 -50.5 4t-93.5 57q-125 119 -125 202q0 4 2 34t64 94l49 -29q-38 -35 -38 -59q0 -35 66 -63q47 -22 173 -64q1 28 9 145l5 99q13 221 21 277q10 77 18 154q28 266 78 525q38 202 38 231q0 16 -10 75l51 170l54 -87l78 61q52 0 102 1q43 2 84 2
q145 0 313 -27q70 -10 140 -18q11 0 24 11q21 18 40 99q7 32 17 63q5 13 20 22l5 4q11 -44 23 -87q31 -97 39 -192v-10q0 -85 -16 -171q-11 -62 -15 -123q-21 -311 -21 -543q0 -67 3 -132.5t3 -128.5q0 -79 -6 -157q-20 -161 -20 -236q0 -57 11 -116l1 -17q0 -27 -15.5 -37
t-33.5 -10l-12 1q-49 9 -100 34q-23 10 -49 20q37 21 38 41q0 19 -13 42q-22 44 -22 104q0 30 5 61q4 37 5 73q0 70 -3 140q-2 61 -2 122q1 184 24 368q49 442 73 526q17 59 17 78q0 15 -5 24q-9 17 -44 17h-8q-199 -9 -398 -9h-40q-55 -2 -96 -44t-48 -102
q-12 -108 -28 -216q-23 -162 -27 -237q-1 -53 -9 -104q-31 -208 -44 -418q-7 -96 -16 -192q-20 -212 -189 -326q-42 -26 -96 -26z" />
    <glyph glyph-name="uni043B" unicode="&#x43b;" horiz-adv-x="1565" 
d="M313 -116q-10 0 -50.5 4t-93.5 57q-125 119 -125 202q0 4 2 34t64 94l49 -29q-38 -35 -38 -59q0 -35 66 -63q47 -22 173 -64q1 28 9 145l5 99q13 221 21 277q10 77 18 154q28 266 78 525q38 202 38 231q0 16 -10 75l51 170l54 -87l78 61q52 0 102 1q43 2 84 2
q145 0 313 -27q70 -10 140 -18q11 0 24 11q21 18 40 99q7 32 17 63q5 13 20 22l5 4q11 -44 23 -87q31 -97 39 -192v-10q0 -85 -16 -171q-11 -62 -15 -123q-21 -311 -21 -543q0 -67 3 -132.5t3 -128.5q0 -79 -6 -157q-20 -161 -20 -236q0 -57 11 -116l1 -17q0 -27 -15.5 -37
t-33.5 -10l-12 1q-49 9 -100 34q-23 10 -49 20q37 21 38 41q0 19 -13 42q-22 44 -22 104q0 30 5 61q4 37 5 73q0 70 -3 140q-2 61 -2 122q1 184 24 368q49 442 73 526q17 59 17 78q0 15 -5 24q-9 17 -44 17h-8q-199 -9 -398 -9h-40q-55 -2 -96 -44t-48 -102
q-12 -108 -28 -216q-23 -162 -27 -237q-1 -53 -9 -104q-31 -208 -44 -418q-7 -96 -16 -192q-20 -212 -189 -326q-42 -26 -96 -26z" />
    <glyph glyph-name="uni041C" unicode="&#x41c;" horiz-adv-x="1563" 
d="M94 -180q-11 30 -18 42q-15 24 -16 52q6 86 15 170q23 211 23 427l-1 68q0 132 -1 140.5t-1 14.5q0 25 8 37.5t8 22.5q0 14 -15 37q-19 27 -19 50l1 12q13 63 19 126q9 77 21 133.5t14 111.5q-2 28 -22 59q-16 27 -22 45h-1q-13 29 -13 39q0 9 7 15q30 24 38.5 53t9.5 63
q0 52 28 104l18 30l2 -35q3 -64 75 -64q19 0 55 3q1 -12 1 -48q0 -50 6 -89q10 -60 48 -120q56 -73 121 -139l42 -45q32 -35 66 -69q78 -74 139 -159q51 -80 138 -107l58 174l20 1q107 256 109.5 293t23.5 67q40 50 58 106q9 17 25 29q11 9 18 18q3 7 5 17q1 16 17 38
q35 53 82 99q22 17 58 22l22 6l31 68l45 -3q0 -21 1.5 -31.5t1.5 -20.5q0 -18 -7 -36q-5 -10 -5 -19q0 -15 26 -39l15 -16l36 14l6 -45q6 -24 6 -48q0 -29 -24 -155q-11 -61 -21 -123q0 -21 3 -36.5t3 -29.5l-1 -18q-13 -83 -13 -166q0 -86 13 -225q7 -70 13 -183
q26 -508 35.5 -536.5t9.5 -61.5q0 -14 -1 -26.5t-1 -24.5l-1 -9l-47 -9q-35 61 -69 118l-23 -116q-20 0 -40 -2l-16 146l-5 1q0 18 1 25.5t1 12.5q0 20 -14 42q-18 27 -18 46q0 20 21 44l1 4q0 7 -8 31q-5 13 -8 25q-5 26 -12 52q-16 60 -22 124q1 44 16 83l7 26l-41 85
l39 4q-3 21 -7 41q-10 34 -10 67q0 23 5 45q12 38 12 74q0 3 -1 24t-7 61t-6 81q0 19 1 37q8 79 13 188q0 3 -9 12l-4 5l-16 -13q-61 -45 -110 -168q-25 -73 -45 -147q-29 -103 -49 -159q-42 -116 -48 -198q-3 -42 -13 -85q-7 -25 -25 -45t-67 -61q10 46 10 59q0 61 -98 105
q-4 2 -13 2q-15 0 -39 -5q-19 -5 -43 -7l-5 -1q-86 86 -181 226q-124 179 -232 279q-22 -60 -22 -117q0 -55 20 -107q23 -61 23 -127q0 -63 -15 -156q-4 -25 -7 -51l51 10l-65 -154l-3 1l13 -114l-16 -2l-16 -36q-21 -39 -27 -73q-7 -52 -7 -105l-1 -55q0 -32 -9 -52.5
t-42 -20.5q-15 0 -43 5h-1q-5 -5 -29 -49z" />
    <glyph glyph-name="uni043C" unicode="&#x43c;" horiz-adv-x="1563" 
d="M94 -180q-11 30 -18 42q-15 24 -16 52q6 86 15 170q23 211 23 427l-1 68q0 132 -1 140.5t-1 14.5q0 25 8 37.5t8 22.5q0 14 -15 37q-19 27 -19 50l1 12q13 63 19 126q9 77 21 133.5t14 111.5q-2 28 -22 59q-16 27 -22 45h-1q-13 29 -13 39q0 9 7 15q30 24 38.5 53t9.5 63
q0 52 28 104l18 30l2 -35q3 -64 75 -64q19 0 55 3q1 -12 1 -48q0 -50 6 -89q10 -60 48 -120q56 -73 121 -139l42 -45q32 -35 66 -69q78 -74 139 -159q51 -80 138 -107l58 174l20 1q107 256 109.5 293t23.5 67q40 50 58 106q9 17 25 29q11 9 18 18q3 7 5 17q1 16 17 38
q35 53 82 99q22 17 58 22l22 6l31 68l45 -3q0 -21 1.5 -31.5t1.5 -20.5q0 -18 -7 -36q-5 -10 -5 -19q0 -15 26 -39l15 -16l36 14l6 -45q6 -24 6 -48q0 -29 -24 -155q-11 -61 -21 -123q0 -21 3 -36.5t3 -29.5l-1 -18q-13 -83 -13 -166q0 -86 13 -225q7 -70 13 -183
q26 -508 35.5 -536.5t9.5 -61.5q0 -14 -1 -26.5t-1 -24.5l-1 -9l-47 -9q-35 61 -69 118l-23 -116q-20 0 -40 -2l-16 146l-5 1q0 18 1 25.5t1 12.5q0 20 -14 42q-18 27 -18 46q0 20 21 44l1 4q0 7 -8 31q-5 13 -8 25q-5 26 -12 52q-16 60 -22 124q1 44 16 83l7 26l-41 85
l39 4q-3 21 -7 41q-10 34 -10 67q0 23 5 45q12 38 12 74q0 3 -1 24t-7 61t-6 81q0 19 1 37q8 79 13 188q0 3 -9 12l-4 5l-16 -13q-61 -45 -110 -168q-25 -73 -45 -147q-29 -103 -49 -159q-42 -116 -48 -198q-3 -42 -13 -85q-7 -25 -25 -45t-67 -61q10 46 10 59q0 61 -98 105
q-4 2 -13 2q-15 0 -39 -5q-19 -5 -43 -7l-5 -1q-86 86 -181 226q-124 179 -232 279q-22 -60 -22 -117q0 -55 20 -107q23 -61 23 -127q0 -63 -15 -156q-4 -25 -7 -51l51 10l-65 -154l-3 1l13 -114l-16 -2l-16 -36q-21 -39 -27 -73q-7 -52 -7 -105l-1 -55q0 -32 -9 -52.5
t-42 -20.5q-15 0 -43 5h-1q-5 -5 -29 -49z" />
    <glyph glyph-name="uni041D" unicode="&#x41d;" horiz-adv-x="1509" 
d="M264 -188l-25 27q-23 23 -32 39q-38 97 -38 122l1 12h1v50q0 42 11 89q16 73 19 179l-6 16q-11 23 -11 40q0 19 14 115q7 38 12 76q-21 18 -22 37q0 13 2 25l-118 -21l-1 50l-225 -38q182 112 210 132q63 43 125 73q24 11 30 27.5t6 43.5q0 77 -5 195q-3 78 -4 158
q0 19 12 32l-13 3l51 182l5 148l75 7l11 -11l44 79l78 -20q-3 -42 -8 -84q-11 -96 -11 -333v-70q0 -157 -2 -219q-2 -37 -2 -73v-1q94 47 194 66.5t200.5 29.5t200.5 30q21 4 21 23l-1 9q-16 186 -16 327q0 173 39 286q11 34 35 119l141 -154l-8 -19q-26 -51 -26 -97
q0 -25 8 -48l44 35l83 -478l66 -13l-1 -55l125 -45l-87 -38h13l25 -67l-39 -9q-42 -11 -55 -13q-38 -6 -53.5 -11t-15.5 -11q0 -19 12 -63q2 -8 3 -20q0 -12 -7 -27l-7 -15q3 -9 3 -18q0 -7 -3 -17t-11.5 -20t-14 -16t-9 -14t-3.5 -14q5 -152 12 -303q3 -41 10 -205
l-225 265l24 16l1 5q-4 42 -10 85q-9 57 -14 117q0 33 8 64q5 19 6 37q0 4 -4.5 13.5t-8.5 20.5q-1 6 -4 15q-10 22 -19 22q-13 0 -34 -12q-22 -9 -43 -9q-14 0 -28 2q-30 2 -83 2q-68 -18 -88 -18q-23 0 -39 9l-67 19q44 41 48.5 47.5t12.5 14.5l-20 -3q-30 -2 -44.5 -8.5
t-22.5 -23.5l-7 -18q-51 -7 -74 -7q-22 0 -42 1t-38 1q-37 0 -59.5 -9t-35.5 -37q10 -62 10 -80q0 -31 -13 -111q-17 -90 -17 -200l2 -124q0 -10 -2 -26q-8 -41 -67 -57q-15 -4 -15 -11t7 -20q13 -26 16.5 -54t3.5 -77q0 -28 -38 -46l-4 -3z" />
    <glyph glyph-name="uni043D" unicode="&#x43d;" horiz-adv-x="1509" 
d="M264 -188l-25 27q-23 23 -32 39q-38 97 -38 122l1 12h1v50q0 42 11 89q16 73 19 179l-6 16q-11 23 -11 40q0 19 14 115q7 38 12 76q-21 18 -22 37q0 13 2 25l-118 -21l-1 50l-225 -38q182 112 210 132q63 43 125 73q24 11 30 27.5t6 43.5q0 77 -5 195q-3 78 -4 158
q0 19 12 32l-13 3l51 182l5 148l75 7l11 -11l44 79l78 -20q-3 -42 -8 -84q-11 -96 -11 -333v-70q0 -157 -2 -219q-2 -37 -2 -73v-1q94 47 194 66.5t200.5 29.5t200.5 30q21 4 21 23l-1 9q-16 186 -16 327q0 173 39 286q11 34 35 119l141 -154l-8 -19q-26 -51 -26 -97
q0 -25 8 -48l44 35l83 -478l66 -13l-1 -55l125 -45l-87 -38h13l25 -67l-39 -9q-42 -11 -55 -13q-38 -6 -53.5 -11t-15.5 -11q0 -19 12 -63q2 -8 3 -20q0 -12 -7 -27l-7 -15q3 -9 3 -18q0 -7 -3 -17t-11.5 -20t-14 -16t-9 -14t-3.5 -14q5 -152 12 -303q3 -41 10 -205
l-225 265l24 16l1 5q-4 42 -10 85q-9 57 -14 117q0 33 8 64q5 19 6 37q0 4 -4.5 13.5t-8.5 20.5q-1 6 -4 15q-10 22 -19 22q-13 0 -34 -12q-22 -9 -43 -9q-14 0 -28 2q-30 2 -83 2q-68 -18 -88 -18q-23 0 -39 9l-67 19q44 41 48.5 47.5t12.5 14.5l-20 -3q-30 -2 -44.5 -8.5
t-22.5 -23.5l-7 -18q-51 -7 -74 -7q-22 0 -42 1t-38 1q-37 0 -59.5 -9t-35.5 -37q10 -62 10 -80q0 -31 -13 -111q-17 -90 -17 -200l2 -124q0 -10 -2 -26q-8 -41 -67 -57q-15 -4 -15 -11t7 -20q13 -26 16.5 -54t3.5 -77q0 -28 -38 -46l-4 -3z" />
    <glyph glyph-name="uni041E" unicode="&#x41e;" horiz-adv-x="1737" 
d="M900 -167q-17 0 -33 1q-6 1 -12 5t-11 8t-8 6q-52 -7 -102 -18l13 71l-12 -8q-50 -38 -77 -38q-9 0 -22.5 5.5t-22.5 49.5q-27 -19 -56 -19q-34 0 -44 48l-3 -37q-12 3 -48 59q-57 92 -112 123q-43 23 -71 65t-52 89q-27 55 -60 101q-11 16 -20 36q-22 53 -52 53
q-10 0 -14 29l-10 50q-19 76 -22 148q5 108 36 219q79 352 176 516q50 82 131 122q92 40 100 109l7 33l17 -29l91 -13q0 24 2 86l21 10q-2 -12 -2 -21q0 -42 49 -42q17 -1 32 -6l9 21l-45 30q35 0 60.5 9.5t51.5 9.5q16 0 31 -3q41 -10 84 -17q59 -8 116 -26q28 -10 58 -15
q42 -6 81 -24q67 -38 267 -144q-9 -23 -9 -45q0 -50 48 -106q110 -138 145 -331q15 -87 35 -267l32 65q2 -13 2 -26q0 -25 -18 -67q-14 -30 -19 -64q-8 -68 -36 -129q-23 -57 -45 -128q-41 -128 -91 -253l-17 9l39 115l31 95q-6 3 -10 8q-24 -42 -60 -94q-16 -26 -23 -33
q-18 -17 -18 -36q0 -15 15 -39q8 -11 8 -21q0 -19 -22.5 -41.5t-33.5 -28.5q-6 -4 -16.5 -4t-11.5 -3q-12 -37 -52 -67q-22 -17 -39 -39q-29 -43 -105 -71q-125 -51 -251 -51zM89 599l64 219l-13 19q-3 -45 -19 -45q-9 0 -24 19l-19 -210q5 -2 11 -2zM1017 909l138 408
l-10 13l-245 -278q4 -34 24 -56.5t45 -40.5q28 -20 48 -46zM1313 542l70 8l-21 28q-21 36 -250 129l-4 1q-50 0 -62 -153l33 5q27 7 51 7q94 -7 168 -24zM596 979l108 68q-51 133 -169 165zM376 598q39 10 96.5 23t96.5 23l-32 105q-41 -17 -80.5 -58t-80.5 -93zM897 573
q19 0 41 19q53 46 53 126q0 17 -4 29q-48 129 -121 191q-25 24 -43 24q-14 0 -32 -17q-53 -51 -156 -136q31 -90 57 -182l36 -12q85 -31 169 -42zM778 1120l135 82q7 6 14 15q14 22 33.5 35.5t35.5 35.5q12 15 25 27.5t32 15.5q9 2 18 14t17.5 27t16.5 27l-154 34
q-83 -9 -127 -9q-27 0 -79 6q-47 6 -93 6q-39 0 -77 -10q-36 -12 -67 -45v-3q0 -13 10 -36.5t108 -86.5q10 -6 20 -13q5 -4 11 -7q10 -4 19 -12zM260 692q50 50 72 77q34 45 62 53q61 14 126 89q12 13 12 29q0 5 -32 114q-12 38 -23 78q-22 65 -26 128q0 35 -16 59t-44 28
l-4 -18q-3 -19 -10 -29q-98 -118 -118 -252q-19 -151 -19 -288q1 -22 11 -46q5 -11 9 -22zM282 282l28 15l-85 173l-16 -9q57 -133 73 -179zM675 47l64 17l-10 45q-27 101 -44.5 204t-94.5 149q-79 34 -164 47q-14 2 -28 5t-34.5 5.5t-40.5 3.5q-20 0 -31 -2.5t-11 -7.5v-2
q48 -99 105 -190q39 -61 75 -124q-4 -6 -8 -11q108 -77 222 -139zM817 161q41 66 52 165q2 24 2 45q0 68 -25 114q-48 -7 -71 -7q-32 0 -32 -45q0 -44 45 -173q21 -62 29 -99zM910 -54q22 0 47.5 11.5t42.5 11.5q15 0 29 -10q11 12 19 31q13 30 24 30q8 0 19 -13
q81 76 173 136l-4 5q32 40 74.5 100.5t74.5 99.5h-15q-41 0 -87 18q-53 18 -83 18q-17 0 -39 -7q-3 0 -8.5 3t-10.5 4q-30 3 -61 18q-34 18 -68 19q-2 0 -4 -3t-10 -11q-25 -23 -34 -23q-8 2 -14 2q-11 0 -18 -10q-11 -15 -22 -76q-17 -88 -29 -108q-42 -58 -42 -133
q0 -31 16 -31q15 0 33 9t26 9q3 0 7 -3.5t11 -8.5q-44 -28 -91 -49q18 -39 44 -39zM1432 679q16 0 33 16q12 12 12 60q0 32 -7 64q-57 228 -93 316l-12 31q36 -27 57 -70t38 -92q14 -41 31 -79q-8 258 -174 305l18 51q-7 10 -11 15l-34 -38q-2 14 -2 30l2 36q0 18 -5 37.5
t-37 24.5l-45 -223l-35 31l-7 -7l46 -63l-8 -22q-11 -29 -23 -76q-10 -41 -23 -81q-18 -48 -18 -90l2 -33q6 -86 295 -143zM1565 586q47 82 47 196q0 93 -25.5 188t-71.5 160q32 -68 35 -142q2 -30 2 -60q0 -44 -4 -90q-3 -53 -3 -107q0 -10 1 -47t19 -98z" />
    <glyph glyph-name="uni043E" unicode="&#x43e;" horiz-adv-x="1737" 
d="M805 1714l-155 -125l9 -9q184 70 219 84zM1482 1535q-49 76 -112 101q-34 13 -75 13q-37 0 -81 -10q73 -29 148 -57zM314 989l196 322q-33 -1 -80.5 -54t-88 -125.5t-51.5 -132.5zM1146 262q53 68 115 133q84 87 148.5 183t68.5 218l-20 -25q-45 -44 -72 -106
q-40 -86 -102 -165q-22 -30 -41 -60l-82 -117l-37 -52zM770 77q29 1 83.5 25.5t100.5 56t49 51.5q5 57 36 101t71 84q34 33 63 69q25 36 48 81l26 47l40 3l6 36q2 35 14 62q63 122 131 243l44 79q39 76 39 150q0 103 -94 285q-22 -77 -35 -128h-25q18 41 18 76
q0 97 -130 148q-36 15 -67 15q-7 0 -28 -3t-55 -40q3 14 3 25q0 39 -41 39q-35 0 -309 -69q-4 -1 -9 -2.5t-16 -14.5l-7 -9q16 -2 31 -2q24 0 43 5q30 7 72 7q11 0 25 -1t29 -1q-93 -15 -158 -56.5t-121 -92.5q-28 -25 -57 -48q-59 -48 -95 -105.5t-65 -117.5
q-15 -34 -33 -66q-50 -104 -70 -218q-9 -49 -22 -97q8 1 16 3l6 1l32 -127l-59 -39q39 -17 53 -21l1 -19l-3 -34q0 -25 9 -43q30 -47 62.5 -89.5t58.5 -84.5q97 -158 289 -164zM805 1714q1 0 1 1q49 -16 84 -21l64 -5q69 -7 137 -7q37 0 75 3t75 3q79 0 166.5 -22
t138.5 -100q50 -92 72 -195l17 -62l13 -42q27 -78 27 -125q0 -13 -1 -25q-22 -138 -63 -275l-26 -96q-55 -207 -245 -407q-34 -39 -58 -84q-49 -94 -165 -174q-20 -14 -39 -29t-40 -31q-87 -59 -155 -135q-23 -24 -66 -38q-20 -7 -37 -15q-10 22 -16.5 43t-14.5 37
q-17 35 -134 35h-8q-26 1 -51 3q-2 -11 -7 -22l105 -32l-4 -15l-163 37q28 33 28 54q0 30 -55 56q-18 9 -33 20l-19 -39l-26 28q-32 28 -50 60q-25 52 -45 105t-44 103q-14 23 -43 43q-14 9 -28 20l42 12l-28 53q-50 92 -98 185q-1 0 -1 1q-10 16 -13 33t-6 35
q-19 90 -19 134q0 33 9 66q3 16 5 33l43 -9l-34 -98q16 9 33 16q36 17 39 28q11 41 95 406q3 18 3 36q0 29 11 54.5t55 38.5q0 11 -6 21v2q19 11 37 20q38 18 64 40q165 159 402 238zM805 1714l-1 1h1v-1z" />
    <glyph glyph-name="uni041F" unicode="&#x41f;" horiz-adv-x="1362" 
d="M150 -136q-16 0 -27 6q-19 16 -19 81q0 76 24 106l-50 36l48 42q-3 12 -15 25q-15 19 -15 28q0 17 42 30q-22 12 -34 20q3 32 7 62q9 66 10 130q-2 133 -8 266q-4 91 -6 182q-3 26 -3 123q0 141 16 248q14 79 14 157l-2 55q0 43 29 114q23 52 32 118l59 -77q38 9 77 16
q86 15 169 43q89 30 179 35q68 5 135 5l45 -1l61 -1q91 0 182 11q5 1 10.5 3.5t10.5 3.5q11 2 24 6q27 7 38 7q6 0 9 -3q31 -39 31 -74q0 -8 -2 -15v-2q-15 -40 -15 -76q0 -29 23 -58q3 -4 3 -9l-12 -106q-12 -95 -15 -190q1 -113 13 -226q18 -213 40 -420q46 -452 50 -474
q-1 -19 -29 -51t-61 -55q-24 -16 -38 -16q-18 0 -18 40l1 57q-13 9 -52 31l52 28l-25 84q-40 118 -40 190v8q0 33 -5 63.5t-5 60.5v10q2 28 2 55q0 50 -7 99q-4 22 -28 52l-8 12l29 721h-754q-25 -97 -25 -214q0 -84 6 -170q7 -92 7 -186q0 -81 -14 -164l73 -31
q-58 -122 -68 -250q-8 -88 -8 -177q0 -40 2 -82.5t2 -86.5l-2 -87l-18 8l-15 -24q-35 -54 -43 -91q-4 -29 -19 -47q-18 -14 -50 -14z" />
    <glyph glyph-name="uni043F" unicode="&#x43f;" horiz-adv-x="1362" 
d="M150 -136q-16 0 -27 6q-19 16 -19 81q0 76 24 106l-50 36l48 42q-3 12 -15 25q-15 19 -15 28q0 17 42 30q-22 12 -34 20q3 32 7 62q9 66 10 130q-2 133 -8 266q-4 91 -6 182q-3 26 -3 123q0 141 16 248q14 79 14 157l-2 55q0 43 29 114q23 52 32 118l59 -77q38 9 77 16
q86 15 169 43q89 30 179 35q68 5 135 5l45 -1l61 -1q91 0 182 11q5 1 10.5 3.5t10.5 3.5q11 2 24 6q27 7 38 7q6 0 9 -3q31 -39 31 -74q0 -8 -2 -15v-2q-15 -40 -15 -76q0 -29 23 -58q3 -4 3 -9l-12 -106q-12 -95 -15 -190q1 -113 13 -226q18 -213 40 -420q46 -452 50 -474
q-1 -19 -29 -51t-61 -55q-24 -16 -38 -16q-18 0 -18 40l1 57q-13 9 -52 31l52 28l-25 84q-40 118 -40 190v8q0 33 -5 63.5t-5 60.5v10q2 28 2 55q0 50 -7 99q-4 22 -28 52l-8 12l29 721h-754q-25 -97 -25 -214q0 -84 6 -170q7 -92 7 -186q0 -81 -14 -164l73 -31
q-58 -122 -68 -250q-8 -88 -8 -177q0 -40 2 -82.5t2 -86.5l-2 -87l-18 8l-15 -24q-35 -54 -43 -91q-4 -29 -19 -47q-18 -14 -50 -14z" />
    <glyph glyph-name="uni0420" unicode="&#x420;" horiz-adv-x="1436" 
d="M473 804q11 0 24 3q213 33 258 33h13q23 0 46 3q121 21 199.5 91t138.5 162q20 29 20 55q0 30 -27 57l-20 19q-41 45 -90 80t-124 43q-137 16 -279 51l-133 28l-1 -42q0 -66 -63 -529l-1 -14q0 -40 39 -40zM1348 1258l1 35q-1 11 -10 23q-17 29 -35 29q-3 0 -11.5 -2
t-29.5 -27zM1229 909l101 115l-26 19l-101 -115zM1109 1561l-133 9l3 32l133 -9zM203 -268q1 15 1 31q2 88 3 95.5t1 16.5q0 19 -4 36q-9 24 -21 46q-37 64 -37 275q0 18 15 37q7 9 14 21l-74 21l20 28q17 -2 23 -2l7 63q10 54 10 107q0 23 -2 46q-4 20 -25.5 39.5
t-46.5 36.5q-11 7 -20 14q-14 9 -45 10q-17 1 -40 4q17 13 31 25q25 21 34 21q26 -11 44 -11q10 0 24 5.5t22.5 26.5t11.5 42l5 20q48 139 80 282q10 43 21 85q9 36 16 72q11 57 28 112q5 14 5 24q0 22 -26 22q-17 0 -26 -3l-25 -1q-18 0 -42 29l-12 13l13 10q13 13 29 20
q28 11 58 20l25 7q-2 2 -4.5 6t-5.5 9q-104 0 -143 -5q-23 -6 -48 -30q-14 -12 -31 -25l5 20q2 23 13 28q44 31 74 34q62 4 137 59q36 28 73 42l-9 20l-18 44l19 12q22 -10 57 -24l-43 78q1 -1 137 -28q-2 -7 -2 -13q-2 -12 -5 -22q-9 -22 -9 -40q0 -23 15 -39
q23 -25 70 -25l17 1q284 30 304 30q51 0 51 -29q0 -16 -13 -41l239 -62l27 39l47 -53q53 -64 112 -120q28 -27 28 -50q0 -17 -16 -32q-24 -23 -24 -43q0 -24 14 -47q28 -55 28 -111q0 -2 -1 -32t-20 -88q-3 -9 -10 -17q-15 -17 -71 -42q-62 -25 -100 -66q-24 -30 -54 -44
t-62 -23t-61 -23q-176 -83 -375 -92q-81 -5 -158 -25q-49 -14 -76 -54.5t-27 -90.5q0 -402 -13 -448q-9 -28 -26 -38q-64 -31 -83 -77.5t-23 -99.5q-3 -26 -8 -51q0 -11 -23 -18z" />
    </font>
</defs>
</svg>
